<svg width="100" height="100" viewBox="0 0 100 100" fill="none" xmlns="http://www.w3.org/2000/svg">
<path d="M83.3335 41.6667L84.8085 43.1417L86.2793 41.6667L84.8085 40.1917L83.3335 41.6667ZM14.5835 75.0001C14.5835 75.5526 14.803 76.0825 15.1937 76.4732C15.5844 76.8639 16.1143 77.0834 16.6668 77.0834C17.2194 77.0834 17.7493 76.8639 18.14 76.4732C18.5307 76.0825 18.7502 75.5526 18.7502 75.0001H14.5835ZM63.9752 63.9751L84.8085 43.1417L81.8585 40.1917L61.0252 61.0251L63.9752 63.9751ZM84.8085 40.1917L63.9752 19.3584L61.0252 22.3084L81.8585 43.1417L84.8085 40.1917ZM83.3335 39.5834H41.6668V43.7501H83.3335V39.5834ZM14.5835 66.6667V75.0001H18.7502V66.6667H14.5835ZM41.6668 39.5834C34.4839 39.5834 27.5951 42.4368 22.516 47.5159C17.4369 52.595 14.5835 59.4838 14.5835 66.6667H18.7502C18.7502 60.5889 21.1646 54.7599 25.4623 50.4622C29.76 46.1645 35.589 43.7501 41.6668 43.7501V39.5834Z" fill="#1C1817"/>
</svg>
