<svg width="100" height="100" viewBox="0 0 100 100" fill="none" xmlns="http://www.w3.org/2000/svg">
<path d="M84.375 29.6876H65.1602C66.9505 28.8963 68.6132 27.8431 70.0938 26.5626C71.1204 25.6496 71.9474 24.5344 72.5228 23.2868C73.0982 22.0392 73.4096 20.6862 73.4375 19.3126C73.4818 17.7904 73.2146 16.2752 72.6523 14.8599C72.0901 13.4446 71.2446 12.1591 70.1678 11.0823C69.0909 10.0055 67.8055 9.16001 66.3902 8.59776C64.9749 8.0355 63.4597 7.76831 61.9375 7.81259C60.5639 7.84048 59.2109 8.15188 57.9633 8.72728C56.7157 9.30268 55.6004 10.1297 54.6875 11.1563C52.3789 13.7618 50.9258 17.1563 50 20.4102C49.082 17.1563 47.6289 13.7696 45.3125 11.1563C44.3996 10.1297 43.2843 9.30268 42.0367 8.72728C40.7891 8.15188 39.4361 7.84048 38.0625 7.81259C36.5403 7.76831 35.0251 8.0355 33.6098 8.59776C32.1945 9.16001 30.9091 10.0055 29.8322 11.0823C28.7554 12.1591 27.9099 13.4446 27.3477 14.8599C26.7854 16.2752 26.5182 17.7904 26.5625 19.3126C26.5904 20.6862 26.9018 22.0392 27.4772 23.2868C28.0526 24.5344 28.8796 25.6496 29.9062 26.5626C31.3868 27.8431 33.0495 28.8963 34.8398 29.6876H15.625C14.3818 29.6876 13.1895 30.1814 12.3104 31.0605C11.4314 31.9396 10.9375 33.1319 10.9375 34.3751V46.8751C10.9375 48.1183 11.4314 49.3106 12.3104 50.1897C13.1895 51.0687 14.3818 51.5626 15.625 51.5626H17.1875V78.1251C17.1875 79.3683 17.6814 80.5606 18.5604 81.4397C19.4395 82.3187 20.6318 82.8126 21.875 82.8126H78.125C79.3682 82.8126 80.5605 82.3187 81.4396 81.4397C82.3186 80.5606 82.8125 79.3683 82.8125 78.1251V51.5626H84.375C85.6182 51.5626 86.8105 51.0687 87.6896 50.1897C88.5686 49.3106 89.0625 48.1183 89.0625 46.8751V34.3751C89.0625 33.1319 88.5686 31.9396 87.6896 31.0605C86.8105 30.1814 85.6182 29.6876 84.375 29.6876ZM57.0312 13.2267C57.6621 12.5214 58.4319 11.954 59.2923 11.5601C60.1527 11.1662 61.0851 10.9543 62.0312 10.9376H62.2695C63.3456 10.9387 64.4106 11.1555 65.4015 11.5751C66.3925 11.9946 67.2893 12.6085 68.039 13.3805C68.7888 14.1524 69.3762 15.0668 69.7667 16.0695C70.1572 17.0723 70.3428 18.1432 70.3125 19.2188C70.2956 20.1649 70.0835 21.0973 69.6897 21.9577C69.2958 22.818 68.7285 23.5878 68.0234 24.2188C63.3008 28.3985 55.1055 29.379 51.6172 29.6056C51.8594 26.1446 52.8359 17.9688 57.0312 13.2267ZM29.6875 19.2188C29.6572 18.1432 29.8428 17.0723 30.2333 16.0695C30.6238 15.0668 31.2112 14.1524 31.961 13.3805C32.7107 12.6085 33.6075 11.9946 34.5985 11.5751C35.5894 11.1555 36.6544 10.9387 37.7305 10.9376H37.9687C38.9149 10.9543 39.8473 11.1662 40.7077 11.5601C41.5681 11.954 42.3379 12.5214 42.9688 13.2267C47.1523 17.9493 48.1289 26.1446 48.3555 29.6329C44.8828 29.4063 36.6875 28.4259 31.9492 24.2462C31.2458 23.6096 30.6816 22.8343 30.2924 21.9691C29.9032 21.1039 29.6972 20.1675 29.6875 19.2188ZM14.0625 46.8751V34.3751C14.0625 33.9607 14.2271 33.5633 14.5201 33.2702C14.8132 32.9772 15.2106 32.8126 15.625 32.8126H48.4375V48.4376H15.625C15.2106 48.4376 14.8132 48.273 14.5201 47.9799C14.2271 47.6869 14.0625 47.2895 14.0625 46.8751ZM20.3125 78.1251V51.5626H48.4375V79.6876H21.875C21.4606 79.6876 21.0632 79.523 20.7701 79.2299C20.4771 78.9369 20.3125 78.5395 20.3125 78.1251ZM79.6875 78.1251C79.6875 78.5395 79.5229 78.9369 79.2299 79.2299C78.9368 79.523 78.5394 79.6876 78.125 79.6876H51.5625V51.5626H79.6875V78.1251ZM85.9375 46.8751C85.9375 47.2895 85.7729 47.6869 85.4799 47.9799C85.1868 48.273 84.7894 48.4376 84.375 48.4376H51.5625V32.8126H84.375C84.7894 32.8126 85.1868 32.9772 85.4799 33.2702C85.7729 33.5633 85.9375 33.9607 85.9375 34.3751V46.8751Z" fill="#1C1817"/>
</svg>
