<svg width="101" height="100" viewBox="0 0 101 100" fill="none" xmlns="http://www.w3.org/2000/svg">
<path d="M95.8125 50C95.8159 46.6409 94.9863 43.3334 93.3978 40.3736C91.8093 37.4139 89.5116 34.8942 86.7104 33.0404C83.9093 31.1865 80.692 30.0562 77.3469 29.7508C74.0017 29.4454 70.633 29.9744 67.5424 31.2903C64.4518 32.6063 61.7358 34.6682 59.6376 37.2913C57.5394 39.9145 56.1245 43.0171 55.5196 46.3213C54.9147 49.6255 55.1386 53.0281 56.1714 56.2245C57.2042 59.4208 59.0136 62.3112 61.4375 64.6367V87.5C61.4373 87.7665 61.5053 88.0286 61.6349 88.2614C61.7646 88.4942 61.9516 88.69 62.1783 88.8301C62.4049 88.9702 62.6637 89.0501 62.9299 89.062C63.1961 89.074 63.4609 89.0177 63.6992 88.8984L75.5 82.9961L87.3008 88.8984C87.5182 89.006 87.7574 89.0621 88 89.0625C88.4144 89.0625 88.8118 88.8979 89.1049 88.6049C89.3979 88.3118 89.5625 87.9144 89.5625 87.5V64.6367C91.5387 62.7455 93.1112 60.4735 94.1854 57.958C95.2596 55.4424 95.8131 52.7353 95.8125 50ZM58.3125 50C58.3125 46.6006 59.3205 43.2776 61.2091 40.4511C63.0977 37.6247 65.782 35.4217 68.9226 34.1208C72.0632 32.8199 75.5191 32.4796 78.8531 33.1428C82.1872 33.8059 85.2497 35.4429 87.6534 37.8466C90.0571 40.2503 91.6941 43.3128 92.3573 46.6469C93.0204 49.9809 92.6801 53.4368 91.3792 56.5774C90.0783 59.718 87.8753 62.4023 85.0489 64.2909C82.2224 66.1795 78.8994 67.1875 75.5 67.1875C70.9432 67.1823 66.5745 65.3699 63.3523 62.1477C60.1302 58.9255 58.3177 54.5568 58.3125 50ZM86.4375 84.9727L76.1992 79.8516C75.9821 79.7429 75.7427 79.6864 75.5 79.6864C75.2573 79.6864 75.0179 79.7429 74.8008 79.8516L64.5625 84.9727V67.1016C67.8253 69.1979 71.6218 70.3124 75.5 70.3124C79.3782 70.3124 83.1747 69.1979 86.4375 67.1016V84.9727ZM52.0625 75C52.0625 75.4144 51.8979 75.8118 51.6049 76.1049C51.3118 76.3979 50.9144 76.5625 50.5 76.5625H16.125C14.8818 76.5625 13.6895 76.0686 12.8104 75.1896C11.9314 74.3105 11.4375 73.1182 11.4375 71.875V21.875C11.4375 20.6318 11.9314 19.4395 12.8104 18.5604C13.6895 17.6814 14.8818 17.1875 16.125 17.1875H84.875C86.1182 17.1875 87.3105 17.6814 88.1896 18.5604C89.0686 19.4395 89.5625 20.6318 89.5625 21.875C89.5625 22.2894 89.3979 22.6868 89.1049 22.9799C88.8118 23.2729 88.4144 23.4375 88 23.4375C87.5856 23.4375 87.1882 23.2729 86.8951 22.9799C86.6021 22.6868 86.4375 22.2894 86.4375 21.875C86.4375 21.4606 86.2729 21.0632 85.9799 20.7701C85.6868 20.4771 85.2894 20.3125 84.875 20.3125H16.125C15.7106 20.3125 15.3132 20.4771 15.0201 20.7701C14.7271 21.0632 14.5625 21.4606 14.5625 21.875V71.875C14.5625 72.2894 14.7271 72.6868 15.0201 72.9799C15.3132 73.2729 15.7106 73.4375 16.125 73.4375H50.5C50.9144 73.4375 51.3118 73.6021 51.6049 73.8951C51.8979 74.1882 52.0625 74.5856 52.0625 75ZM45.8125 53.125C45.8125 53.5394 45.6479 53.9368 45.3549 54.2299C45.0618 54.5229 44.6644 54.6875 44.25 54.6875H28.625C28.2106 54.6875 27.8132 54.5229 27.5201 54.2299C27.2271 53.9368 27.0625 53.5394 27.0625 53.125C27.0625 52.7106 27.2271 52.3132 27.5201 52.0201C27.8132 51.7271 28.2106 51.5625 28.625 51.5625H44.25C44.6644 51.5625 45.0618 51.7271 45.3549 52.0201C45.6479 52.3132 45.8125 52.7106 45.8125 53.125ZM45.8125 40.625C45.8125 41.0394 45.6479 41.4368 45.3549 41.7299C45.0618 42.0229 44.6644 42.1875 44.25 42.1875H28.625C28.2106 42.1875 27.8132 42.0229 27.5201 41.7299C27.2271 41.4368 27.0625 41.0394 27.0625 40.625C27.0625 40.2106 27.2271 39.8132 27.5201 39.5201C27.8132 39.2271 28.2106 39.0625 28.625 39.0625H44.25C44.6644 39.0625 45.0618 39.2271 45.3549 39.5201C45.6479 39.8132 45.8125 40.2106 45.8125 40.625Z" fill="#1C1817"/>
</svg>
