<svg width="100" height="100" viewBox="0 0 100 100" fill="none" xmlns="http://www.w3.org/2000/svg">
<path fill-rule="evenodd" clip-rule="evenodd" d="M48.4615 70.1084C48.3684 74.9846 44.6603 78.8659 40.1588 78.7992C35.6569 78.7321 32.0485 74.7425 32.0788 69.865C32.1092 64.988 35.767 61.0509 40.2692 61.05C42.4646 61.0742 44.5607 62.0421 46.0973 63.7409C47.6334 65.4396 48.4842 67.73 48.4615 70.1084Z" stroke="#1C1817" stroke-width="3" stroke-linecap="round" stroke-linejoin="round"/>
<path fill-rule="evenodd" clip-rule="evenodd" d="M87.4808 70.1084C87.3877 74.9846 83.68 78.8659 79.1781 78.7992C74.6762 78.7321 71.0677 74.7425 71.0981 69.865C71.1285 64.988 74.7862 61.0509 79.2885 61.05C81.4839 61.0742 83.58 62.0421 85.1166 63.7409C86.6531 65.4396 87.5035 67.73 87.4808 70.1084Z" stroke="#1C1817" stroke-width="3" stroke-linecap="round" stroke-linejoin="round"/>
<path d="M70.1305 72.1917C71.1925 72.1917 72.0536 71.2588 72.0536 70.1084C72.0536 68.958 71.1925 68.025 70.1305 68.025V72.1917ZM48.4613 68.025C47.3994 68.025 46.5382 68.958 46.5382 70.1084C46.5382 71.2588 47.3994 72.1917 48.4613 72.1917V68.025ZM68.2229 70.1084C68.2229 71.2588 69.084 72.1917 70.1459 72.1917C71.2079 72.1917 72.069 71.2588 72.069 70.1084H68.2229ZM72.069 48.1625C72.069 47.0121 71.2079 46.0792 70.1459 46.0792C69.084 46.0792 68.2229 47.0121 68.2229 48.1625H72.069ZM70.1459 68.025C69.084 68.025 68.2229 68.958 68.2229 70.1084C68.2229 71.2588 69.084 72.1917 70.1459 72.1917V68.025ZM71.1113 72.1917C72.1732 72.1917 73.0344 71.2588 73.0344 70.1084C73.0344 68.958 72.1732 68.025 71.1113 68.025V72.1917ZM87.4552 68.0255C86.3932 68.05 85.5509 69.0021 85.5732 70.1525C85.5959 71.303 86.4748 72.2155 87.5367 72.1913L87.4552 68.0255ZM96.1536 60.3542L98.0763 60.3167C98.0744 60.2067 98.0648 60.0967 98.0467 59.9884L96.1536 60.3542ZM96.039 47.7967C95.8525 46.6638 94.8536 45.9096 93.8082 46.1117C92.7625 46.3138 92.0663 47.3959 92.2529 48.5284L96.039 47.7967ZM70.1305 26.5709C69.0686 26.5709 68.2075 27.5036 68.2075 28.6542C68.2075 29.8048 69.0686 30.7375 70.1305 30.7375V26.5709ZM83.8652 28.6542V30.7376L83.8775 30.7375L83.8652 28.6542ZM92.5382 38.4084L90.6171 38.3173C90.6109 38.4704 90.6202 38.6237 90.6452 38.7746L92.5382 38.4084ZM92.2529 48.5284C92.4394 49.6609 93.4382 50.4159 94.484 50.2134C95.5294 50.0113 96.2259 48.9296 96.039 47.7967L92.2529 48.5284ZM72.0536 28.6542C72.0536 27.5036 71.1925 26.5709 70.1305 26.5709C69.0686 26.5709 68.2075 27.5036 68.2075 28.6542H72.0536ZM68.2075 48.1625C68.2075 49.313 69.0686 50.2459 70.1305 50.2459C71.1925 50.2459 72.0536 49.313 72.0536 48.1625H68.2075ZM68.2075 28.6542C68.2075 29.8048 69.0686 30.7375 70.1305 30.7375C71.1925 30.7375 72.0536 29.8048 72.0536 28.6542H68.2075ZM70.1305 25.3209L68.2075 25.3072V25.3209H70.1305ZM66.0382 20.8334L66.049 18.75H66.0382V20.8334ZM29.1729 20.8334V18.75L29.1639 18.7501L29.1729 20.8334ZM25.0767 25.3125H26.9998L26.9997 25.3028L25.0767 25.3125ZM25.0767 65.625L26.9998 65.6346V65.625H25.0767ZM29.1729 70.1042L29.1639 72.1875H29.1729V70.1042ZM32.0613 72.1875C33.1234 72.1875 33.9844 71.2546 33.9844 70.1042C33.9844 68.9538 33.1234 68.0209 32.0613 68.0209V72.1875ZM70.1382 46.075C69.0763 46.075 68.2152 47.008 68.2152 48.1584C68.2152 49.3088 69.0763 50.2417 70.1382 50.2417V46.075ZM94.1536 50.2417C95.2155 50.2417 96.0767 49.3088 96.0767 48.1584C96.0767 47.008 95.2155 46.075 94.1536 46.075V50.2417ZM3.84593 27.0834C2.78384 27.0834 1.92285 28.0161 1.92285 29.1667C1.92285 30.3173 2.78384 31.25 3.84593 31.25V27.0834ZM15.8844 31.25C16.9465 31.25 17.8075 30.3173 17.8075 29.1667C17.8075 28.0161 16.9465 27.0834 15.8844 27.0834V31.25ZM7.69208 39.5834C6.63001 39.5834 5.76901 40.5161 5.76901 41.6667C5.76901 42.8171 6.63001 43.75 7.69208 43.75V39.5834ZM15.3844 43.75C16.4465 43.75 17.3075 42.8171 17.3075 41.6667C17.3075 40.5161 16.4465 39.5834 15.3844 39.5834V43.75ZM10.0382 52.0834C8.97616 52.0834 8.11516 53.0163 8.11516 54.1667C8.11516 55.3171 8.97616 56.25 10.0382 56.25V52.0834ZM15.3844 56.25C16.4465 56.25 17.3075 55.3171 17.3075 54.1667C17.3075 53.0163 16.4465 52.0834 15.3844 52.0834V56.25ZM70.1305 68.025H48.4613V72.1917H70.1305V68.025ZM72.069 70.1084V48.1625H68.2229V70.1084H72.069ZM70.1459 72.1917H71.1113V68.025H70.1459V72.1917ZM87.5367 72.1913C93.4698 72.0555 98.1836 66.7446 98.0763 60.3167L94.2309 60.3917C94.2998 64.5242 91.2694 67.938 87.4552 68.0255L87.5367 72.1913ZM98.0467 59.9884L96.039 47.7967L92.2529 48.5284L94.2605 60.72L98.0467 59.9884ZM70.1305 30.7375L83.8652 30.7376V26.5709H70.1305V30.7375ZM83.8775 30.7375C85.7132 30.725 87.474 31.5288 88.7478 32.9615L91.5179 30.0708C89.5132 27.8163 86.7425 26.5512 83.8529 26.5709L83.8775 30.7375ZM88.7478 32.9615C90.0217 34.3941 90.6971 36.33 90.6171 38.3173L94.4594 38.4995C94.5859 35.372 93.5225 32.3254 91.5179 30.0708L88.7478 32.9615ZM90.6452 38.7746L92.2529 48.5284L96.039 47.7967L94.4313 38.0422L90.6452 38.7746ZM68.2075 28.6542V48.1625H72.0536V28.6542H68.2075ZM72.0536 28.6542V25.3209H68.2075V28.6542H72.0536ZM72.0536 25.3345C72.064 23.5985 71.4371 21.9292 70.3109 20.6942L67.5748 23.6225C67.9836 24.0709 68.2113 24.677 68.2075 25.3072L72.0536 25.3345ZM70.3109 20.6942C69.1848 19.4591 67.6513 18.7598 66.049 18.75L66.0275 22.9167C66.6094 22.9202 67.1659 23.1741 67.5748 23.6225L70.3109 20.6942ZM66.0382 18.75L29.1729 18.75V22.9167H66.0382V18.75ZM29.1639 18.7501C27.5624 18.7582 26.0294 19.4551 24.9023 20.6877L27.6346 23.6202C28.0438 23.1727 28.6004 22.9196 29.1818 22.9167L29.1639 18.7501ZM24.9023 20.6877C23.7752 21.9202 23.1461 23.5873 23.1537 25.3223L26.9997 25.3028C26.997 24.6729 27.2254 24.0676 27.6346 23.6202L24.9023 20.6877ZM23.1536 25.3125V65.625H26.9998L26.9998 25.3125H23.1536ZM23.1537 65.6155C23.1461 67.35 23.7752 69.0175 24.9023 70.25L27.6346 67.3175C27.2254 66.87 26.9971 66.2646 26.9998 65.6346L23.1537 65.6155ZM24.9023 70.25C26.0294 71.4825 27.5624 72.1796 29.1639 72.1875L29.1818 68.0209C28.6004 68.018 28.0438 67.765 27.6346 67.3175L24.9023 70.25ZM29.1729 72.1875H32.0613V68.0209H29.1729V72.1875ZM70.1382 50.2417H94.1536V46.075H70.1382V50.2417ZM3.84593 31.25H15.8844V27.0834H3.84593V31.25ZM7.69208 43.75H15.3844V39.5834H7.69208V43.75ZM10.0382 56.25H15.3844V52.0834H10.0382V56.25Z" fill="#1C1817"/>
</svg>
