<svg width="43" height="43" viewBox="0 0 43 43" fill="none" xmlns="http://www.w3.org/2000/svg">
	<rect width="43" height="43" rx="10" fill="#00820D" />
	<path d="M26.4583 15.6339V12.7708C26.4049 10.0851 24.1858 7.95032 21.4999 8.00088C18.8141 7.95032 16.5951 10.0851 16.5416 12.7708V15.6325" stroke="white" stroke-width="2" stroke-linecap="round" stroke-linejoin="round" />
	<path fill-rule="evenodd" clip-rule="evenodd" d="M11.5833 25.7436C11.5296 28.7084 13.8885 31.1562 16.8533 31.212H26.1466C29.1115 31.1562 31.4703 28.7084 31.4166 25.7436L30.7975 19.1023C30.6404 16.5985 28.8884 14.4809 26.4583 13.8577C25.9519 13.7104 25.4273 13.6351 24.8999 13.6339H18.1C17.5726 13.6351 17.048 13.7104 16.5416 13.8577C14.1131 14.4811 12.3619 16.5971 12.2038 19.0995L11.5833 25.7436Z" stroke="white" stroke-width="2" stroke-linecap="round" stroke-linejoin="round" />
</svg>
