<svg width="36" height="36" viewBox="0 0 36 36" fill="none" xmlns="http://www.w3.org/2000/svg">
	<g clip-path="url(#clip0_5411_8160)">
		<path d="M12 10.5C12 12.0913 12.6321 13.6174 13.7574 14.7426C14.8826 15.8679 16.4087 16.5 18 16.5C19.5913 16.5 21.1174 15.8679 22.2426 14.7426C23.3679 13.6174 24 12.0913 24 10.5C24 8.9087 23.3679 7.38258 22.2426 6.25736C21.1174 5.13214 19.5913 4.5 18 4.5C16.4087 4.5 14.8826 5.13214 13.7574 6.25736C12.6321 7.38258 12 8.9087 12 10.5Z" stroke="#00820D" stroke-width="1.5" stroke-linecap="round" stroke-linejoin="round" />
		<path d="M9 31.5V28.5C9 26.9087 9.63214 25.3826 10.7574 24.2574C11.8826 23.1321 13.4087 22.5 15 22.5H21C22.5913 22.5 24.1174 23.1321 25.2426 24.2574C26.3679 25.3826 27 26.9087 27 28.5V31.5" stroke="#00820D" stroke-width="1.5" stroke-linecap="round" stroke-linejoin="round" />
	</g>
	<defs>
		<clipPath id="clip0_5411_8160">
			<rect width="36" height="36" fill="white" />
		</clipPath>
	</defs>
</svg>
