<svg width="36" height="36" viewBox="0 0 36 36" fill="none" xmlns="http://www.w3.org/2000/svg">
	<g clip-path="url(#clip0_6724_10119)">
		<path d="M4.5 31.5H31.5" stroke="black" stroke-width="1.5" stroke-linecap="round" stroke-linejoin="round" />
		<path d="M4.5 12.5V14C4.5 15.1935 4.97411 16.3381 5.81802 17.182C6.66193 18.0259 7.80653 18.5 9 18.5C10.1935 18.5 11.3381 18.0259 12.182 17.182C13.0259 16.3381 13.5 15.1935 13.5 14M4.5 12.5H31.5M4.5 12.5L7.5 6.5H28.5L31.5 12.5M13.5 14V12.5M13.5 14C13.5 15.1935 13.9741 16.3381 14.818 17.182C15.6619 18.0259 16.8065 18.5 18 18.5C19.1935 18.5 20.3381 18.0259 21.182 17.182C22.0259 16.3381 22.5 15.1935 22.5 14M22.5 14V12.5M22.5 14C22.5 15.1935 22.9741 16.3381 23.818 17.182C24.6619 18.0259 25.8065 18.5 27 18.5C28.1935 18.5 29.3381 18.0259 30.182 17.182C31.0259 16.3381 31.5 15.1935 31.5 14V12.5" stroke="black" stroke-width="1.5" stroke-linecap="round" stroke-linejoin="round" />
		<path d="M7.5 31.275V18.275" stroke="black" stroke-width="1.5" stroke-linecap="round" stroke-linejoin="round" />
		<path d="M28.5 31.275V18.275" stroke="black" stroke-width="1.5" stroke-linecap="round" stroke-linejoin="round" />
		<path d="M13.5 31.5V25.5C13.5 24.7044 13.8161 23.9413 14.3787 23.3787C14.9413 22.8161 15.7044 22.5 16.5 22.5H19.5C20.2956 22.5 21.0587 22.8161 21.6213 23.3787C22.1839 23.9413 22.5 24.7044 22.5 25.5V31.5" stroke="black" stroke-width="1.5" stroke-linecap="round" stroke-linejoin="round" />
	</g>
	<defs>
		<clipPath id="clip0_6724_10119">
			<rect width="36" height="36" fill="white" />
		</clipPath>
	</defs>
</svg>
