<svg width="32" height="32" viewBox="0 0 32 32" fill="none" xmlns="http://www.w3.org/2000/svg">
	<mask id="path-1-inside-1_6284_6848" fill="white">
		<path d="M8.62614 21.9595C8.23562 22.35 8.23562 22.9831 8.62614 23.3736C9.01666 23.7642 9.64984 23.7642 10.0404 23.3736L8.62614 21.9595ZM16.707 16.707C17.0975 16.3164 17.0975 15.6834 16.707 15.2928C16.3164 14.9023 15.6834 14.9023 15.2928 15.2928L16.707 16.707ZM15.2928 15.2928C14.9023 15.6834 14.9023 16.3164 15.2928 16.707C15.6834 17.0975 16.3164 17.0975 16.707 16.707L15.2928 15.2928ZM23.3736 10.0404C23.7642 9.64984 23.7642 9.01666 23.3736 8.62614C22.9831 8.23562 22.35 8.23562 21.9595 8.62614L23.3736 10.0404ZM16.707 15.2928C16.3164 14.9023 15.6834 14.9023 15.2928 15.2928C14.9023 15.6834 14.9023 16.3164 15.2928 16.707L16.707 15.2928ZM21.9595 23.3736C22.35 23.7642 22.9831 23.7642 23.3736 23.3736C23.7642 22.9831 23.7642 22.35 23.3736 21.9595L21.9595 23.3736ZM15.2928 16.707C15.6834 17.0975 16.3164 17.0975 16.707 16.707C17.0975 16.3164 17.0975 15.6834 16.707 15.2928L15.2928 16.707ZM10.0404 8.62614C9.64984 8.23562 9.01666 8.23562 8.62614 8.62614C8.23562 9.01666 8.23562 9.64984 8.62614 10.0404L10.0404 8.62614ZM10.0404 23.3736L16.707 16.707L15.2928 15.2928L8.62614 21.9595L10.0404 23.3736ZM16.707 16.707L23.3736 10.0404L21.9595 8.62614L15.2928 15.2928L16.707 16.707ZM15.2928 16.707L21.9595 23.3736L23.3736 21.9595L16.707 15.2928L15.2928 16.707ZM16.707 15.2928L10.0404 8.62614L8.62614 10.0404L15.2928 16.707L16.707 15.2928Z" />
	</mask>
	<path d="M8.62614 21.9595C8.23562 22.35 8.23562 22.9831 8.62614 23.3736C9.01666 23.7642 9.64984 23.7642 10.0404 23.3736L8.62614 21.9595ZM16.707 16.707C17.0975 16.3164 17.0975 15.6834 16.707 15.2928C16.3164 14.9023 15.6834 14.9023 15.2928 15.2928L16.707 16.707ZM15.2928 15.2928C14.9023 15.6834 14.9023 16.3164 15.2928 16.707C15.6834 17.0975 16.3164 17.0975 16.707 16.707L15.2928 15.2928ZM23.3736 10.0404C23.7642 9.64984 23.7642 9.01666 23.3736 8.62614C22.9831 8.23562 22.35 8.23562 21.9595 8.62614L23.3736 10.0404ZM16.707 15.2928C16.3164 14.9023 15.6834 14.9023 15.2928 15.2928C14.9023 15.6834 14.9023 16.3164 15.2928 16.707L16.707 15.2928ZM21.9595 23.3736C22.35 23.7642 22.9831 23.7642 23.3736 23.3736C23.7642 22.9831 23.7642 22.35 23.3736 21.9595L21.9595 23.3736ZM15.2928 16.707C15.6834 17.0975 16.3164 17.0975 16.707 16.707C17.0975 16.3164 17.0975 15.6834 16.707 15.2928L15.2928 16.707ZM10.0404 8.62614C9.64984 8.23562 9.01666 8.23562 8.62614 8.62614C8.23562 9.01666 8.23562 9.64984 8.62614 10.0404L10.0404 8.62614ZM10.0404 23.3736L16.707 16.707L15.2928 15.2928L8.62614 21.9595L10.0404 23.3736ZM16.707 16.707L23.3736 10.0404L21.9595 8.62614L15.2928 15.2928L16.707 16.707ZM15.2928 16.707L21.9595 23.3736L23.3736 21.9595L16.707 15.2928L15.2928 16.707ZM16.707 15.2928L10.0404 8.62614L8.62614 10.0404L15.2928 16.707L16.707 15.2928Z" fill="#1C1817" />
	<path d="M10.3939 23.0201L8.97969 21.606L8.2726 22.3131L9.68681 23.7272L10.3939 23.0201ZM17.0605 17.0605C17.6463 16.4747 17.6463 15.5251 17.0605 14.9393L16.3534 15.6464C16.5487 15.8417 16.5487 16.1582 16.3534 16.3534L17.0605 17.0605ZM17.0605 14.9393C16.4747 14.3535 15.5251 14.3535 14.9393 14.9393L15.6464 15.6464C15.8417 15.4511 16.1582 15.4511 16.3534 15.6464L17.0605 14.9393ZM14.9393 15.6464L16.3534 17.0605L17.0605 16.3534L15.6464 14.9393L14.9393 15.6464ZM14.9393 14.9393C14.3535 15.5251 14.3535 16.4747 14.9393 17.0605L15.6464 16.3534C15.4511 16.1582 15.4511 15.8417 15.6464 15.6464L14.9393 14.9393ZM14.9393 17.0605C15.5251 17.6463 16.4747 17.6463 17.0605 17.0605L16.3534 16.3534C16.1582 16.5487 15.8417 16.5487 15.6464 16.3534L14.9393 17.0605ZM21.606 8.97969L23.0201 10.3939L23.7272 9.68681L22.3131 8.2726L21.606 8.97969ZM15.6464 17.0605L17.0605 15.6464L16.3534 14.9393L14.9393 16.3534L15.6464 17.0605ZM23.0201 21.606L21.606 23.0201L22.3131 23.7272L23.7272 22.3131L23.0201 21.606ZM8.9797 10.3939L10.3939 8.9797L9.6868 8.27259L8.27259 9.6868L8.9797 10.3939ZM8.62614 21.9595L7.91904 21.2524L7.91902 21.2524L8.62614 21.9595ZM10.0404 23.3736L9.33325 22.6665L9.33324 22.6666L10.0404 23.3736ZM16.707 16.707L15.9999 15.9999L15.9999 15.9999L16.707 16.707ZM16.707 15.2928L15.9999 16L15.9999 16L16.707 15.2928ZM15.2928 15.2928L16 16L16 16L15.2928 15.2928ZM15.2928 16.707L16 15.9999L16 15.9999L15.2928 16.707ZM23.3736 10.0404L22.6666 9.33324L22.6665 9.33325L23.3736 10.0404ZM21.9595 8.62614L21.2524 7.91902L21.2524 7.91904L21.9595 8.62614ZM10.0404 8.62614L10.7475 7.91904L10.7475 7.91904L10.0404 8.62614ZM8.62614 10.0404L7.91904 10.7475L7.91904 10.7475L8.62614 10.0404ZM7.91902 21.2524C7.13799 22.0335 7.13799 23.2997 7.91902 24.0807L9.33326 22.6666V22.6666L7.91902 21.2524ZM7.91902 24.0807C8.70007 24.8618 9.96643 24.8618 10.7475 24.0807L9.33324 22.6666H9.33326L7.91902 24.0807ZM24.0807 10.7475C24.8618 9.96643 24.8618 8.70007 24.0807 7.91902L22.6666 9.33326V9.33324L24.0807 10.7475ZM24.0807 7.91902C23.2997 7.13799 22.0335 7.13799 21.2524 7.91902L22.6666 9.33326H22.6666L24.0807 7.91902ZM21.2524 24.0808C22.0335 24.8618 23.2997 24.8618 24.0808 24.0808L22.6665 22.6665H22.6666L21.2524 24.0808ZM24.0808 24.0808C24.8618 23.2997 24.8618 22.0335 24.0808 21.2524L22.6665 22.6666V22.6665L24.0808 24.0808ZM10.7475 7.91904C9.96642 7.13799 8.70008 7.13799 7.91904 7.91904L9.33325 9.33325H9.33325L10.7475 7.91904ZM7.91904 7.91904C7.13799 8.70008 7.13799 9.96642 7.91904 10.7475L9.33325 9.33325V9.33325L7.91904 7.91904ZM10.7475 24.0808L17.4141 17.4141L15.9999 15.9999L9.33325 22.6665L10.7475 24.0808ZM14.5857 14.5857L7.91904 21.2524L9.33325 22.6666L16 16L14.5857 14.5857ZM17.4141 17.4141L24.0808 10.7475L22.6665 9.33325L15.9999 15.9999L17.4141 17.4141ZM21.2524 7.91904L14.5857 14.5857L16 16L22.6666 9.33325L21.2524 7.91904ZM14.5857 17.4141L21.2524 24.0808L22.6666 22.6665L16 15.9999L14.5857 17.4141ZM24.0808 21.2524L17.4141 14.5857L15.9999 16L22.6665 22.6666L24.0808 21.2524ZM17.4141 14.5857L10.7475 7.91904L9.33324 9.33324L15.9999 16L17.4141 14.5857ZM7.91904 10.7475L14.5857 17.4141L16 15.9999L9.33324 9.33324L7.91904 10.7475Z" fill="#1C1817" mask="url(#path-1-inside-1_6284_6848)" />
</svg>
