<svg width="48" height="48" viewBox="0 0 48 48" fill="none" xmlns="http://www.w3.org/2000/svg">
<path d="M16 23.6666C15.4477 23.6666 15 24.1143 15 24.6666C15 25.2189 15.4477 25.6666 16 25.6666V23.6666ZM32 25.6666C32.5523 25.6666 33 25.2189 33 24.6666C33 24.1143 32.5523 23.6666 32 23.6666V25.6666ZM16 28.9999C15.4477 28.9999 15 29.4477 15 29.9999C15 30.5522 15.4477 30.9999 16 30.9999V28.9999ZM32 30.9999C32.5523 30.9999 33 30.5522 33 29.9999C33 29.4477 32.5523 28.9999 32 28.9999V30.9999ZM16 18.3333C15.4477 18.3333 15 18.781 15 19.3333C15 19.8855 15.4477 20.3333 16 20.3333V18.3333ZM32 20.3333C32.5523 20.3333 33 19.8855 33 19.3333C33 18.781 32.5523 18.3333 32 18.3333V20.3333ZM16 25.6666H32V23.6666H16V25.6666ZM16 30.9999H32V28.9999H16V30.9999ZM16 20.3333H32V18.3333H16V20.3333Z" fill="#1C1817"/>
</svg>
