<?xml version="1.0" encoding="UTF-8"?>
<svg xmlns="http://www.w3.org/2000/svg" xmlns:xlink="http://www.w3.org/1999/xlink" width="36px" height="25px" viewBox="0 0 34 25" version="1.1">
<g id="surface1">
<path style=" stroke:none;fill-rule:nonzero;fill:rgb(10.980392%,9.411765%,9.019608%);fill-opacity:1;" d="M 1.890625 10.578125 C 0.84375 10.578125 0 11.441406 0 12.503906 C 0 13.566406 0.84375 14.425781 1.890625 14.425781 Z M 32.109375 14.425781 C 33.15625 14.425781 34 13.566406 34 12.503906 C 34 11.441406 33.15625 10.578125 32.109375 10.578125 Z M 1.890625 20.835938 C 0.84375 20.835938 0 21.699219 0 22.757812 C 0 23.820312 0.84375 24.683594 1.890625 24.683594 Z M 32.109375 24.683594 C 33.15625 24.683594 34 23.820312 34 22.757812 C 34 21.699219 33.15625 20.835938 32.109375 20.835938 Z M 1.890625 0.324219 C 0.84375 0.324219 0 1.183594 0 2.246094 C 0 3.308594 0.84375 4.167969 1.890625 4.167969 Z M 32.109375 4.167969 C 33.15625 4.167969 34 3.308594 34 2.246094 C 34 1.183594 33.15625 0.324219 32.109375 0.324219 Z M 1.890625 14.425781 L 32.109375 14.425781 L 32.109375 10.578125 L 1.890625 10.578125 Z M 1.890625 24.683594 L 32.109375 24.683594 L 32.109375 20.835938 L 1.890625 20.835938 Z M 1.890625 4.167969 L 32.109375 4.167969 L 32.109375 0.324219 L 1.890625 0.324219 Z M 1.890625 4.167969 "/>
</g>
</svg>
