<svg width="48" height="49" viewBox="0 0 48 49" fill="none" xmlns="http://www.w3.org/2000/svg">
<path fill-rule="evenodd" clip-rule="evenodd" d="M18.836 20.501H13.164C12.3317 20.4942 11.5308 20.8182 10.9375 21.4018C10.3441 21.9854 10.0069 22.7808 10 23.613V35.391C10.0154 37.1234 11.4317 38.5156 13.164 38.501H18.836C19.6683 38.508 20.4692 38.184 21.0626 37.6004C21.656 37.0168 21.9932 36.2214 22 35.389V23.613C21.9932 22.7808 21.656 21.9854 21.0626 21.4018C20.4692 20.8182 19.6683 20.4942 18.836 20.501Z" stroke="white" stroke-width="2.5" stroke-linecap="round" stroke-linejoin="round"/>
<path fill-rule="evenodd" clip-rule="evenodd" d="M18.836 8.50121H13.164C11.4665 8.45413 10.0512 9.78985 10 11.4872V13.5152C10.0512 15.2126 11.4665 16.5483 13.164 16.5012H18.836C20.5334 16.5483 21.9488 15.2126 22 13.5152V11.4872C21.9488 9.78985 20.5334 8.45413 18.836 8.50121Z" stroke="white" stroke-width="2.5" stroke-linecap="round" stroke-linejoin="round"/>
<path fill-rule="evenodd" clip-rule="evenodd" d="M29.164 26.5014H34.834C35.6666 26.5088 36.468 26.185 37.0618 25.6014C37.6556 25.0176 37.9932 24.222 38 23.3894V11.6133C37.9932 10.7811 37.656 9.98565 37.0626 9.40203C36.4692 8.81841 35.6682 8.49441 34.836 8.50133H29.164C28.3318 8.49441 27.5308 8.81841 26.9374 9.40203C26.344 9.98565 26.0068 10.7811 26 11.6133V23.3894C26.0068 24.2216 26.344 25.017 26.9374 25.6006C27.5308 26.1842 28.3318 26.5082 29.164 26.5014Z" stroke="white" stroke-width="2.5" stroke-linecap="round" stroke-linejoin="round"/>
<path fill-rule="evenodd" clip-rule="evenodd" d="M29.164 38.5012H34.834C36.5322 38.5494 37.9488 37.2134 38 35.5152V33.4872C37.9488 31.7898 36.5334 30.4542 34.836 30.5012H29.164C27.4666 30.4542 26.0512 31.7898 26 33.4872V35.5132C26.05 37.2114 27.4658 38.5482 29.164 38.5012Z" stroke="white" stroke-width="2.5" stroke-linecap="round" stroke-linejoin="round"/>
</svg>
