<svg width="24" height="24" viewBox="0 0 24 24" fill="none" xmlns="http://www.w3.org/2000/svg">
<path d="M10.7063 5.40714C10.8071 5.15004 10.6803 4.85994 10.4232 4.75918C10.1661 4.65842 9.87601 4.78516 9.77525 5.04226L10.7063 5.40714ZM13.5016 10.5017C13.7777 10.5012 14.0012 10.277 14.0008 10.0009C14.0003 9.72476 13.7761 9.50126 13.5 9.5017L13.5016 10.5017ZM10.2408 5.2247L10.1157 4.7406L10.1147 4.74086L10.2408 5.2247ZM18.7648 10.1937L18.2819 10.3234C18.3219 10.4725 18.4287 10.5948 18.571 10.6546C18.7134 10.7145 18.8754 10.7052 19.01 10.6294L18.7648 10.1937ZM18.9438 12.8937L19.1294 12.4294C18.9857 12.372 18.8236 12.3843 18.6903 12.4627C18.5569 12.5411 18.4674 12.6769 18.4478 12.8303L18.9438 12.8937ZM5.05677 12.8937L5.55274 12.8303C5.53312 12.6769 5.4436 12.5411 5.31027 12.4627C5.17694 12.3843 5.01482 12.372 4.87119 12.4294L5.05677 12.8937ZM5.23577 10.1937L4.99052 10.6294C5.12512 10.7052 5.28717 10.7145 5.42956 10.6546C5.57194 10.5948 5.67867 10.4724 5.71869 10.3233L5.23577 10.1937ZM9.77525 5.04226C9.0432 6.91018 9.80812 9.03142 11.5638 10.0023L12.0482 9.12742C10.7315 8.39929 10.1573 6.80808 10.7063 5.40714L9.77525 5.04226ZM11.5638 10.0023C12.1569 10.3311 12.8235 10.5028 13.5016 10.5017L13.5 9.5017C12.9921 9.50252 12.4924 9.37369 12.0482 9.12742L11.5638 10.0023ZM10.3659 5.7088C13.8236 4.81528 17.3557 6.87426 18.2819 10.3234L19.2477 10.064C18.1792 6.08509 14.1046 3.70982 10.1157 4.7406L10.3659 5.7088ZM19.01 10.6294C19.4161 10.4008 19.9262 10.483 20.2399 10.8276L20.9793 10.1543C20.3519 9.46524 19.3317 9.30086 18.5195 9.75799L19.01 10.6294ZM20.2399 10.8276C20.5537 11.1721 20.5878 11.6877 20.3223 12.0706L21.1441 12.6404C21.6751 11.8745 21.6068 10.8434 20.9793 10.1543L20.2399 10.8276ZM20.3223 12.0706C20.0568 12.4536 19.562 12.6024 19.1294 12.4294L18.7582 13.358C19.6236 13.7039 20.6132 13.4063 21.1441 12.6404L20.3223 12.0706ZM18.4478 12.8303C18.033 16.0751 15.2715 18.5061 12.0003 18.5061V19.5061C15.7747 19.5061 18.9611 16.7011 19.4397 12.9571L18.4478 12.8303ZM12.0003 18.5061C8.72907 18.5061 5.96752 16.0751 5.55274 12.8303L4.56081 12.9571C5.0394 16.7011 8.22581 19.5061 12.0003 19.5061V18.5061ZM4.87119 12.4294C4.4385 12.6024 3.9437 12.4536 3.67821 12.0706L2.8564 12.6404C3.38739 13.4063 4.37699 13.7039 5.24236 13.358L4.87119 12.4294ZM3.67821 12.0706C3.41271 11.6877 3.44689 11.1721 3.76061 10.8276L3.02122 10.1543C2.39377 10.8434 2.32541 11.8745 2.8564 12.6404L3.67821 12.0706ZM3.76061 10.8276C4.07434 10.483 4.58445 10.4008 4.99052 10.6294L5.48103 9.75799C4.66889 9.30086 3.64867 9.46524 3.02122 10.1543L3.76061 10.8276ZM5.71869 10.3233C6.32563 8.06117 8.10043 6.29914 10.3669 5.70855L10.1147 4.74086C7.50028 5.42214 5.45299 7.45471 4.75285 10.0641L5.71869 10.3233Z" fill="#1C1817"/>
<path d="M9.00098 12.5017C8.72528 12.5017 8.50098 12.2774 8.50098 12.0017C8.50098 11.726 8.72528 11.5017 9.00098 11.5017C9.27668 11.5017 9.50098 11.726 9.50098 12.0017C9.50098 12.2774 9.27668 12.5017 9.00098 12.5017Z" fill="#1C1817"/>
<path d="M9.00098 13.0017C8.4487 13.0017 8.00098 12.554 8.00098 12.0017C8.00098 11.4494 8.4487 11.0017 9.00098 11.0017C9.55326 11.0017 10.001 11.4494 10.001 12.0017C10.001 12.554 9.55326 13.0017 9.00098 13.0017Z" fill="#1C1817"/>
<path d="M15.001 12.5017C14.7253 12.5017 14.501 12.2774 14.501 12.0017C14.501 11.726 14.7253 11.5017 15.001 11.5017C15.2767 11.5017 15.501 11.726 15.501 12.0017C15.501 12.2774 15.2767 12.5017 15.001 12.5017Z" fill="#1C1817"/>
<path d="M15.001 13.0017C14.4487 13.0017 14.001 12.554 14.001 12.0017C14.001 11.4494 14.4487 11.0017 15.001 11.0017C15.5533 11.0017 16.001 11.4494 16.001 12.0017C16.001 12.554 15.5533 13.0017 15.001 13.0017Z" fill="#1C1817"/>
</svg>
