<svg width="24" height="24" viewBox="0 0 24 24" fill="none" xmlns="http://www.w3.org/2000/svg">
<path fill-rule="evenodd" clip-rule="evenodd" d="M8.50044 10.1931C6.53649 10.2249 4.96982 11.8421 5.00044 13.8061V16.3871C4.96982 18.3511 6.53649 19.9683 8.50044 20.0001H15.5004C17.4644 19.9683 19.0311 18.3511 19.0004 16.3871V13.8061C19.0311 11.8421 17.4644 10.2249 15.5004 10.1931H8.50044Z" stroke="#1C1817" stroke-width="1.5" stroke-linecap="round" stroke-linejoin="round"/>
<path d="M11.5006 10.193C11.5006 10.4691 11.7245 10.693 12.0006 10.693C12.2767 10.693 12.5006 10.4691 12.5006 10.193H11.5006ZM11.0006 6.581L11.126 6.09681L11.1138 6.09398L11.0006 6.581ZM9.75863 6.452V6.95211L9.76931 6.95189L9.75863 6.452ZM8.50063 4C8.50063 3.72386 8.27678 3.5 8.00063 3.5C7.72449 3.5 7.50063 3.72386 7.50063 4H8.50063ZM9.00063 16.388C9.00063 16.6641 9.22449 16.888 9.50063 16.888C9.77678 16.888 10.0006 16.6641 10.0006 16.388H9.00063ZM10.0006 14.84C10.0006 14.5639 9.77678 14.34 9.50063 14.34C9.22449 14.34 9.00063 14.5639 9.00063 14.84H10.0006ZM9.00063 14.84C9.00063 15.1161 9.22449 15.34 9.50063 15.34C9.77678 15.34 10.0006 15.1161 10.0006 14.84H9.00063ZM10.0006 13.291C10.0006 13.0149 9.77678 12.791 9.50063 12.791C9.22449 12.791 9.00063 13.0149 9.00063 13.291H10.0006ZM9.50063 14.34C9.22449 14.34 9.00063 14.5639 9.00063 14.84C9.00063 15.1161 9.22449 15.34 9.50063 15.34V14.34ZM11.0006 15.34C11.2767 15.34 11.5006 15.1161 11.5006 14.84C11.5006 14.5639 11.2767 14.34 11.0006 14.34V15.34ZM9.50063 15.34C9.77678 15.34 10.0006 15.1161 10.0006 14.84C10.0006 14.5639 9.77678 14.34 9.50063 14.34V15.34ZM8.00063 14.34C7.72449 14.34 7.50063 14.5639 7.50063 14.84C7.50063 15.1161 7.72449 15.34 8.00063 15.34V14.34ZM13.6415 13.9761C13.4494 14.1744 13.4543 14.4909 13.6527 14.6831C13.851 14.8752 14.1675 14.8703 14.3597 14.6719L13.6415 13.9761ZM15.3597 13.6399C15.5518 13.4416 15.5468 13.1251 15.3485 12.9329C15.1502 12.7408 14.8337 12.7457 14.6415 12.9441L15.3597 13.6399ZM14.6415 16.0441C14.4494 16.2424 14.4543 16.5589 14.6527 16.7511C14.851 16.9432 15.1675 16.9383 15.3597 16.7399L14.6415 16.0441ZM16.3597 15.7079C16.5518 15.5096 16.5468 15.1931 16.3485 15.0009C16.1502 14.8088 15.8337 14.8137 15.6415 15.0121L16.3597 15.7079ZM12.5006 10.193C12.5006 9.57589 12.5742 8.66375 12.4803 7.93355C12.3843 7.18806 12.0809 6.34404 11.126 6.09681L10.8753 7.06504C11.2104 7.15181 11.4069 7.42744 11.4884 8.0612C11.572 8.71025 11.5006 9.43711 11.5006 10.193H12.5006ZM11.1138 6.09398C10.6662 5.98996 10.2073 5.9423 9.74796 5.95211L9.76931 6.95189C10.1454 6.94386 10.521 6.98287 10.8874 7.06802L11.1138 6.09398ZM9.75863 5.952C9.29798 5.952 9.0268 5.87004 8.86684 5.77713C8.71843 5.69094 8.63246 5.57649 8.57628 5.42607C8.51498 5.26192 8.4896 5.05414 8.48586 4.79772C8.48403 4.67178 8.48735 4.54304 8.49152 4.40791C8.49558 4.27662 8.50063 4.13475 8.50063 4H7.50063C7.50063 4.11525 7.49631 4.2375 7.492 4.37703C7.48781 4.51271 7.48377 4.66147 7.48597 4.81228C7.4903 5.10936 7.51854 5.45208 7.63948 5.77593C7.76556 6.11351 7.99046 6.42456 8.36461 6.64187C8.72722 6.85246 9.19029 6.95211 9.75863 6.95211V5.952ZM10.0006 16.388V14.84H9.00063V16.388H10.0006ZM10.0006 14.84V13.291H9.00063V14.84H10.0006ZM9.50063 15.34H11.0006V14.34H9.50063V15.34ZM9.50063 14.34H8.00063V15.34H9.50063V14.34ZM14.3597 14.6719L15.3597 13.6399L14.6415 12.9441L13.6415 13.9761L14.3597 14.6719ZM15.3597 16.7399L16.3597 15.7079L15.6415 15.0121L14.6415 16.0441L15.3597 16.7399Z" fill="#1C1817"/>
</svg>
