<svg width="32" height="32" viewBox="0 0 32 32" fill="none" xmlns="http://www.w3.org/2000/svg">
  <path fill-rule="evenodd" clip-rule="evenodd" d="M21.5557 12H10.4437C9.83027 12 9.33301 12.4973 9.33301 13.1107V22C9.33301 23.8409 10.8254 25.3333 12.6663 25.3333H19.333C20.217 25.3333 21.0649 24.9821 21.6901 24.3571C22.3151 23.7319 22.6663 22.884 22.6663 22V13.1107C22.6663 12.4973 22.1691 12 21.5557 12Z" stroke="#636363" stroke-width="2" stroke-linecap="round" stroke-linejoin="round" />
  <path fill-rule="evenodd" clip-rule="evenodd" d="M20 9.33334L19.0347 7.40401C18.8089 6.95237 18.3476 6.66694 17.8427 6.66667H14.1573C13.6524 6.66694 13.191 6.95237 12.9653 7.40401L12 9.33334H20Z" stroke="#636363" stroke-width="2.5" stroke-linecap="round" stroke-linejoin="round" />
  <path d="M14.777 16.444C14.777 15.8917 14.3293 15.444 13.777 15.444C13.2247 15.444 12.777 15.8917 12.777 16.444H14.777ZM12.777 20.888C12.777 21.4403 13.2247 21.888 13.777 21.888C14.3293 21.888 14.777 21.4403 14.777 20.888H12.777ZM19.2223 16.444C19.2223 15.8917 18.7746 15.444 18.2223 15.444C17.6701 15.444 17.2223 15.8917 17.2223 16.444H19.2223ZM17.2223 20.888C17.2223 21.4403 17.6701 21.888 18.2223 21.888C18.7746 21.888 19.2223 21.4403 19.2223 20.888H17.2223ZM19.9997 8.33333C19.4474 8.33333 18.9997 8.78105 18.9997 9.33333C18.9997 9.88561 19.4474 10.3333 19.9997 10.3333V8.33333ZM22.6663 10.3333C23.2186 10.3333 23.6663 9.88561 23.6663 9.33333C23.6663 8.78105 23.2186 8.33333 22.6663 8.33333V10.3333ZM11.9997 10.3333C12.552 10.3333 12.9997 9.88561 12.9997 9.33333C12.9997 8.78105 12.552 8.33333 11.9997 8.33333V10.3333ZM9.33301 8.33333C8.78073 8.33333 8.33301 8.78105 8.33301 9.33333C8.33301 9.88561 8.78073 10.3333 9.33301 10.3333V8.33333ZM12.777 16.444V20.888H14.777V16.444H12.777ZM17.2223 16.444V20.888H19.2223V16.444H17.2223ZM19.9997 10.3333H22.6663V8.33333H19.9997V10.3333ZM11.9997 8.33333H9.33301V10.3333H11.9997V8.33333Z" fill="#636363" />
</svg>