<svg width="24" height="24" viewBox="0 0 24 24" fill="none" xmlns="http://www.w3.org/2000/svg">
  <path d="M12.7942 7.95882C13.0533 7.6356 13.0013 7.16359 12.678 6.90454C12.3548 6.6455 11.8828 6.69751 11.6238 7.02073L12.7942 7.95882ZM6.311 14.8488L6.87903 15.3385C6.88489 15.3317 6.89062 15.3248 6.89623 15.3178L6.311 14.8488ZM6.14 15.2668L5.39146 15.2179L5.3908 15.2321L6.14 15.2668ZM6 18.2898L5.2508 18.2551C5.24908 18.2923 5.25013 18.3296 5.25396 18.3667L6 18.2898ZM6.787 18.9768L6.81152 19.7264C6.86154 19.7247 6.91126 19.7181 6.95996 19.7065L6.787 18.9768ZM9.787 18.2658L9.95998 18.9956L9.97162 18.9927L9.787 18.2658ZM10.172 18.0218L10.7506 18.4991L10.7571 18.491L10.172 18.0218ZM16.7971 10.959C17.0562 10.6358 17.0043 10.1638 16.6812 9.90467C16.3581 9.64553 15.886 9.69743 15.6269 10.0206L16.7971 10.959ZM11.6269 7.02053C11.3678 7.34366 11.4196 7.81569 11.7428 8.07485C12.0659 8.334 12.5379 8.28214 12.7971 7.95902L11.6269 7.02053ZM13.8 5.50977L14.3851 5.97902C14.3949 5.96673 14.4044 5.95413 14.4135 5.94124L13.8 5.50977ZM15.429 5.18977L15.9088 4.61333C15.8849 4.59345 15.8598 4.57508 15.8337 4.55831L15.429 5.18977ZM17.666 7.05177L18.1968 6.52193C18.1805 6.50562 18.1635 6.49008 18.1458 6.47533L17.666 7.05177ZM17.657 8.68977L17.132 8.15413C17.1108 8.17497 17.0908 8.19705 17.0721 8.22026L17.657 8.68977ZM15.6269 10.0206C15.3676 10.3436 15.4195 10.8153 15.7425 11.0746C16.0655 11.3339 16.5378 11.282 16.7971 10.959L15.6269 10.0206ZM12.9537 7.37863C12.8923 6.96899 12.5105 6.68667 12.1009 6.74806C11.6912 6.80944 11.4089 7.19128 11.4703 7.60092L12.9537 7.37863ZM16.313 11.2329C16.7234 11.1772 17.0109 10.7992 16.9552 10.3888C16.8994 9.97835 16.5215 9.69083 16.111 9.7466L16.313 11.2329ZM11.6238 7.02073L5.72577 14.3797L6.89623 15.3178L12.7942 7.95882L11.6238 7.02073ZM5.74297 14.359C5.53561 14.5995 5.41213 14.901 5.39146 15.2179L6.88841 15.3156C6.88786 15.324 6.88457 15.3321 6.87903 15.3385L5.74297 14.359ZM5.3908 15.2321L5.2508 18.2551L6.7492 18.3245L6.8892 15.3015L5.3908 15.2321ZM5.25396 18.3667C5.33563 19.1586 6.01588 19.7524 6.81152 19.7264L6.76248 18.2272C6.75928 18.2273 6.75771 18.2268 6.75669 18.2264C6.75526 18.2259 6.75337 18.2249 6.75144 18.2232C6.7495 18.2215 6.74825 18.2198 6.74754 18.2185C6.74703 18.2175 6.74637 18.216 6.74604 18.2128L5.25396 18.3667ZM6.95996 19.7065L9.95998 18.9956L9.61404 17.536L6.61404 18.247L6.95996 19.7065ZM9.97162 18.9927C10.2771 18.9151 10.55 18.7423 10.7506 18.4991L9.59345 17.5445C9.59575 17.5417 9.59888 17.5397 9.60238 17.5388L9.97162 18.9927ZM10.7571 18.491L16.7971 10.959L15.6269 10.0206L9.58689 17.5526L10.7571 18.491ZM12.7971 7.95902L14.3851 5.97902L13.2149 5.04053L11.6269 7.02053L12.7971 7.95902ZM14.4135 5.94124C14.5521 5.74412 14.8214 5.69121 15.0243 5.82124L15.8337 4.55831C14.9544 3.99485 13.7873 4.22411 13.1865 5.07831L14.4135 5.94124ZM14.9492 5.76621L17.1862 7.62821L18.1458 6.47533L15.9088 4.61333L14.9492 5.76621ZM17.1352 7.58162C17.2111 7.65771 17.2535 7.76101 17.2529 7.86853L18.7529 7.87677C18.7557 7.36906 18.5555 6.88128 18.1968 6.52193L17.1352 7.58162ZM17.2529 7.86853C17.2524 7.97605 17.2088 8.07887 17.132 8.15413L18.182 9.22542C18.5446 8.87003 18.7501 8.38448 18.7529 7.87677L17.2529 7.86853ZM17.0721 8.22026L15.6269 10.0206L16.7971 10.959L18.2419 9.15929L17.0721 8.22026ZM11.4703 7.60092C11.8196 9.93222 13.9771 11.5503 16.313 11.2329L16.111 9.7466C14.5881 9.95353 13.1815 8.89856 12.9537 7.37863L11.4703 7.60092Z" fill="#00820D" />
</svg>