<svg width="32" height="32" viewBox="0 0 32 32" fill="none" xmlns="http://www.w3.org/2000/svg">
	<path fill-rule="evenodd" clip-rule="evenodd" d="M6.66705 11.6333V8.08125C6.6448 6.58612 7.83859 5.35591 9.33372 5.33325H22.667C24.1622 5.35591 25.3559 6.58612 25.3337 8.08125V11.6333C25.3347 11.9957 25.1946 12.3443 24.943 12.6053L19.0577 17.3333C18.8061 17.5942 18.6661 17.9429 18.667 18.3053V25.2506C18.6699 25.7655 18.3855 26.2391 17.9297 26.4786L15.263 27.8519C14.8441 28.0615 14.3458 28.0358 13.9506 27.7843C13.5554 27.5327 13.3212 27.0922 13.3337 26.6239V18.3053C13.3347 17.9429 13.1946 17.5942 12.9431 17.3333L7.05772 12.6039C6.80647 12.3433 6.66637 11.9953 6.66705 11.6333Z" stroke="#1C1817" stroke-width="1.5" stroke-linecap="round" stroke-linejoin="round" />
</svg>
