<svg width="32" height="32" viewBox="0 0 32 32" fill="none" xmlns="http://www.w3.org/2000/svg">
	<path fill-rule="evenodd" clip-rule="evenodd" d="M25.3332 21.1854C25.3332 23.4763 23.4761 25.3334 21.1852 25.3334H10.8145C8.52362 25.3334 6.6665 23.4763 6.6665 21.1854V10.8147C6.6665 8.52387 8.52362 6.66675 10.8145 6.66675H21.1852C23.4761 6.66675 25.3332 8.52387 25.3332 10.8147V21.1854Z" stroke="#1C1817" stroke-width="1.5" stroke-linecap="round" stroke-linejoin="round" />
	<path fill-rule="evenodd" clip-rule="evenodd" d="M15.6693 13.8572C16.1876 13.0396 16.0879 11.9751 15.4267 11.268C14.7813 10.5778 13.7259 10.4691 12.9533 11.0133C12.628 11.2427 12.3772 11.5626 12.232 11.9333C12.0834 12.3099 12.0446 12.7209 12.12 13.1186C12.1929 13.5128 12.3781 13.8776 12.6533 14.1692C12.9229 14.4536 13.2726 14.6495 13.656 14.7306C14.0364 14.8095 14.4319 14.7686 14.788 14.6132C15.1507 14.455 15.4576 14.1916 15.6693 13.8572Z" stroke="#1C1817" stroke-width="1.5" stroke-linecap="round" stroke-linejoin="round" />
	<path fill-rule="evenodd" clip-rule="evenodd" d="M16.3308 20.4213C15.8125 19.6037 15.9122 18.539 16.5734 17.8319C17.2188 17.1418 18.2742 17.033 19.0468 17.5773C19.3721 17.8067 19.6229 18.1266 19.7681 18.4973C19.9166 18.8738 19.9554 19.2849 19.8801 19.6826C19.8072 20.0769 19.622 20.4417 19.3468 20.7333C19.0772 21.0177 18.7274 21.2134 18.3441 21.2946C17.9637 21.3735 17.5682 21.3326 17.2121 21.1773C16.8494 21.019 16.5425 20.7557 16.3308 20.4213Z" stroke="#1C1817" stroke-width="1.5" stroke-linecap="round" stroke-linejoin="round" />
	<path d="M15.9998 11.7173C15.4476 11.7173 14.9998 12.165 14.9998 12.7173C14.9998 13.2696 15.4476 13.7173 15.9998 13.7173V11.7173ZM21.3332 13.7173C21.8854 13.7173 22.3332 13.2696 22.3332 12.7173C22.3332 12.165 21.8854 11.7173 21.3332 11.7173V13.7173ZM12.0812 13.7173C12.6335 13.7173 13.0812 13.2696 13.0812 12.7173C13.0812 12.165 12.6335 11.7173 12.0812 11.7173V13.7173ZM10.6665 11.7173C10.1142 11.7173 9.6665 12.165 9.6665 12.7173C9.6665 13.2696 10.1142 13.7173 10.6665 13.7173V11.7173ZM15.9998 20.2826C16.5521 20.2826 16.9998 19.8349 16.9998 19.2826C16.9998 18.7303 16.5521 18.2826 15.9998 18.2826V20.2826ZM10.6665 18.2826C10.1142 18.2826 9.6665 18.7303 9.6665 19.2826C9.6665 19.8349 10.1142 20.2826 10.6665 20.2826V18.2826ZM19.9185 18.2826C19.3662 18.2826 18.9185 18.7303 18.9185 19.2826C18.9185 19.8349 19.3662 20.2826 19.9185 20.2826V18.2826ZM21.3332 20.2826C21.8854 20.2826 22.3332 19.8349 22.3332 19.2826C22.3332 18.7303 21.8854 18.2826 21.3332 18.2826V20.2826ZM15.9998 13.7173H21.3332V11.7173H15.9998V13.7173ZM12.0812 11.7173H10.6665V13.7173H12.0812V11.7173ZM15.9998 18.2826H10.6665V20.2826H15.9998V18.2826ZM19.9185 20.2826H21.3332V18.2826H19.9185V20.2826Z" fill="#1C1817" />
</svg>
