
  <svg
    width="16"
    height="17"
    viewBox="0 0 16 17"
    fill="none"
    xmlns="http://www.w3.org/2000/svg"
  >
    <path
      d="M8 5.279C8.41421 5.279 8.75 4.94321 8.75 4.529C8.75 4.11479 8.41421 3.779 8 3.779V5.279ZM3.28691 13.0545C3.65666 13.2412 4.10776 13.0928 4.29448 12.7231C4.4812 12.3533 4.33283 11.9022 3.96309 11.7155L3.28691 13.0545ZM7.25 4.529C7.25 4.94321 7.58579 5.279 8 5.279C8.41421 5.279 8.75 4.94321 8.75 4.529H7.25ZM8.75 1C8.75 0.585786 8.41421 0.25 8 0.25C7.58579 0.25 7.25 0.585786 7.25 1H8.75ZM7.99758 3.779C7.58337 3.78034 7.24867 4.11721 7.25 4.53142C7.25134 4.94563 7.58821 5.28033 8.00242 5.279L7.99758 3.779ZM10.5727 5.61167C10.9729 5.71841 11.3839 5.48051 11.4907 5.08029C11.5974 4.68006 11.3595 4.26908 10.9593 4.16233L10.5727 5.61167ZM2.54684 2.43163C2.36272 2.06058 1.91268 1.90905 1.54163 2.09316C1.17058 2.27728 1.01905 2.72732 1.20316 3.09837L2.54684 2.43163ZM2.64216 5.99837C2.82628 6.36942 3.27632 6.52095 3.64737 6.33684C4.01842 6.15272 4.16995 5.70268 3.98584 5.33163L2.64216 5.99837ZM3.07341 15.4918C2.79275 15.7965 2.81219 16.2709 3.11682 16.5516C3.42146 16.8323 3.89594 16.8128 4.17659 16.5082L3.07341 15.4918ZM6.75159 13.7132C7.03225 13.4085 7.01281 12.9341 6.70818 12.6534C6.40354 12.3727 5.92906 12.3922 5.64841 12.6968L6.75159 13.7132ZM15.5518 4.155C15.8323 3.85027 15.8127 3.3758 15.508 3.09524C15.2033 2.81468 14.7288 2.83427 14.4482 3.139L15.5518 4.155ZM12.4282 5.333C12.1477 5.63773 12.1673 6.1122 12.472 6.39276C12.7767 6.67332 13.2512 6.65373 13.5318 6.349L12.4282 5.333ZM5.64841 12.6968C5.36775 13.0015 5.38718 13.4759 5.69182 13.7566C5.99645 14.0373 6.47093 14.0178 6.75159 13.7132L5.64841 12.6968ZM8.6 10.6L9.15159 11.1082L9.1523 11.1074L8.6 10.6ZM9.685 9.419L9.1333 8.91094L9.1327 8.91159L9.685 9.419ZM13.5317 6.34906C13.8123 6.04437 13.7928 5.5699 13.4881 5.2893C13.1834 5.00871 12.7089 5.02824 12.4283 5.33294L13.5317 6.34906ZM6.32302 12.4652C5.91442 12.3972 5.5281 12.6734 5.46016 13.082C5.39221 13.4906 5.66837 13.8769 6.07698 13.9448L6.32302 12.4652ZM8 13.353L8 12.603H7.99948L8 13.353ZM15 8.941H15.75C15.75 8.92323 15.7494 8.90547 15.7481 8.88774L15 8.941ZM13.3309 5.17814C12.9648 4.98435 12.5109 5.12403 12.3171 5.49011C12.1234 5.8562 12.263 6.31007 12.6291 6.50386L13.3309 5.17814ZM5.97166 10.4167C6.21392 10.7526 6.68268 10.8286 7.01865 10.5863C7.35463 10.3441 7.43061 9.87532 7.18834 9.53934L5.97166 10.4167ZM6.43702 8.14473L7.10602 8.48376L6.43702 8.14473ZM8 7.176L7.99907 6.42598L7.99403 6.42602L8 7.176ZM8.52289 8.07561C8.87393 8.29549 9.33674 8.18915 9.55661 7.83811C9.77649 7.48707 9.67015 7.02426 9.31911 6.80439L8.52289 8.07561ZM8 3.779C5.94777 3.779 4.0544 4.30173 2.65036 5.18663C1.25606 6.06539 0.25 7.37368 0.25 8.941H1.75C1.75 8.07132 2.31094 7.17361 3.45014 6.45562C4.5796 5.74377 6.18623 5.279 8 5.279V3.779ZM0.25 8.941C0.25 10.7344 1.55973 12.1823 3.28691 13.0545L3.96309 11.7155C2.49027 10.9718 1.75 9.93357 1.75 8.941H0.25ZM8.75 4.529V1H7.25V4.529H8.75ZM8.00242 5.279C8.8701 5.27619 9.73434 5.38805 10.5727 5.61167L10.9593 4.16233C9.99324 3.90467 8.99739 3.77578 7.99758 3.779L8.00242 5.279ZM1.20316 3.09837L2.64216 5.99837L3.98584 5.33163L2.54684 2.43163L1.20316 3.09837ZM4.17659 16.5082L6.75159 13.7132L5.64841 12.6968L3.07341 15.4918L4.17659 16.5082ZM14.4482 3.139L12.4282 5.333L13.5318 6.349L15.5518 4.155L14.4482 3.139ZM6.75159 13.7132L9.15159 11.1082L8.04841 10.0918L5.64841 12.6968L6.75159 13.7132ZM9.1523 11.1074L10.2373 9.92641L9.1327 8.91159L8.0477 10.0926L9.1523 11.1074ZM10.2367 9.92706L13.5317 6.34906L12.4283 5.33294L9.1333 8.91094L10.2367 9.92706ZM6.07698 13.9448C6.7127 14.0506 7.35608 14.1035 8.00052 14.103L7.99948 12.603C7.43781 12.6034 6.87708 12.5573 6.32302 12.4652L6.07698 13.9448ZM8 14.103C10.0522 14.103 11.9456 13.5803 13.3496 12.6954C14.7439 11.8166 15.75 10.5083 15.75 8.941H14.25C14.25 9.81068 13.6891 10.7084 12.5499 11.4264C11.4204 12.1382 9.81377 12.603 8 12.603V14.103ZM15.7481 8.88774C15.6363 7.317 14.7226 5.91487 13.3309 5.17814L12.6291 6.50386C13.5634 6.99845 14.1768 7.93976 14.2519 8.99426L15.7481 8.88774ZM7.18834 9.53934C6.96569 9.23056 6.93393 8.82334 7.10602 8.48376L5.76803 7.80569C5.34236 8.64563 5.42092 9.65287 5.97166 10.4167L7.18834 9.53934ZM7.10602 8.48376C7.27811 8.14419 7.62529 7.92901 8.00597 7.92598L7.99403 6.42602C7.05243 6.43352 6.19369 6.96576 5.76803 7.80569L7.10602 8.48376ZM8.00093 7.926C8.18553 7.92577 8.36644 7.97763 8.52289 8.07561L9.31911 6.80439C8.92346 6.55657 8.46592 6.42542 7.99907 6.426L8.00093 7.926Z"
      fill="#808080"
    />
  </svg>
