<svg width="24" height="24" viewBox="0 0 24 24" fill="none" xmlns="http://www.w3.org/2000/svg">
<path d="M5.7892 4.28564C5.16405 4.28564 4.5645 4.53399 4.12245 4.97604C3.6804 5.41809 3.43206 6.01763 3.43206 6.64279V13.9285C3.43206 14.5537 3.6804 15.1532 4.12245 15.5953C4.5645 16.0373 5.16405 16.2856 5.7892 16.2856H18.2178C18.5273 16.2856 18.8338 16.2247 19.1198 16.1062C19.4058 15.9878 19.6656 15.8141 19.8845 15.5953C20.1034 15.3764 20.277 15.1165 20.3955 14.8305C20.5139 14.5446 20.5749 14.238 20.5749 13.9285V6.64279C20.5749 6.01763 20.3266 5.41809 19.8845 4.97604C19.4425 4.53399 18.8429 4.28564 18.2178 4.28564H5.7892ZM4.71777 6.64279C4.71777 6.05136 5.19777 5.57136 5.7892 5.57136H18.2178C18.8092 5.57136 19.2892 6.05136 19.2892 6.64279V13.9285C19.2892 14.5199 18.8092 14.9999 18.2178 14.9999H5.7892C5.19777 14.9999 4.71777 14.5199 4.71777 13.9285V6.64279ZM2.36063 17.5714C2.19013 17.5714 2.02662 17.6391 1.90606 17.7596C1.7855 17.8802 1.71777 18.0437 1.71777 18.2142C1.71777 18.3847 1.7855 18.5482 1.90606 18.6688C2.02662 18.7893 2.19013 18.8571 2.36063 18.8571H21.6429C21.8134 18.8571 21.9769 18.7893 22.0975 18.6688C22.218 18.5482 22.2858 18.3847 22.2858 18.2142C22.2858 18.0437 22.218 17.8802 22.0975 17.7596C21.9769 17.6391 21.8134 17.5714 21.6429 17.5714H2.36063Z" fill="#1C1817"/>
</svg>
