<svg width="34" height="34" viewBox="0 0 34 34" fill="none" xmlns="http://www.w3.org/2000/svg">
<path d="M27.2724 12.7911C27.2932 13.3775 27.7855 13.836 28.372 13.8151C28.9583 13.7942 29.4169 13.3019 29.3959 12.7155L27.2724 12.7911ZM22.2623 7.08661V8.14911C22.2742 8.14911 22.286 8.14891 22.2979 8.14851L22.2623 7.08661ZM13.156 7.08661L13.1205 8.14851C13.1323 8.14891 13.1442 8.14911 13.156 8.14911V7.08661ZM6.02233 12.7155C6.00144 13.3019 6.45991 13.7942 7.04634 13.8151C7.63277 13.836 8.12509 13.3775 8.14597 12.7911L6.02233 12.7155ZM29.3967 12.7533C29.3967 12.1665 28.9209 11.6908 28.3342 11.6908C27.7474 11.6908 27.2717 12.1665 27.2717 12.7533H29.3967ZM28.3342 21.2533L29.3959 21.291C29.3964 21.2785 29.3967 21.2659 29.3967 21.2533H28.3342ZM22.2623 26.92L22.2979 25.8581C22.286 25.8576 22.2742 25.8575 22.2623 25.8575V26.92ZM13.156 26.92V25.8575C13.1442 25.8575 13.1323 25.8576 13.1205 25.8581L13.156 26.92ZM7.08415 21.2533H6.02165C6.02165 21.2659 6.02188 21.2785 6.02233 21.291L7.08415 21.2533ZM8.14665 12.7533C8.14665 12.1665 7.67095 11.6908 7.08415 11.6908C6.49736 11.6908 6.02165 12.1665 6.02165 12.7533H8.14665ZM28.8701 13.6707C29.3768 13.3747 29.5475 12.724 29.2516 12.2173C28.9556 11.7107 28.305 11.5399 27.7982 11.8358L28.8701 13.6707ZM20.8768 17.1096L20.3409 16.192L20.3321 16.1972L20.8768 17.1096ZM14.5415 17.1096L15.0863 16.1972L15.0774 16.1921L14.5415 17.1096ZM7.62008 11.8358C7.11339 11.5399 6.4627 11.7107 6.16672 12.2173C5.87074 12.724 6.04154 13.3747 6.54823 13.6707L7.62008 11.8358ZM29.3959 12.7155C29.2598 8.89002 26.0526 5.89683 22.2268 6.0247L22.2979 8.14851C24.9524 8.05978 27.1779 10.1367 27.2724 12.7911L29.3959 12.7155ZM22.2623 6.02411H13.156V8.14911H22.2623V6.02411ZM13.1915 6.0247C9.36575 5.89683 6.15855 8.89002 6.02233 12.7155L8.14597 12.7911C8.24051 10.1367 10.4659 8.05978 13.1205 8.14851L13.1915 6.0247ZM27.2717 12.7533V21.2533H29.3967V12.7533H27.2717ZM27.2724 21.2155C27.1779 23.8699 24.9524 25.9467 22.2979 25.8581L22.2268 27.9818C26.0526 28.1097 29.2598 25.1166 29.3959 21.291L27.2724 21.2155ZM22.2623 25.8575H13.156V27.9825H22.2623V25.8575ZM13.1205 25.8581C10.4659 25.9467 8.24049 23.8699 8.14597 21.2155L6.02233 21.291C6.15855 25.1166 9.36575 28.1097 13.1915 27.9818L13.1205 25.8581ZM8.14665 21.2533V12.7533H6.02165V21.2533H8.14665ZM27.7982 11.8358L20.3409 16.192L21.4127 18.027L28.8701 13.6707L27.7982 11.8358ZM20.3321 16.1972C18.7165 17.1621 16.7019 17.1621 15.0863 16.1972L13.9967 18.0218C16.2833 19.3873 19.135 19.3873 21.4215 18.0218L20.3321 16.1972ZM15.0774 16.1921L7.62008 11.8358L6.54823 13.6707L14.0056 18.027L15.0774 16.1921Z" fill="#F8F7FA"/>
</svg>
