<svg width="34" height="34" viewBox="0 0 34 34" fill="none" xmlns="http://www.w3.org/2000/svg">
<path fill-rule="evenodd" clip-rule="evenodd" d="M8.30718 9.01268C9.55384 7.69943 9.99443 7.3311 10.5257 7.15968C10.8933 7.06335 11.2789 7.058 11.6491 7.1441C12.1364 7.28577 12.2653 7.39343 13.8633 8.98577C15.2672 10.384 15.4075 10.5356 15.542 10.809C15.7995 11.289 15.8397 11.8559 15.6526 12.3673C15.5109 12.7569 15.3097 13.0148 14.4583 13.869L13.903 14.4258C13.7572 14.574 13.7229 14.799 13.818 14.984C15.0519 17.0889 16.8023 18.8443 18.9038 20.084C19.1458 20.2135 19.4437 20.1717 19.6405 19.9806L20.1746 19.455C20.5046 19.1166 20.8543 18.7978 21.2215 18.5002C21.7983 18.146 22.517 18.1144 23.1226 18.4166C23.4187 18.5583 23.5165 18.6461 24.9643 20.0911C26.4575 21.58 26.5 21.6268 26.6643 21.9682C26.9736 22.5333 26.9703 23.2178 26.6558 23.7801C26.4957 24.0974 26.398 24.2122 25.5579 25.0707C25.0507 25.5892 24.5733 26.0623 24.4968 26.1318C23.8038 26.7055 22.9147 26.987 22.0176 26.9166C20.3766 26.767 18.7881 26.2597 17.3639 25.4305C14.2093 23.759 11.5236 21.3237 9.55243 18.3472C9.12309 17.7241 8.7414 17.0696 8.41059 16.3893C7.52316 14.8683 7.0649 13.1351 7.08459 11.3743C7.15234 10.4531 7.5941 9.59978 8.30718 9.01268Z" stroke="#F8F7FA" stroke-width="2" stroke-linecap="round" stroke-linejoin="round"/>
</svg>