<svg width="669" height="637" viewBox="0 0 669 637" fill="none" xmlns="http://www.w3.org/2000/svg">
	<path fill-rule="evenodd" clip-rule="evenodd" d="M148.316 1.77378C142.025 4.31157 138.078 8.0643 135.124 14.3159C132.451 19.9729 131.967 28.4735 133.942 35.0698C135.348 39.7677 143.031 48.556 148.134 51.3056C150.59 52.6295 152.062 54.337 152.829 56.7549C153.443 58.6912 154.887 61.0232 156.037 61.9364C157.817 63.3511 158.209 65.0277 158.668 73.2145C159.176 82.2866 159.079 82.9431 156.96 84.7855C154.855 86.6159 154.713 87.5251 154.713 99.152C154.713 111.127 154.799 111.629 157.139 113.397C159.257 114.995 159.604 116.157 159.872 122.55C160.231 131.08 160.117 131.204 151.13 131.973C143.922 132.591 141.48 133.921 139.352 138.386C138.481 140.211 137.088 141.705 136.255 141.705C135.422 141.705 134.741 141.548 134.741 141.357C134.741 141.165 133.864 136.819 132.793 131.698L130.846 122.387L135.155 118.592C140.754 113.66 142.08 110.299 141.503 102.499C140.632 90.7483 134.576 79.4012 125.928 73.3205C122.409 70.8456 120.462 70.2591 114.673 69.9314C105.695 69.4239 100.28 71.4251 94.9384 77.2231C88.2177 84.5177 87.3589 92.6117 91.7838 106.946C95.7503 119.792 103.4 126.195 114.519 125.976C117.402 125.919 119.762 126.006 119.762 126.168C119.762 126.331 120.654 130.006 121.744 134.334C124.622 145.764 124.465 146.924 119.406 151.669C113.738 156.984 109.949 164.089 108.617 171.895C107.901 176.09 106.747 179.029 105.138 180.754C100.229 186.017 101.149 200.058 106.876 207.268C108.471 209.276 109.78 211.645 109.785 212.531C109.801 215.289 115.431 224.13 119.38 227.6C123.027 230.803 132.461 235.623 135.084 235.623C135.791 235.623 137.109 237.177 138.014 239.075C138.918 240.973 140.912 243.173 142.442 243.961C145.208 245.386 156.103 247.444 173.025 249.74C182.813 251.068 183.626 251.804 183.717 259.417C183.811 267.34 188.395 274.852 196.221 279.909C200.435 282.632 205.897 284.082 216.128 285.195C221.777 285.809 221.949 285.903 219.124 286.842C214.372 288.422 212.633 290.496 212.633 294.582V298.279L205.891 298.844C198.307 299.48 189.48 302.512 185.526 305.838C181.333 309.366 176.762 317.478 176.083 322.598C175.315 328.386 175.03 328.833 170.691 331.042C167.573 332.631 161.206 338.201 152.424 347.026C148.521 350.949 141.386 361.822 138.884 367.66C137.795 370.203 136.411 372.589 135.808 372.961C134.509 373.764 130.717 380.984 129.801 384.397C129.011 387.34 121.256 390.145 119.027 388.294C118.296 387.687 116.076 387.145 114.095 387.091C111.39 387.016 110.124 387.553 109.016 389.246C108.086 390.666 106.12 391.729 103.71 392.115C101.604 392.451 99.0976 393.595 98.1389 394.655C96.4862 396.481 96.4822 397.474 98.057 413.723C99.4102 427.688 100.095 431.376 101.751 433.617C103.558 436.062 103.784 437.856 103.784 449.774C103.784 460.009 104.113 463.453 105.174 464.334C105.939 464.969 109.995 466.085 114.189 466.815C118.382 467.545 122.139 468.467 122.535 468.866C122.933 469.264 113.252 469.461 101.024 469.305C81.2004 469.05 78.608 469.203 77.0951 470.715C74.6216 473.191 73.8416 502.71 76.1285 507.298L77.6673 510.384H67.9478C54.7122 510.384 54.6313 510.459 53.9203 523.492L53.3541 533.863L46.6873 537.369C43.0204 539.298 39.681 541.215 39.2666 541.63C38.4088 542.489 37.0886 549.803 36.07 559.341C35.5737 563.992 34.4143 567.537 31.9837 571.829C28.16 578.582 27.7626 578.957 19.2464 583.807C10.141 588.994 2.92601 595.061 1.33522 598.87C-0.605092 603.517 -0.42534 607.641 1.83952 610.436C3.7299 612.768 3.97356 612.796 23.5594 612.839C53.5308 612.908 54.5374 612.982 55.1026 615.143C55.7328 617.554 58.3681 617.929 85.0201 619.402C108.182 620.682 108.997 620.572 110.713 615.927C111.295 614.356 112.211 615.421 115.601 621.6C121.663 632.652 124.098 633.072 145.726 626.793C150.944 625.279 156.026 623.615 157.019 623.097C159.956 621.563 164.429 623.069 165.12 625.824C165.454 627.155 166.973 628.89 168.496 629.677C183.91 637.653 249.321 636.728 266.781 628.287C270.324 626.575 272.899 626.289 284.471 626.327C303.848 626.39 336.699 629.551 339.921 631.663C341.314 632.575 342.453 633.727 342.453 634.222C342.453 636.182 349.719 637.504 356.708 636.816C362.434 636.251 382.757 632.465 400.154 628.724C401.956 628.336 404.267 626.954 405.29 625.652C407.568 622.756 408.959 622.643 409.653 625.297C410.946 630.245 430.453 634.261 456.794 635.001C479.811 635.649 496.604 634.21 507.076 630.693C511.185 629.313 517.505 627.554 521.121 626.783C524.737 626.013 530.392 624.433 533.688 623.274C546.441 618.789 546.217 618.838 548.233 620.096C549.338 620.788 553.891 621.287 559.079 621.287C564.104 621.287 568.299 621.736 568.654 622.31C569.05 622.951 574.148 623.214 582.289 623.016C593.296 622.747 595.439 622.436 596.246 620.993C597.702 618.39 603.903 618.798 608.299 621.787C613.668 625.437 617.466 624.82 613.577 620.93C611.387 618.739 611.661 618.381 616.047 617.678C618.228 617.33 621.462 615.976 623.23 614.669C626.935 611.935 633.401 611.557 645.171 613.383C651.092 614.302 653.22 614.199 658.844 612.722C667.522 610.441 669 609.639 669 607.214C669 602.417 666.053 599.351 657.13 594.867L648.313 590.437L647.805 576.307C647.416 565.487 646.941 561.82 645.774 560.653C644.583 559.462 641.89 559.151 633.408 559.227L622.564 559.324L609.083 540.835C601.668 530.667 595.449 521.639 595.262 520.773C595.029 519.693 596.751 520.377 600.755 522.957C620.602 535.744 618.852 536.485 622.672 513.674C624.297 503.979 624.293 503.104 622.607 495.939C621.558 491.483 620.318 488.403 619.575 488.403C618.883 488.403 617.35 490.651 616.168 493.399C614.987 496.146 613.751 498.394 613.421 498.394C613.092 498.394 613.157 496.483 613.566 494.148C614.58 488.361 614.235 482.589 612.7 479.659C611.135 476.671 577.441 451.435 575.016 451.435C572.384 451.435 570.284 454.073 569.62 458.211C568.339 466.193 568.274 466.306 564.59 466.998C562.647 467.362 560.877 467.482 560.658 467.263C560.44 467.045 559.944 460.47 559.558 452.654C559.025 441.869 558.492 438.144 557.352 437.197C556.526 436.51 553.37 435.724 550.34 435.449C547.309 435.174 544.7 434.5 544.543 433.95C544.386 433.401 545.689 432.048 547.441 430.945C550.194 429.21 551.133 427.385 554.383 417.457C556.449 411.141 558.144 405.042 558.147 403.901C558.154 401.706 555.604 399.028 550.664 396.038C545.103 392.674 542.235 389.203 540.727 384.015C539.905 381.185 537.929 377.07 536.335 374.869C534.741 372.668 533.105 369.815 532.696 368.53C530.683 362.183 517.032 343.537 514.389 343.526C514.019 343.525 512.817 342.157 511.718 340.489C510.62 338.819 506.687 335.369 502.98 332.821C497.974 329.381 496.24 327.602 496.24 325.905C496.24 324.65 495.282 321.062 494.112 317.932C490.071 307.128 480.136 300.359 466.172 298.899L460.29 298.284L460.275 294.68C460.243 287.245 458.492 286.741 432.25 286.619C420.545 286.565 410.754 286.309 410.496 286.05C410.238 285.791 419.875 285.566 431.912 285.549C443.949 285.532 457.048 285.096 461.021 284.579C477.038 282.497 486.069 273.458 487.971 257.604L488.75 251.11L508.208 248.323C519.637 246.686 528.631 244.904 530.005 244.004C531.291 243.16 533.211 240.999 534.271 239.203C535.643 236.876 537.417 235.577 540.435 234.691C550.082 231.857 557.669 224.656 561.56 214.641C562.521 212.169 564.154 209.233 565.19 208.119C571.279 201.568 571.834 185.36 566.182 179.172C565.178 178.073 564.027 175.151 563.625 172.678C562.456 165.49 558.655 158.102 553.11 152.235L547.958 146.785L550.083 137.119C551.251 131.802 552.474 127.022 552.799 126.495C553.124 125.97 554.818 125.808 556.566 126.135C561.614 127.084 569.71 124.148 574.065 119.791C580.306 113.546 585.22 95.0146 582.987 86.1423C581.58 80.5532 576.351 74.5584 570.469 71.7918C566.594 69.9694 564.406 69.6367 558.209 69.9244C551.804 70.2222 549.998 70.7277 546.256 73.2685C538.237 78.7128 531.364 91.6185 530.426 102.991C529.826 110.263 531.246 113.727 536.844 118.657L541.227 122.518L539.205 131.602C538.093 136.597 537.183 140.915 537.183 141.194C537.183 141.475 536.515 141.705 535.698 141.705C534.882 141.705 533.55 140.115 532.738 138.172C531.049 134.128 526.495 131.722 520.488 131.7C512.394 131.671 512.217 131.466 512.217 122.105C512.217 117.499 512.635 113.729 513.145 113.729C513.654 113.729 514.778 113.023 515.642 112.16C516.883 110.918 517.211 108.231 517.211 99.3048C517.211 89.1227 516.992 87.7429 514.968 85.1691C512.934 82.5814 512.757 81.4334 513.062 72.7949C513.361 64.3253 513.653 63.0524 515.699 61.275C516.964 60.1759 518.268 58.0897 518.596 56.639C518.987 54.9015 520.906 52.8993 524.218 50.7731C533.681 44.6974 539.18 35.2786 539.18 25.1464C539.18 10.1255 526.337 -1.27756 510.988 0.115225C491.932 1.84472 480.13 25.1684 490.24 41.1185C491.819 43.6093 494.039 46.1441 495.174 46.7516C496.873 47.6608 497.238 48.8208 497.238 53.2939C497.238 57.9908 497.578 58.954 499.735 60.3677C502.487 62.1722 502.852 65.5392 501.595 77.5638C501.014 83.1279 500.71 83.7424 498.1 84.6526C494.869 85.7796 494.868 85.7866 495.223 100.741C495.468 111.027 496.136 113.245 499.295 114.248C501.432 114.926 501.41 114.594 500.292 128.966C500.224 129.845 492.71 129.947 489.593 129.11C487.506 128.55 487.428 127.977 487.074 110.39C486.746 94.0904 486.477 91.7404 484.433 87.2523C480.613 78.8696 472.81 72.0646 464.425 69.8055L460.29 68.6915V52.3987C460.29 37.6515 460.11 35.944 458.389 34.3854C456.203 32.4071 441.408 24.8067 439.742 24.8067C439.13 24.8067 437.793 23.8825 436.771 22.7515C435.51 21.3587 434.185 20.8801 432.652 21.2648C430.971 21.6864 429.972 21.1899 428.749 19.3225C427.845 17.9427 426.295 16.8137 425.304 16.8137C424.314 16.8137 420.221 15.2401 416.211 13.3167C412.199 11.3934 408.317 9.81977 407.582 9.81977C406.304 9.81977 390.097 16.1093 369.066 24.7668C363.656 26.9938 358.09 29.7124 356.698 30.8075C353.737 33.1385 350.92 33.2883 347.446 31.3011C343.089 28.8092 338.969 29.6305 324.895 35.7971C316.409 39.5149 309.834 41.7919 307.582 41.7919C305.585 41.7919 302.987 42.4683 301.807 43.2946C300.306 44.3467 298.966 44.5355 297.341 43.9241C296.063 43.4445 286.346 40.6719 275.745 37.7624C253.817 31.7447 254.481 31.6677 251.498 40.574L249.918 45.2889L239.027 49.3194C226.425 53.9823 225.245 55.2752 226.202 63.3671L226.804 68.4567L216.248 69.0542C200.796 69.9304 191.901 74.3855 187.277 83.5675C184.028 90.0199 183.746 91.9133 183.201 111.04C182.937 120.276 182.46 128.257 182.139 128.774C181.82 129.292 179.399 129.715 176.76 129.715H171.962L171.326 125.079C170.138 116.405 170.436 114.912 173.687 113.23L176.683 111.68V99.2389V86.7987L173.937 85.0802C172.427 84.134 171.117 83.3377 171.026 83.3088C170.935 83.2798 170.326 78.6468 169.673 73.0147L168.483 62.7736L171.639 59.8242C174.405 57.2385 174.713 56.4402 174.133 53.3469C173.535 50.1616 173.904 49.3384 177.928 44.8593C187.427 34.2895 186.77 18.9898 176.346 7.98337C169.29 0.532862 157.737 -2.02591 148.316 1.77378ZM161.704 4.82412C162.823 5.54749 162.287 5.79628 159.583 5.80827C155.183 5.82625 148.011 8.25114 145.419 10.5951C142.19 13.5175 139.771 19.4264 138.903 26.5162C138.117 32.9306 138.01 33.1465 136.906 30.4868C135.261 26.5212 135.445 23.6707 137.74 17.5351C139.971 11.5702 143.492 7.68463 148.722 5.41761C152.698 3.69411 159.477 3.38438 161.704 4.82412ZM514.714 5.39862C513.616 6.2299 511.705 7.16309 510.47 7.47382C509.235 7.78454 508.223 8.43897 508.223 8.92855C508.223 9.41912 507.579 9.81977 506.792 9.81977C506.005 9.81977 505.09 10.674 504.76 11.7191C504.428 12.7632 503.049 13.8952 501.696 14.2359C500.343 14.5756 499.236 15.5198 499.236 16.3331C499.236 17.1474 498.847 17.8128 498.373 17.8128C496.95 17.8128 494.229 26.1126 494.012 31.1212C493.794 36.1219 492.945 36.9751 491.282 33.8648C489.794 31.0823 490.009 24.8647 491.774 19.6832C494.955 10.3393 503.408 3.79702 512.217 3.85797C516.445 3.88694 516.592 3.97786 514.714 5.39862ZM406.24 39.7937C406.525 67.3067 406.711 66.5524 400.445 63.3102C396.81 61.4298 396.297 59.9341 397.569 54.9215C398.648 50.6672 398.18 47.7867 396.409 47.7867C395.843 47.7867 395.335 49.4732 395.28 51.5334C395.146 56.583 393.86 60.7864 393.064 58.7771C392.737 57.9528 392.338 55.9646 392.177 54.358C391.737 49.9598 389.388 49.8249 389.388 54.1981C389.388 57.9369 388.884 58.3745 386.392 56.8019C385.22 56.0615 384.762 52.6475 384.286 41.0805C383.952 32.9546 383.39 25.631 383.038 24.8067C382.548 23.6617 384.692 22.3319 392.134 19.1656C407.387 12.6763 405.936 10.5541 406.24 39.7937ZM176.286 23.5009C177.267 28.7333 175.023 34.7251 170.328 39.409C166.758 42.9709 165.747 43.4625 162.873 43.0358L159.55 42.5413L163.488 40.7768C165.655 39.8057 168.709 37.3318 170.275 35.2776C172.699 32.0964 173.123 30.6167 173.132 25.2963C173.139 20.7223 173.474 19.1766 174.386 19.5263C175.07 19.7891 175.925 21.5775 176.286 23.5009ZM527.954 22.3838C527.638 22.7006 527.787 24.3811 528.285 26.1196C528.855 28.1078 528.814 30.4238 528.175 32.3611C526.869 36.3197 520.809 42.2825 519.14 41.2504C518.341 40.7568 518.154 40.8947 518.614 41.6371C519.42 42.9429 519.055 43.0528 516.8 42.1876C515.567 41.714 515.921 41.1155 518.442 39.416C523.028 36.3227 526.198 31.1782 526.198 26.824C526.198 23.4209 526.786 21.8093 528.029 21.8093C528.303 21.8093 528.269 22.0681 527.954 22.3838ZM380.4 37.0371C380.982 49.5342 382.093 49.0366 368.417 42.3934C360.805 38.6956 359.924 37.9812 359.882 35.4684C359.825 32.1483 359.931 32.0684 368.91 28.5934C379.828 24.3671 379.81 24.3541 380.4 37.0371ZM341.454 37.7954V42.7911H336.961C332.512 42.7911 332.467 42.7571 332.467 39.377C332.467 35.959 333.215 35.4035 341.205 32.8787C341.342 32.8357 341.454 35.0478 341.454 37.7954ZM279.169 42.3145C290.054 45.3498 299.287 48.1604 299.686 48.56C300.959 49.8329 299.363 67.6124 297.928 68.1639C297.215 68.4377 293.502 68.3997 289.677 68.078C282.91 67.5105 282.711 67.4166 282.292 64.5611C281.914 61.9843 282.116 61.6966 283.946 62.2001C285.094 62.5159 287.717 63.0564 289.776 63.4011C293.092 63.9566 293.521 63.7928 293.521 61.9733C293.521 59.7403 293.686 59.8022 271.387 53.6956C264.979 51.9411 259.026 50.7791 258.155 51.1128C254.369 52.5665 257.002 54.4159 266.808 57.1935C277.978 60.3568 279.081 60.9253 278.25 63.0924C277.775 64.3303 276.91 64.3603 272.375 63.2922C261.746 60.7894 252.459 57.6321 251.97 56.3552C251.514 55.1683 255.069 39.42 256.21 37.5746C257.02 36.2617 258.724 36.6144 279.169 42.3145ZM329.098 41.3253C328.713 42.3255 327.045 42.7911 323.844 42.7911C318.545 42.7911 318.78 42.0297 324.811 39.6518C328.94 38.0232 330.178 38.5068 329.098 41.3253ZM259.53 42.862C258.239 45.2759 258.404 45.3478 277.662 50.7132C293.48 55.1203 295.038 55.3661 296.111 53.6296C297.2 51.8681 294.138 50.1726 285.717 47.8746C281.496 46.7236 274.11 44.6884 269.303 43.3536C260.727 40.9706 260.547 40.9616 259.53 42.862ZM328.517 46.6197C328.817 46.9864 328.889 52.1209 328.676 58.0278L328.291 68.7684H315.757H303.222L303.932 57.5452C304.323 51.3716 305.016 46.0892 305.473 45.8054C306.66 45.0681 327.863 45.8174 328.517 46.6197ZM334.713 57.5852C334.208 68.5426 333.899 70.0873 332.623 68.0221C332.077 67.1378 331.862 47.423 332.383 46.0692C332.429 45.9493 333.083 46.0882 333.836 46.3769C334.921 46.7936 335.103 49.1165 334.713 57.5852ZM341.62 57.5282C341.408 63.4351 341.09 68.4267 340.912 68.6186C340.734 68.8114 340.109 68.6725 339.524 68.3098C338.879 67.9112 338.459 63.53 338.459 57.2195C338.459 47.8936 338.646 46.7876 340.231 46.7876C341.843 46.7876 341.97 47.7627 341.62 57.5282ZM348.676 56.5291C348.281 67.2358 348.005 68.7684 346.478 68.7684C345.833 68.7684 345.449 64.662 345.449 57.778C345.449 47.8696 345.626 46.7876 347.242 46.7876C348.87 46.7876 349.003 47.6888 348.676 56.5291ZM358.658 48.0365C359.402 50.1506 357.004 66.6053 355.772 67.8352C353.296 70.3061 352.439 67.5765 352.439 57.2195V46.7876H355.328C356.917 46.7876 358.415 47.3501 358.658 48.0365ZM368.276 48.4082C372.472 49.2474 371.234 50.7841 366.361 50.7841C362.665 50.7841 361.553 49.9918 363.091 48.4531C363.911 47.6318 364.379 47.6278 368.276 48.4082ZM248.039 54.5308C247.671 57.1406 246.811 59.7283 246.126 60.2798C245.441 60.8313 244.56 62.2901 244.169 63.521C242.935 67.4116 240.734 68.7684 235.657 68.7684H230.862L230.36 63.532C230.083 60.6525 230.056 57.778 230.299 57.1446C230.673 56.1684 245.459 50.0377 247.895 49.8479C248.341 49.8129 248.405 51.9211 248.039 54.5308ZM244.589 53.7505C244.589 54.282 245.263 54.4589 246.087 54.1432C246.911 53.8264 247.585 53.3908 247.585 53.175C247.585 52.9592 246.911 52.7824 246.087 52.7824C245.263 52.7824 244.589 53.218 244.589 53.7505ZM164.335 76.4337C164.779 82.0329 164.649 83.9692 163.873 83.2498C163.278 82.6963 162.518 78.425 162.184 73.7581C161.742 67.5525 161.866 65.7211 162.646 66.942C163.233 67.8612 163.993 72.1325 164.335 76.4337ZM507.224 76.2619C507.224 80.5911 506.803 83.7554 506.226 83.7554C505.649 83.7554 505.227 80.5911 505.227 76.2619C505.227 71.9327 505.649 68.7684 506.226 68.7684C506.803 68.7684 507.224 71.9327 507.224 76.2619ZM462.869 74.9171C464.514 76.5626 463.979 79.3072 462.226 78.2222C461.719 77.9085 460.514 78.1602 459.549 78.7807C458.015 79.7678 458.005 79.8448 459.476 79.3912C460.401 79.1054 461.347 79.4092 461.576 80.0646C462.112 81.5992 461.286 83.8723 460.393 83.3197C460.017 83.087 459.872 84.3259 460.072 86.0733C460.365 88.6321 459.984 89.4454 458.116 90.2507C456.193 91.08 455.81 91.9692 455.878 95.4392C455.942 98.7143 456.76 100.603 459.638 104.118C461.662 106.587 464.14 108.87 465.147 109.19C466.153 109.51 467.485 110.887 468.106 112.25C469.473 115.253 470.842 115.406 472.281 112.716C473.108 111.169 473.058 110.765 472.066 110.968C471.231 111.139 470.791 110.171 470.82 108.234C470.855 105.868 471.357 105.166 473.206 104.899C475.227 104.608 475.462 104.882 474.922 106.897C474.579 108.182 474.291 126.67 474.284 147.98C474.271 182.925 474.109 186.79 472.636 187.356C468.849 188.81 465.731 183.278 468.451 179.931C469.521 178.615 469.149 178.668 466.531 180.2C464.745 181.245 463.285 182.675 463.285 183.377C463.285 185.367 467.447 189.663 469.376 189.663C472.978 189.663 474.27 190.854 474.27 194.172C474.27 196.977 473.973 197.391 472.273 196.947C471.156 196.654 470.276 196.916 470.276 197.539C470.276 198.154 471.174 198.655 472.273 198.655C474.211 198.655 474.27 199.322 474.27 221.089C474.27 249.235 474.299 249.151 464.783 248.685C459.017 248.402 453.82 250.877 452.44 254.562C447.405 268.017 450.514 267.031 411.928 267.41C392.356 267.603 379.479 268.116 378.735 268.733C378.067 269.289 377.33 271.17 377.097 272.915C376.864 274.66 376.726 272.941 376.789 269.094L376.905 262.1L391.884 261.819C401.655 261.635 407.602 261.932 408.986 262.671C410.54 263.5 411.658 263.508 413.164 262.702C414.295 262.096 418.871 261.6 423.332 261.6C438.129 261.6 444.811 258.261 449.714 248.417L452.301 243.223V185.596C452.301 153.899 452.005 126.486 451.643 124.677C451.252 122.719 449.128 119.468 446.4 116.649C438.247 108.223 444.538 108.648 332.379 108.959C234.867 109.231 234.068 109.249 229.562 111.336C226.831 112.599 223.079 115.712 220.156 119.135C214.549 125.7 212.962 126.729 208.16 126.91C205.269 127.019 204.87 127.284 205.84 128.454C207.06 129.925 206.773 130.28 202.311 132.828C201.304 133.403 200.696 134.091 200.961 134.356C201.227 134.622 204.681 133.208 208.639 131.214C212.596 129.22 216.014 127.77 216.235 127.991C216.456 128.212 216.17 129.73 215.601 131.366C214.92 133.319 214.661 153.169 214.847 189.251L215.13 244.164L218.494 249.409C220.345 252.294 223.828 256.068 226.233 257.797C228.64 259.525 230.608 261.455 230.608 262.082C230.608 262.711 229.205 264.546 227.49 266.159C225.774 267.773 223.746 270.555 222.982 272.341L221.594 275.588H212.769C199.187 275.588 194.676 273.39 190.485 264.728C188.647 260.93 188.221 257.982 187.856 246.566L187.422 232.937L190.445 230.783C192.108 229.598 194.159 228.629 195.003 228.629C195.846 228.629 196.815 228.18 197.155 227.63C197.501 227.069 196.711 226.631 195.352 226.631C194.022 226.631 191.733 225.43 190.266 223.963L187.6 221.295L187.883 156.272C188.166 91.5346 188.177 91.2309 190.355 87.1574C192.775 82.6333 198.441 77.2181 202.508 75.5415C207.939 73.3035 224.071 73.0237 341.17 73.1426C451.417 73.2545 461.352 73.3994 462.869 74.9171ZM119.89 75.1878C123.937 76.8983 130.238 83.2918 131.282 86.7448C131.984 89.0707 131.911 89.1367 130.167 87.7439C129.14 86.9236 127.355 85.2601 126.201 84.0461C117.632 75.034 100.067 81.5423 99.8376 93.8146C99.7437 98.8462 102.938 107.088 106.278 110.429C109.004 113.157 110.329 113.727 113.92 113.719C119.191 113.707 128.135 109.75 129.761 106.71C130.555 105.228 131.259 104.85 131.947 105.538C133.342 106.934 130.252 112.001 126.742 114.076C122.682 116.475 111.798 118.75 107.591 118.078C102.825 117.317 100.131 114.718 96.9875 107.846C95.204 103.95 94.3063 99.9802 93.9967 94.6199C93.6092 87.9307 93.8529 86.4221 95.923 82.7083C100.055 75.2907 111.579 71.6749 119.89 75.1878ZM566.244 74.8971C573.287 77.248 578.542 84.7735 578.332 92.206C578.205 96.6931 575.952 104.07 575.121 102.724C574.719 102.072 573.929 103.486 573.301 105.981C570.886 115.58 565.576 118.316 551.164 117.393C546.495 117.093 542.547 116.822 542.391 116.788C542.234 116.754 542.555 115.94 543.106 114.978C545.599 110.62 545.628 110.607 549.457 112.208C554.691 114.396 562.298 114.186 565.37 111.768C568.684 109.159 572.315 100.486 572.467 94.8147C572.637 88.4733 570.484 84.6896 565.144 81.9449C558.825 78.6958 554.294 79.4012 549.975 84.3049C542.233 93.0972 540.018 99.7554 542.704 106.165C544.309 109.995 544.295 110.132 542.12 111.773C540.886 112.705 540.205 113.962 540.593 114.592C541.828 116.592 539.603 115.806 537.407 113.468C532.444 108.183 534.205 95.4392 541.384 84.6826C547.473 75.5605 556.998 71.8108 566.244 74.8971ZM440.317 78.8187C440.317 79.4002 440.767 79.599 441.316 79.2593C441.865 78.9196 442.314 78.444 442.314 78.2012C442.314 77.9584 441.865 77.7606 441.316 77.7606C440.767 77.7606 440.317 78.2372 440.317 78.8187ZM226.072 86.0953C224.173 87.9957 222.632 90.1568 222.648 90.8991C222.664 91.6405 224.029 93.7357 225.682 95.5531L228.687 98.8582L231.96 96.834C233.761 95.7209 236.067 93.8885 237.085 92.7625C238.902 90.7553 238.881 90.6544 236.022 87.649C231.001 82.3706 229.958 82.2077 226.072 86.0953ZM436.288 84.2739C433.84 85.5848 431.421 89.3145 431.365 91.8633C431.346 92.7505 432.261 94.6619 433.4 96.1096C436.323 99.8284 442.314 99.8284 445.237 96.1096C447.837 92.8035 447.867 89.7322 445.333 86.509C442.978 83.5136 439.372 82.6224 436.288 84.2739ZM408.622 86.0034C403.697 91.3148 406.657 98.7423 413.699 98.7423C417.602 98.7423 420.052 96.4613 420.944 91.9992C422.251 85.4569 413.21 81.0567 408.622 86.0034ZM120.137 88.0366C123.068 90.9691 126.534 103.269 125.084 105.593C122.404 109.889 112.483 111.279 109.336 107.8C105.445 103.498 103.537 92.9394 106.063 89.6772C109.487 85.2551 116.535 84.4328 120.137 88.0366ZM566.184 88.2884C568.91 90.7573 568.703 96.9908 565.679 103.489C562.409 110.518 559.923 111.617 552.954 109.117C548.357 107.47 547.624 106.834 547.33 104.251C546.802 99.6066 550.155 89.904 553.09 87.586C556.193 85.1362 563.111 85.5068 566.184 88.2884ZM230.594 87.5021C230.562 89.2516 229.326 92.7465 228.744 92.7326C228.396 92.7236 227.456 92.3019 226.654 91.7944C225.405 91.0041 225.463 90.5744 227.058 88.812C228.934 86.7388 230.62 86.1133 230.594 87.5021ZM360.708 87.7719C358.019 88.8539 356.855 92.7985 358.381 95.652C359.893 98.4775 364.707 98.4266 367.379 95.5561C369.936 92.8115 369.945 91.2788 367.418 88.751C365.246 86.5779 364.092 86.409 360.708 87.7719ZM410.959 90.2028C410.229 93.1122 408.362 93.6487 408.362 90.9491C408.362 89.1117 410.373 86.434 411.161 87.2224C411.401 87.4621 411.311 88.804 410.959 90.2028ZM436.948 90.2827C436.252 92.0961 434.326 92.219 434.326 90.4495C434.326 88.6311 436.694 86.3681 437.154 87.7469C437.349 88.3354 437.257 89.4764 436.948 90.2827ZM169.193 88.6241C166.434 89.2106 166.174 89.6362 165.893 94.0014C165.621 98.2338 165.336 98.7423 163.229 98.7423C158.55 98.7423 157.709 97.8131 157.709 92.6406V87.7519L164.949 87.8698C169.744 87.9487 171.178 88.2035 169.193 88.6241ZM205.258 91.6305L201.473 95.5091L204.901 98.1249C206.785 99.5636 208.577 100.741 208.88 100.741C209.978 100.741 215.629 95.2733 215.629 94.2103C215.629 93.1562 210.53 87.7519 209.535 87.7519C209.265 87.7519 207.34 89.4974 205.258 91.6305ZM506.653 91.9982C505.725 98.6384 505.539 98.8982 501.989 98.5565C498.815 98.2507 498.729 98.1149 498.435 92.9973L498.132 87.7519H502.691H507.248L506.653 91.9982ZM440.774 90.6803C441.09 91.1919 440.891 91.8923 440.333 92.238C439.775 92.5827 439.319 92.164 439.319 91.3078C439.319 89.5523 439.918 89.2945 440.774 90.6803ZM133.03 93.7626C132.276 96.6441 131.006 97.0977 129.833 94.9047C128.679 92.7455 129.306 91.7484 131.818 91.7484C133.068 91.7484 133.408 92.3129 133.03 93.7626ZM473.085 95.9178C472.74 99.4077 470.276 101.154 470.276 97.908C470.276 95.1684 471.292 92.7475 472.443 92.7475C472.968 92.7475 473.258 94.1743 473.085 95.9178ZM459.79 96.7441C459.307 97.5264 458.733 97.5843 458.067 96.9179C457.517 96.3684 457.395 95.3912 457.793 94.7458C458.276 93.9635 458.851 93.9055 459.517 94.5719C460.066 95.1215 460.189 96.0986 459.79 96.7441ZM197.162 96.7331C196.812 97.2986 197.212 97.4664 198.101 97.1257C199.831 96.4613 200.147 95.7449 198.711 95.7449C198.194 95.7449 197.497 96.1895 197.162 96.7331ZM463.285 101.74C461.349 102.992 460.29 102.992 460.29 101.74C460.29 101.19 461.301 100.748 462.536 100.756C464.353 100.769 464.497 100.956 463.285 101.74ZM165.692 102.489C165.689 102.901 165.212 104.952 164.631 107.045C163.705 110.381 163.242 110.814 160.891 110.542C158.507 110.267 158.175 109.759 157.902 105.986L157.594 101.74H161.647C163.875 101.74 165.695 102.077 165.692 102.489ZM508.223 103.124C508.223 104.005 506.55 104.761 503.637 105.198C498.61 105.952 497.691 105.603 498.581 103.281C499.373 101.216 508.223 101.072 508.223 103.124ZM467.28 105.178C467.28 105.421 466.83 105.896 466.281 106.236C465.732 106.575 465.283 106.377 465.283 105.795C465.283 105.214 465.732 104.737 466.281 104.737C466.83 104.737 467.28 104.935 467.28 105.178ZM165.667 125.219C165.667 128.809 165.396 129.793 164.7 128.716C164.167 127.892 163.732 124.969 163.732 122.222C163.732 118.632 164.004 117.648 164.7 118.725C165.232 119.549 165.667 122.472 165.667 125.219ZM506.226 124.161C506.226 126.602 505.776 128.876 505.227 129.216C504.612 129.596 504.229 127.894 504.229 124.779C504.229 121.999 504.678 119.724 505.227 119.724C505.776 119.724 506.226 121.72 506.226 124.161ZM544.652 134.181C543.667 139.419 542.483 143.703 542.019 143.703C540.913 143.703 540.958 140.075 542.118 135.71C542.628 133.787 543.554 130.257 544.175 127.866C546.177 120.148 546.497 124.375 544.652 134.181ZM127.628 134.137C128.712 138.441 129.184 145.471 128.333 144.619C128.104 144.391 127.262 140.726 126.46 136.476C124.913 128.283 125.739 126.629 127.628 134.137ZM172.489 135.91C175.108 138.531 173.08 148.472 169.283 151.622C168.339 152.407 164.563 153.541 160.892 154.143C155.437 155.038 154.218 155.579 154.216 157.101C154.213 159.549 151.175 161.545 149.7 160.069C148.933 159.302 148.976 158.225 149.849 156.307C150.898 154.005 150.813 153.376 149.257 151.909C148.258 150.968 147.731 150.719 148.085 151.356C149.077 153.144 147.709 155.693 145.758 155.693C144.398 155.693 143.872 154.562 143.407 150.628C142.613 143.921 143.518 139.89 146.214 138.123C150.456 135.342 170.255 133.675 172.489 135.91ZM337.821 140.206C337.194 141.839 335.463 142.267 335.463 140.789C335.463 140.03 336.163 139.515 338.178 138.786C338.298 138.743 338.137 139.382 337.821 140.206ZM516.966 142.954C516.49 144.4 512.217 145.287 512.217 143.939C512.217 142.512 513.391 141.705 515.463 141.705C516.547 141.705 517.199 142.246 516.966 142.954ZM137.381 164.435C137.046 174.189 136.652 183.257 136.506 184.586C136.232 187.059 133.904 188.808 134.002 186.465C134.033 185.752 133.93 183.818 133.774 182.17C133.531 179.578 133.384 179.781 132.693 183.668C132.254 186.141 131.853 190.637 131.804 193.66C131.755 196.682 131.328 199.765 130.857 200.511C129.113 203.263 117.158 198.709 114.176 194.156C112.861 192.148 112.624 189.565 112.917 180.431C113.236 170.542 113.619 168.488 116.089 163.447C118.999 157.51 124.063 152.615 131.231 148.813C138.245 145.091 138.06 144.62 137.381 164.435ZM540.233 149.225C544.336 151.307 545.053 152.054 544.302 153.472C543.802 154.419 542.623 158.982 541.684 163.612C539.591 173.93 538.401 176.674 536.023 176.674C534.322 176.674 534.187 175.572 534.187 161.687C534.187 153.445 534.427 146.701 534.719 146.701C535.013 146.701 537.493 147.837 540.233 149.225ZM284.041 156.043C295.461 161.365 302.287 175.054 299.452 186.952C296.27 200.31 285.625 208.854 272.106 208.903C261.048 208.943 253.66 204.718 248.076 195.158C239.387 180.282 246.297 160.837 262.305 155.122C268.444 152.931 278.252 153.347 284.041 156.043ZM409.488 155.221C415.975 157.432 420.775 161.86 424.269 168.855C428.628 177.586 428.573 185.099 424.083 193.777C413.193 214.823 384.656 214.266 374.284 192.803C371.324 186.681 371.109 174.877 373.863 169.681C377.985 161.903 382.333 157.914 389.84 155.019C394.205 153.337 404.264 153.441 409.488 155.221ZM550.181 167.682C552.188 171.629 552.48 173.731 552.565 184.878C552.669 198.632 552.27 199.798 547.033 201.019C543.805 201.773 542.644 200.461 541.849 195.158C541.262 191.24 542.461 171.002 543.762 162.862L544.421 158.736L546.157 160.961C547.112 162.185 548.923 165.209 550.181 167.682ZM148.617 164.058C150.009 165.737 149.104 168.407 146.707 169.69C145.39 170.395 144.771 170.236 144.328 169.081C143.346 166.521 143.644 163.887 144.977 163.348C146.998 162.533 147.419 162.615 148.617 164.058ZM106.917 190.163L105.982 194.159L105.881 189.995C105.826 187.704 106.114 185.006 106.521 184C107.214 182.287 107.28 182.297 107.557 184.168C107.719 185.267 107.431 187.965 106.917 190.163ZM343.703 225.059C350.962 227.651 358.376 235.321 359.983 241.903L360.663 244.686L357.294 242.698C352.997 240.161 342.416 237.655 335.922 237.636C329.91 237.618 320.982 239.812 315.838 242.57C313.79 243.669 311.93 244.383 311.706 244.16C310.716 243.169 317.311 233.071 321.164 229.677C327.746 223.88 335.787 222.233 343.703 225.059ZM265.742 226.848C265.026 227.564 264.561 227.623 264.561 226.998C264.561 225.664 265.742 224.482 266.409 225.149C266.692 225.433 266.393 226.197 265.742 226.848ZM188.322 228.173C189.131 230.281 187.781 231.42 186.63 229.599C185.408 227.665 185.432 226.631 186.7 226.631C187.267 226.631 187.996 227.324 188.322 228.173ZM202.068 251.754C199.281 253.107 196.647 257.761 196.691 261.255C196.757 266.484 202.903 271.592 209.126 271.592C212.582 271.592 217.451 267.046 218.184 263.136C218.983 258.875 216.218 252.783 212.915 251.526C209.831 250.353 204.732 250.46 202.068 251.754ZM207.64 254.915C207.64 255.635 206.98 257.095 206.174 258.162C205.367 259.229 204.693 261.039 204.676 262.183C204.633 264.965 203.624 265.824 201.99 264.467C199.787 262.638 200.324 256.946 202.87 255.163C205.578 253.265 207.64 253.158 207.64 254.915ZM462.272 255.855C462.259 257.681 462.071 257.822 461.273 256.605C460.398 255.273 460.181 255.273 459.306 256.605C457.631 259.158 458.093 265.381 460.04 266.516C461.678 267.47 461.68 267.536 460.066 267.565C458.115 267.599 455.296 262.821 455.296 259.48C455.296 256.704 458.011 253.607 460.444 253.607C461.694 253.607 462.282 254.331 462.272 255.855ZM234.695 267.421C233.626 269.422 229.61 271.074 229.61 269.514C229.61 269.023 230.846 266.873 232.356 264.737C234.904 261.133 235.124 261.021 235.414 263.175C235.584 264.453 235.262 266.363 234.695 267.421ZM248.548 263.533C250.88 267.893 249.066 274.589 245.552 274.589C243.022 274.589 243.039 272.143 245.587 269.594L247.585 267.595H245.057C242.381 267.595 240.998 265.592 241.954 263.099C242.785 260.933 247.317 261.231 248.548 263.533ZM372.087 262.258C371.725 262.62 371.946 263.538 372.577 264.298C373.289 265.156 373.37 266.037 372.792 266.615C372.242 267.166 348.696 267.661 315.463 267.822C262.597 268.078 259.078 268.204 259.206 269.832C259.28 270.788 258.975 271.343 258.525 271.065C258.076 270.787 257.427 271.017 257.081 271.576C256.054 273.24 253.578 272.727 253.544 270.842C253.527 269.881 252.853 268.221 252.046 267.155C251.241 266.088 250.58 264.402 250.58 263.408C250.58 261.683 253.398 261.6 311.663 261.6C345.257 261.6 372.448 261.896 372.087 262.258ZM472.223 271.152C470.82 272.844 468.278 273.067 468.278 271.5C468.278 270.9 469.29 269.178 470.525 267.673L472.772 264.938L473.094 267.326C473.271 268.639 472.879 270.362 472.223 271.152ZM228.985 273.18C230.94 273.931 230.097 279.053 227.458 282.467L225.615 284.85V278.721C225.615 272.656 225.995 272.032 228.985 273.18ZM267.557 286.456C266.733 286.905 259.543 286.966 251.579 286.593L237.099 285.913L253.077 285.776C261.865 285.701 268.381 286.007 267.557 286.456ZM281.267 287.182C280.935 287.514 280.074 287.55 279.354 287.261C278.557 286.942 278.793 286.706 279.957 286.658C281.009 286.615 281.598 286.85 281.267 287.182ZM400.254 289.949C402.31 292.139 402.356 292.445 400.856 293.945C399.962 294.84 398.58 295.571 397.783 295.571C395.977 295.571 393.913 291.24 394.718 289.14C395.575 286.903 397.682 287.211 400.254 289.949ZM274.189 291.083C274.507 291.911 273.983 293.785 273.025 295.247L271.285 297.907L269.797 295.066C268.439 292.473 268.468 292.112 270.121 290.901C272.47 289.183 273.478 289.228 274.189 291.083ZM251.952 294.356L258.815 294.754L254.347 299.409C251.89 301.968 248.582 305.862 246.995 308.06C245.41 310.258 242.27 314.02 240.019 316.419L235.926 320.782L226.776 321.303C219.41 321.724 217.608 321.555 217.535 320.438C216.935 311.222 216.764 299.396 217.195 296.774L217.734 293.48L231.411 293.72C238.934 293.85 248.177 294.137 251.952 294.356ZM449.769 295.515C450.12 296.082 445.264 296.58 437.595 296.764C422.892 297.117 419.315 296.836 421.431 295.496C423.321 294.299 449.029 294.317 449.769 295.515ZM265.154 298.751C263.558 301.879 261.588 305.024 261.511 304.563C260.653 299.425 260.801 297.931 262.286 296.816C264.214 295.369 266.196 296.707 265.154 298.751ZM336.866 298.065C338.281 300.226 338.763 300.394 340.476 299.323C341.563 298.643 342.453 297.521 342.453 296.829C342.453 295.853 347.323 295.593 364.173 295.671C376.118 295.726 387.016 296.13 388.389 296.57C390.521 297.253 390.275 297.384 386.701 297.469C384.399 297.524 382.281 297.949 381.994 298.413C381.708 298.878 383.029 300.957 384.931 303.035C386.833 305.113 388.389 307.281 388.389 307.852C388.389 308.425 388.111 308.615 387.771 308.274C387.196 307.698 384.395 309.854 384.395 310.873C384.395 311.885 390.365 312.127 390.725 311.13C390.938 310.541 391.367 310.29 391.68 310.573C391.991 310.856 391.457 312.135 390.491 313.416C389.191 315.141 387.652 315.785 384.568 315.899C382.275 315.984 380.392 315.603 380.384 315.054C380.376 314.504 379.993 314.65 379.532 315.378C378.875 316.415 369.798 316.893 337.355 317.6C314.62 318.095 290.064 318.671 282.786 318.879C275.508 319.086 269.554 319.113 269.554 318.938C269.554 317.968 277.623 309.964 281.038 307.544C283.235 305.989 287.055 302.673 289.526 300.176L294.02 295.636L314.627 295.604L335.233 295.571L336.866 298.065ZM408.323 297.024C409.279 298.176 409.156 299.104 407.73 301.52C405.482 305.328 404.813 305.324 402.832 301.494C401.595 299.1 401.506 298.111 402.43 296.998C403.955 295.159 406.787 295.171 408.323 297.024ZM369.623 301.489C371.25 305.537 374.668 308.294 379.152 309.172C383.417 310.008 383.424 308.114 379.162 306.627C377.382 306.007 374.198 303.827 372.087 301.783L368.248 298.069L369.623 301.489ZM233.313 304.187C232.252 305.249 232.462 309.352 233.613 310.064C234.167 310.406 235.541 310.394 236.667 310.037C239.466 309.148 238.986 304.19 236.06 303.772C234.938 303.611 233.703 303.799 233.313 304.187ZM258.178 304.985C258.774 306.538 256.986 310.558 255.698 310.558C254.124 310.558 252.655 305.885 253.853 304.686C255.403 303.135 257.525 303.282 258.178 304.985ZM415.423 305.968C418.328 308.414 417.988 309.917 414.35 310.726C413.527 310.909 412.569 311.452 412.218 311.935C411.008 313.601 409.36 311.429 409.36 308.168C409.36 302.845 411.004 302.248 415.423 305.968ZM212.004 306.811C212.335 308.048 212.612 311.827 212.619 315.209L212.633 321.358L208.269 323.917C203.351 326.801 200.65 331.428 200.65 336.968C200.65 341.626 199.008 342.223 193.233 339.667L188.666 337.646V340.62C188.666 342.255 189.34 345.208 190.164 347.18C191.975 351.516 191.976 351.524 190.414 351.515C186.957 351.496 180.677 336.325 180.677 327.991C180.677 321.507 184.206 313.014 188.236 309.797C192.98 306.009 197.09 304.727 204.777 304.639C210.834 304.57 211.453 304.756 212.004 306.811ZM471.59 310.678C476.286 313.088 480.355 318.064 481.859 323.239C483.481 328.825 482.889 331.416 479.501 333.543C478 334.485 478.063 334.551 479.965 334.032C481.808 333.531 482.097 333.783 481.75 335.586C481.111 338.909 479.287 340.532 476.194 340.532C473.621 340.532 472.997 339.746 469.238 331.789C465.441 323.752 465.155 322.577 465.688 317.217C466.495 309.106 467.138 308.394 471.59 310.678ZM250.901 312.95C251.394 314.237 247.83 318.551 246.272 318.551C245.08 318.551 245.53 316.08 247.142 313.778C248.929 311.225 250.137 310.958 250.901 312.95ZM394.742 313.056C395.058 313.88 394.881 314.554 394.35 314.554C393.818 314.554 393.382 313.88 393.382 313.056C393.382 312.231 393.559 311.557 393.775 311.557C393.991 311.557 394.426 312.231 394.742 313.056ZM421.341 313.352L423.557 315.147L421.059 318.829C419.19 321.585 418.309 322.202 417.554 321.28C416.165 319.585 415.821 316.487 416.726 313.805C417.642 311.087 418.449 311.008 421.341 313.352ZM243.939 320.304C244.421 321.085 241.226 325.545 240.185 325.545C239.374 325.545 239.439 321.039 240.262 320.216C241.159 319.318 243.361 319.371 243.939 320.304ZM408.857 320.549C410.535 320.549 412.673 322.418 416.502 327.235C421.351 333.331 421.821 334.37 421.831 339.018C421.845 345.067 423.703 348.329 428.657 350.998C432.126 352.867 432.379 352.87 437.91 351.126C445.448 348.749 448.306 345.831 448.306 340.512C448.306 335.495 447.341 333.599 441.156 326.466C438.498 323.402 436.323 320.591 436.323 320.221C436.323 319.853 439.503 319.55 443.39 319.55C449.869 319.55 450.7 319.793 453.376 322.47C456.625 325.721 456.407 323.812 456.515 350.023C456.551 358.816 456.93 366.239 457.359 366.52C457.787 366.801 457.819 368.599 457.43 370.517L456.721 374.003L449.268 374.517C438.578 375.255 433.54 378.433 430.78 386.176C428.626 392.215 429.023 397.513 432.079 403.536C435.175 409.641 443.325 416.639 449.654 418.63C451.769 419.295 454.103 420.766 454.841 421.899C455.664 423.164 456.448 428.797 456.872 436.488C457.453 447.034 457.306 449.513 455.941 452.153C455.049 453.879 453.528 455.521 452.561 455.801C451.594 456.082 441.366 456.572 429.832 456.889C418.298 457.206 404.367 457.677 398.875 457.934C393.382 458.192 376.755 458.688 361.926 459.034C347.097 459.38 334.257 459.795 333.395 459.954C332.533 460.114 318.602 460.536 302.438 460.894C286.274 461.252 270.073 461.712 266.436 461.918C262.799 462.123 249.476 462.611 236.829 463.004L213.832 463.716L211.395 461.278C209.303 459.184 208.858 457.54 208.267 449.707C207.448 438.849 208.846 431.238 211.486 432.181C212.391 432.506 212.819 432.423 212.436 431.998C211.694 431.174 219.263 420.547 220.742 420.337C221.225 420.268 221.957 420.129 222.37 420.028C222.782 419.928 225.095 419.483 227.509 419.041C230.81 418.438 232.96 417.148 236.168 413.844C247.048 402.645 245.784 386.443 233.359 377.83C229.84 375.391 228.301 374.995 222.181 374.952C215.162 374.903 215.032 374.853 210.474 370.456L205.865 366.01L205.141 350.755C204.083 328.474 205.401 326.441 221.371 325.722C227.486 325.447 230.608 325.666 230.608 326.368C230.608 326.952 228.167 330.068 225.182 333.293C219.051 339.919 217.925 342.877 219.6 347.956C221.191 352.778 224.709 355.262 231.078 356.057C240.251 357.204 244.523 353.331 245.65 342.844C246.042 339.204 247.01 335.919 248.008 334.851C257.377 324.818 257.375 324.82 264.388 324.192C275.397 323.206 402.803 319.605 405.198 320.212C405.929 320.397 407.576 320.549 408.857 320.549ZM429.144 322.586C431.724 324.991 431.846 325.87 429.832 327.543C428.602 328.565 428.334 328.487 428.334 327.106C428.334 326.183 427.878 325.71 427.319 326.054C426.761 326.4 426.562 327.1 426.879 327.612C427.194 328.124 426.743 328.542 425.875 328.542C423.512 328.542 421.716 324.006 423.316 322.078C425.021 320.022 426.534 320.153 429.144 322.586ZM238.085 326.523C238.417 327.061 238.183 328.45 237.563 329.609C236.47 331.651 236.381 331.659 234.665 329.879C233.691 328.869 233.102 327.481 233.355 326.794C233.904 325.314 237.221 325.124 238.085 326.523ZM435.227 333.149C437.14 340.078 434.139 340.937 430.772 334.424C429.518 331.998 429.536 331.479 430.918 330.096C432.961 328.052 434.03 328.809 435.227 333.149ZM232.804 336.998C232.122 338.495 230.823 339.533 229.631 339.533C227.152 339.533 226.972 336.895 229.232 333.668C230.697 331.575 230.999 331.503 232.405 332.908C233.666 334.171 233.741 334.94 232.804 336.998ZM177.132 339.674C177.971 342.5 179.781 346.731 181.155 349.077L183.653 353.343L181.416 353.07C180.186 352.921 176.732 351.133 173.741 349.098C170.75 347.064 167.042 345.147 165.502 344.839C163.963 344.53 162.702 343.964 162.702 343.578C162.702 342.002 172.754 334.552 174.896 334.541C175.287 334.539 176.294 336.849 177.132 339.674ZM390.387 343.423C388.677 343.899 386.753 346.152 384.282 350.567C382.299 354.115 377.467 362.626 373.547 369.482C367.926 379.313 366.423 382.796 366.435 385.967C366.461 392.627 366.868 392.839 379.248 392.596C391.877 392.35 392.384 392.672 392.384 400.963V405.575L398.126 405.275L403.868 404.976L404.163 398.793C404.445 392.903 404.587 392.595 407.159 392.299C409.729 392.002 409.86 391.721 409.86 386.492C409.86 381.241 409.738 380.982 407.115 380.681C403.699 380.287 403.65 380.053 402.9 360.579C402.564 351.819 401.837 344.589 401.217 343.844C400.071 342.462 394.608 342.25 390.387 343.423ZM329.773 345.554C322.166 349.417 319.332 357.05 319.406 373.476C319.481 390.082 321.565 397.677 327.641 403.487C331.22 406.908 335.228 407.875 343.388 407.285C357.35 406.274 363.017 394.382 360.68 370.991C359.415 358.328 357.01 351.407 352.306 346.898C349.633 344.336 348.522 344.006 341.643 343.732C335.379 343.482 333.193 343.818 329.773 345.554ZM294.116 346.419C290.253 347.02 290.116 347.201 279.137 365.97C268.68 383.846 268.059 385.215 268.11 390.268C268.146 393.778 268.655 395.927 269.588 396.504C270.371 396.989 276.051 397.114 282.21 396.784L293.408 396.183L293.947 398.581C294.244 399.9 294.606 402.777 294.752 404.976C295.003 408.725 295.228 408.992 298.402 409.296C300.264 409.474 302.847 409.353 304.144 409.027C306.288 408.488 306.503 407.901 306.503 402.566C306.503 396.45 307.202 395.484 311.63 395.484C313.376 395.484 313.564 394.893 313.295 390.238C313.002 385.123 312.913 384.985 309.748 384.68C307.552 384.468 306.466 383.822 306.388 382.682C306.324 381.755 306.168 380.547 306.041 379.997C305.913 379.448 305.74 372.174 305.656 363.832C305.465 344.765 305.396 344.66 294.116 346.419ZM170.029 351.421C171.994 352.637 174.76 355.007 176.175 356.689C178.604 359.579 178.648 359.821 176.966 361.098C174.514 362.958 172.605 362.844 165.417 360.406C162.001 359.248 157.073 358.263 154.464 358.217C151.854 358.171 149.72 357.712 149.72 357.194C149.72 356.678 151.642 354.333 153.989 351.984C158.05 347.921 158.46 347.748 162.357 348.462C164.611 348.873 168.063 350.205 170.029 351.421ZM511.019 352.644C511.726 354.91 512.173 356.882 512.011 357.026C511.85 357.17 508.286 358.709 504.09 360.446C496.477 363.6 491.247 363.868 491.247 361.109C491.247 359.541 497.826 353.262 502.231 350.624C507.622 347.398 509.518 347.833 511.019 352.644ZM345.67 358.61C347.142 360.583 347.637 363.556 348.073 373.043C348.731 387.34 347.885 392.069 344.177 394.84C340.605 397.508 336.819 396.26 334.04 391.498C332.341 388.589 331.96 385.91 331.694 375.019C331.352 360.983 332.069 358.022 336.325 355.899C339.388 354.372 343.368 355.526 345.67 358.61ZM391.268 377.25L391.385 381.496H384.894C378.079 381.496 377.445 380.966 379.779 377.215C380.536 375.998 383.121 371.63 385.521 367.508L389.887 360.015L390.519 366.509C390.867 370.081 391.204 374.915 391.268 377.25ZM164.686 365.003C168.591 367.024 168.506 367.854 164.457 367.259C160.12 366.623 146.646 368.187 145.355 369.478C142.496 372.338 141.757 368.931 144.502 365.541C147.757 361.518 157.451 361.26 164.686 365.003ZM515.213 364.011C514.218 365.211 514.227 365.51 515.257 365.51C518.388 365.51 514.97 366.681 510.798 367.038C508.261 367.255 504.103 368.354 501.557 369.48C495.836 372.013 495.052 371.514 499.464 368.147C504.034 364.66 509.053 362.599 513.088 362.552C515.971 362.519 516.277 362.728 515.213 364.011ZM293.307 376.435L293.022 384.993L286.281 385.289C282.574 385.451 279.54 385.384 279.54 385.138C279.54 384.893 282.313 379.856 285.703 373.948C291.246 364.281 291.951 363.437 292.729 365.54C293.204 366.826 293.465 371.729 293.307 376.435ZM203.666 372.014C206.335 373.396 208.639 376.232 208.639 378.136C208.639 378.559 206.849 377.156 204.662 375.02C200.343 370.8 198.159 370.79 201.473 375.006C206.572 381.491 207.743 392.519 204.084 399.598C200.327 406.867 190.454 411.045 179.072 410.184C170.754 409.555 167.695 410.082 167.695 412.145C167.695 412.938 168.14 413.311 168.683 412.976C169.264 412.616 169.406 413.052 169.03 414.035C168.52 415.363 167.9 414.912 166.005 411.839C163.72 408.135 163.647 408.099 164.277 410.97C164.638 412.619 165.79 415.541 166.837 417.465L168.74 420.962L166.713 418.595C163.586 414.943 161.369 406.01 162.021 399.688C163.141 388.841 169.569 380.075 180.412 374.61C188.511 370.529 198.615 369.402 203.666 372.014ZM482.28 372.103C490.115 374.431 497.547 379.523 499.683 384.025C502.629 390.237 500.549 401.224 495.593 405.623C491.962 408.846 484.656 410.568 479.484 409.419C468.563 406.992 463.656 400.225 464.512 388.768C465.016 382.018 465.012 382.007 463.505 385.493C461.831 389.364 461.17 411.751 462.58 416.813C463.761 421.051 461.242 419.772 458.839 414.913C456.339 409.86 455.553 395.698 457.312 387.406C458.764 380.561 463.235 372.861 466.529 371.537C470.037 370.126 476.395 370.355 482.28 372.103ZM163.802 372.668C168.751 374.363 168.955 375.469 165.106 379.733C159.789 385.62 156.717 393.504 156.679 401.353C156.65 407.391 156.518 407.803 155.181 406.034C154.375 404.967 153.639 401.819 153.547 399.04C153.389 394.287 153.354 394.224 152.961 397.982C152.73 400.18 153.116 404.395 153.817 407.349C154.999 412.325 154.95 412.824 153.156 414.159C151.825 415.147 149.809 415.425 146.725 415.047C144.253 414.744 141.44 414.462 140.472 414.42C138.663 414.342 135.544 409.137 134.365 404.226C133.368 400.077 134.296 400.899 137.293 406.821C139.294 410.775 140.824 412.462 143.181 413.315C149.16 415.477 150.393 414.516 145.259 411.697C139.917 408.763 135.74 403.583 135.74 399.891C135.74 398.631 135.29 397.322 134.741 396.983C133.377 396.139 133.484 389.086 134.934 384.244C135.589 382.056 137.416 378.973 138.994 377.395C144.008 372.378 156.183 370.058 163.802 372.668ZM520.366 372.59C527.777 376.557 529.23 400.529 522.541 408.483C519.189 412.469 518.239 412.247 519.289 407.723C520.586 402.136 520.387 397.247 518.665 392.363C516.89 387.328 510.328 376.867 508.451 376.08C507.753 375.787 508.911 378.122 511.025 381.269C515.163 387.428 516.017 389.214 517.219 394.228C517.666 396.091 517.617 397.233 517.104 396.917C516.613 396.613 516.163 397.403 516.102 398.672C516.042 399.941 515.608 399.015 515.135 396.615C513.532 388.447 509.232 381.669 502.731 377.059C500.826 375.708 500.942 375.548 505.227 373.596C510.145 371.355 517.187 370.887 520.366 372.59ZM453.073 379.336C454.095 379.985 454.072 380.814 452.955 383.567C452.191 385.451 451.269 389.648 450.907 392.896C450.205 399.195 449.293 400.42 443.366 403.025C439.019 404.937 437.594 404.372 435.779 400.026C433.882 395.485 433.93 389.156 435.889 385.365C438.408 380.493 449.027 376.767 453.073 379.336ZM231.207 382.895C234.311 386 234.603 386.804 234.603 392.265C234.603 399.994 233.001 401.591 229.111 397.737C227.584 396.223 225.733 393.563 224.999 391.825C224.05 389.579 223.153 388.798 221.893 389.125C220.54 389.478 219.828 388.637 218.874 385.556C217.049 379.665 217.155 379.498 222.719 379.498C227.18 379.498 228.233 379.919 231.207 382.895ZM115.019 392.149C114.332 392.427 113.209 392.427 112.522 392.149C111.836 391.872 112.397 391.645 113.77 391.645C115.143 391.645 115.706 391.872 115.019 392.149ZM128.749 394.881C128.749 397.138 128.249 397.341 120.012 398.416C104.818 400.399 104.783 400.408 104.783 402.464C104.783 403.506 105.181 404.604 105.667 404.905C106.154 405.206 111.425 404.812 117.381 404.029C128.651 402.549 129.696 402.766 129.733 406.59C129.745 407.905 127.706 408.442 118.776 409.471C107.697 410.747 104.167 412.252 106.583 414.67C107.407 415.494 110.841 415.408 119.659 414.34L131.617 412.893L132.68 415.226C133.264 416.509 133.743 417.909 133.743 418.338C133.743 418.768 128.688 419.674 122.508 420.353C108.647 421.878 107.779 422.124 107.779 424.526C107.779 426.947 110.902 427.023 126.253 424.974C136.35 423.626 137.338 423.641 138.476 425.159C139.156 426.067 139.581 426.942 139.42 427.104C138.934 427.591 111.874 430.453 107.763 430.453H103.943L103.234 423.709C102.843 420 101.97 412.694 101.292 407.473C100.553 401.787 100.421 397.585 100.962 396.993C101.459 396.449 107.578 395.267 114.559 394.366C121.539 393.465 127.589 392.673 128.001 392.606C128.412 392.54 128.749 393.565 128.749 394.881ZM400.373 430.453C400.373 439.007 400.606 440.445 401.994 440.445C403.35 440.445 403.541 439.541 403.161 434.949C402.648 428.757 403.652 427.966 406.162 432.589C407.096 434.312 408.842 436.897 410.039 438.334C413.425 442.392 414.483 440.209 414.145 429.863C413.912 422.746 413.553 420.962 412.356 420.962C411.267 420.962 410.722 422.46 410.359 426.457L409.86 431.952L406.605 426.207C401.669 417.491 400.373 418.374 400.373 430.453ZM419.014 421.129C418.186 421.956 418.158 435.139 418.977 438.197C419.772 441.162 425.034 441.258 428.698 438.374C430.949 436.603 431.33 435.538 431.33 431.015C431.33 423.936 428.731 420.462 423.435 420.462C421.37 420.462 419.379 420.762 419.014 421.129ZM354.686 422.167C352.573 422.573 352.44 423.085 352.454 430.773C352.463 435.268 352.862 439.565 353.342 440.323C354.81 442.643 356.434 440.546 356.434 436.33C356.434 434.132 356.842 432.587 357.342 432.895C358.446 433.578 361.427 432.538 361.427 431.471C361.427 431.049 360.079 430.433 358.431 430.104C356.286 429.674 355.435 428.93 355.435 427.481C355.435 426.368 355.997 425.401 356.683 425.33C357.37 425.26 358.957 425.096 360.21 424.965C362.995 424.675 363.834 423.932 362.966 422.527C362.314 421.472 359.031 421.329 354.686 422.167ZM367.989 423.031C365.525 425.497 365.821 436.848 368.417 439.446C370.954 441.984 374.591 442.003 376.865 439.49C378.302 437.901 378.559 436.207 378.232 430.438C377.962 425.645 377.358 423.042 376.37 422.417C374.095 420.978 369.721 421.298 367.989 423.031ZM382.398 429C382.398 435.749 382.664 436.806 384.944 439.087C386.919 441.063 388.097 441.489 390.187 440.985C394.428 439.963 395.38 437.814 395.38 429.263C395.38 422.218 395.193 421.461 393.449 421.461C391.692 421.461 391.535 422.154 391.702 429.172C391.865 436.074 391.682 436.925 389.953 437.274C386.922 437.887 385.393 434.7 385.393 427.765C385.393 422.828 385.069 421.461 383.896 421.461C382.696 421.461 382.398 422.965 382.398 429ZM318.486 423.75C316.224 424.891 315.963 425.679 315.698 432.115C315.368 440.193 316.638 442.443 321.53 442.443C325.899 442.443 327.835 438.83 327.251 431.774C326.894 427.465 326.247 425.691 324.521 424.293C321.853 422.131 321.719 422.119 318.486 423.75ZM330.719 423.122C328.586 423.983 329.348 425.458 331.926 425.458C334.296 425.458 334.39 425.723 334.672 433.201C334.901 439.288 335.284 440.944 336.461 440.944C337.695 440.944 337.896 439.577 337.601 433.201L337.242 425.458H339.848C341.497 425.458 342.453 424.908 342.453 423.959C342.453 422.807 341.24 422.478 337.21 422.539C334.327 422.582 331.406 422.845 330.719 423.122ZM298.932 424.808C298.048 427.115 298.973 442.446 300.012 442.7C300.561 442.833 301.235 440.47 301.51 437.447L302.009 431.952L303.878 435.449C308.767 444.602 311.496 444.826 311.496 436.073C311.496 428.086 310.564 423.268 309.116 423.765C308.418 424.005 308.136 426.153 308.361 429.513C308.671 434.121 308.516 434.708 307.267 433.671C306.467 433.006 305.013 430.688 304.035 428.52C302.155 424.347 299.773 422.615 298.932 424.808ZM426.196 424.351C427.746 425.333 428.822 433.386 427.628 435.064C427.192 435.678 425.88 436.477 424.711 436.842C422.73 437.459 422.554 437.081 422.103 431.232C421.836 427.781 421.808 424.621 422.04 424.209C422.596 423.218 424.511 423.283 426.196 424.351ZM264.561 426.457C263.068 427.951 262.564 429.787 262.564 433.728C262.564 440.454 264.516 443.442 268.912 443.442C273.121 443.442 274.547 441.895 274.547 437.33C274.547 433.523 273.411 432.424 270.303 433.23C268.16 433.786 268.039 435.037 270.053 435.811C272.272 436.662 271.965 440.445 269.676 440.445C266.771 440.445 265.408 437.993 265.748 433.377C265.957 430.536 266.672 428.799 267.935 428.057C269.347 427.228 269.924 427.265 270.265 428.205C270.898 429.947 273.549 429.774 273.549 427.991C273.549 426.386 270.587 424.459 268.122 424.459C267.262 424.459 265.66 425.358 264.561 426.457ZM278.753 433.701L279.041 442.943L283.121 443.242C285.881 443.444 287.619 443.039 288.487 441.993C289.611 440.638 289.259 440.445 285.654 440.445C281.746 440.445 281.538 440.293 281.538 437.447C281.538 434.765 281.861 434.45 284.616 434.45C286.638 434.45 287.551 434.021 287.275 433.201C287.043 432.515 285.77 431.952 284.445 431.952C282.542 431.952 282.037 431.429 282.037 429.454C282.037 427.367 282.518 426.95 284.963 426.917C286.572 426.896 288.069 426.335 288.291 425.669C288.572 424.826 287.141 424.459 283.581 424.459H278.467L278.753 433.701ZM375.206 431.216C375.44 436.153 375.175 437.599 373.944 438.072C371.304 439.086 369.416 436.517 369.416 431.911C369.416 426.072 370.243 424.292 372.788 424.655C374.652 424.922 374.944 425.712 375.206 431.216ZM234.27 426.124C233.226 427.169 233.521 442.771 234.618 444.441C235.492 445.773 235.715 445.773 236.627 444.441C237.191 443.617 237.427 441.706 237.151 440.195C236.715 437.802 236.969 437.447 239.121 437.447C244.316 437.447 247.552 430.563 244.019 427.027C242.465 425.473 235.56 424.833 234.27 426.124ZM251.288 426.15C250.654 427.217 246.586 442.186 246.586 443.453C246.586 445.556 249.398 444.309 249.992 441.943C250.487 439.972 251.252 439.446 253.62 439.446C255.903 439.446 256.849 440.044 257.571 441.943C258.553 444.53 260.59 445.387 260.537 443.192C260.52 442.506 259.495 438.347 258.259 433.95C256.427 427.438 255.617 425.9 253.889 425.651C252.722 425.482 251.552 425.707 251.288 426.15ZM324.03 430.943C324.901 436.764 323.902 439.646 321.147 439.254C319.251 438.984 318.949 438.221 318.681 433.044C318.483 429.198 318.8 426.881 319.59 426.392C321.826 425.009 323.378 426.601 324.03 430.943ZM241.946 429.934C242.72 431.952 240.148 434.876 238.243 434.144C236.323 433.407 236.02 428.824 237.848 428.186C239.561 427.588 241.337 428.345 241.946 429.934ZM255.574 435.564C255.574 436.051 254.675 436.448 253.576 436.448C251.478 436.448 251.106 434.822 252.237 430.595C252.848 428.31 252.908 428.336 254.22 431.46C254.964 433.23 255.574 435.077 255.574 435.564ZM145.969 435.699C147.388 436.791 147.518 438.82 147.007 451.805L146.422 466.662L140.873 466.009C130.36 464.773 130.862 465.243 130.536 456.326C130.16 446.014 128.34 445.559 127.959 455.681C127.677 463.16 127.583 463.425 125.212 463.425H122.758V449.503V435.582L125.504 435.165C132.02 434.178 144.412 434.501 145.969 435.699ZM119.762 449.066V462.683L114.576 461.995C111.725 461.616 109.029 461.082 108.584 460.808C108.141 460.534 107.779 455.188 107.779 448.928C107.779 436.019 108.058 435.533 115.518 435.479L119.762 435.449V449.066ZM157.313 443.035C156.977 443.911 156.445 445.651 156.131 446.902C155.627 448.913 155.28 449.047 153.14 448.058C151.776 447.428 150.937 446.359 151.218 445.608C151.493 444.877 151.718 443.898 151.718 443.434C151.718 442.969 152.504 442.384 153.465 442.132C157 441.208 157.93 441.427 157.313 443.035ZM166.644 447.189C172.336 450.394 171.754 456.426 165.39 460.182L161.903 462.241V453.84C161.903 449.22 162.272 445.44 162.721 445.44C163.171 445.44 164.936 446.228 166.644 447.189ZM180.511 450.528L183.638 451.619L183.072 460.769C182.762 465.802 182.358 470.418 182.177 471.026C181.94 471.825 179.529 471.766 173.523 470.816C168.945 470.093 161.941 468.992 157.959 468.37L150.719 467.24V458.839C150.719 451.273 151.552 448.741 153.175 451.369C153.492 451.883 155.316 452.049 157.228 451.738C161.197 451.093 161.528 451.94 159.125 456.59C157.592 459.556 157.629 459.735 160.368 462.595C162.988 465.33 163.552 465.496 168.19 464.881C170.939 464.518 173.615 463.816 174.137 463.323C174.658 462.829 175.957 462.426 177.022 462.426C178.746 462.426 178.896 461.905 178.391 457.68C178.079 455.069 177.519 452.146 177.146 451.185C176.349 449.127 176.443 449.109 180.511 450.528ZM576.889 456.262C577.878 456.89 577.611 459.443 575.641 468.177C574.261 474.29 573.133 479.544 573.133 479.85C573.133 480.158 572.182 480.41 571.019 480.41C569.311 480.41 569.024 479.978 569.518 478.162C569.855 476.925 571.108 471.305 572.302 465.673C573.497 460.041 574.734 455.439 575.051 455.447C575.37 455.456 576.197 455.822 576.889 456.262ZM133.838 470.419C135.562 470.419 135.644 471.213 135.098 482.658C134.381 497.647 133.116 500.923 128.418 499.964C126.678 499.608 121.771 499.043 117.515 498.708C112.791 498.335 109.776 497.659 109.776 496.969C109.776 495.328 112.475 491.529 117.281 486.405C119.601 483.932 122.021 480.335 122.659 478.412C125.421 470.081 126.051 469.248 129.124 469.853C130.703 470.164 132.825 470.419 133.838 470.419ZM166.164 475.445C176.58 477.131 185.261 478.667 185.454 478.861C185.648 479.054 185.483 483.617 185.087 489C184.5 497.01 183.989 499.169 182.274 500.884C181.121 502.038 180.178 504.084 180.178 505.433C180.178 508.268 178.952 508.376 162.952 506.952L153.715 506.129V508.671C153.715 511.113 154.016 511.24 161.454 511.927C165.71 512.32 171.216 512.936 173.687 513.295C177.954 513.916 178.165 514.097 177.863 516.912C177.689 518.542 177.239 520.145 176.865 520.475C176.49 520.806 171.465 520.503 165.698 519.803C149.946 517.89 147.723 517.965 147.723 520.406C147.723 523.039 147.967 523.108 162.991 524.733C170.015 525.493 175.929 526.285 176.132 526.492C176.334 526.7 176.254 529.926 175.952 533.662C175.412 540.351 175.364 540.447 172.797 539.925C167.465 538.84 148.618 537.306 147.688 537.881C145.965 538.948 146.671 541.378 148.971 542.295C150.208 542.788 156.498 543.731 162.952 544.391L174.686 545.592V549.107V552.622L169.443 552.008C166.56 551.67 160.269 551.092 155.462 550.724C147.114 550.084 146.725 550.145 146.725 552.092C146.725 554.671 147.366 554.896 159.054 556.427C166.178 557.359 168.694 558.062 168.694 559.122C168.694 560.318 167.08 560.438 158.958 559.846C153.602 559.455 147.424 558.838 145.227 558.473L141.232 557.811L140.951 546.021C140.699 535.499 140.483 534.264 138.953 534.558C137.473 534.841 137.199 536.43 136.955 546.115C136.73 555.074 136.383 557.343 135.239 557.343C134.091 557.343 133.75 555.007 133.525 545.603C133.293 535.958 132.976 533.863 131.745 533.863C130.519 533.863 130.196 535.912 129.965 545.17C129.712 555.242 129.494 556.439 127.968 556.125C126.55 555.833 126.309 554.827 126.574 550.313C127.084 541.669 125.84 532.365 124.176 532.365C123.033 532.365 122.758 534.594 122.758 543.855V555.345H119.238C114.51 555.345 114.096 553.961 113.619 536.611L113.229 522.373L121.738 522.364C129.348 522.355 130.797 522.04 135.444 519.372C141.51 515.892 145.216 510.316 146.268 503.085C146.96 498.336 146.917 498.236 142.245 493.757L137.522 489.23L138.205 482.572C139.352 471.378 139.441 471.202 143.604 471.832C145.595 472.134 155.747 473.761 166.164 475.445ZM433.659 472.466L443.812 472.514L435.955 475.435C427.447 478.598 426.562 478.495 422.342 473.848C420.368 471.673 420.228 471.236 421.675 471.757C422.681 472.12 428.073 472.439 433.659 472.466ZM119.668 473.991C119.892 474.213 119.272 476.175 118.292 478.351C116.682 481.922 116.228 482.25 113.623 481.73C111.245 481.253 110.848 481.437 111.363 482.779C111.878 484.123 111.26 484.406 107.826 484.406C105.143 484.406 103.899 484.783 104.322 485.468C104.683 486.053 104.191 487.402 103.228 488.466C101.597 490.268 101.59 490.526 103.13 492.229C104.349 493.576 104.783 495.963 104.783 501.329C104.783 508.365 104.71 508.584 102.536 508.064C101.3 507.768 96.0199 507.214 90.8021 506.832C85.5844 506.45 80.7541 505.689 80.067 505.141C78.7229 504.068 78.2156 477.152 79.4768 473.862C80.081 472.286 81.7347 472.205 99.6988 472.866C110.459 473.263 119.445 473.77 119.668 473.991ZM422.8 475.814C426.498 478.636 427.319 480.41 424.926 480.41C422.545 480.41 411.903 491.697 408.375 497.965C406.54 501.223 404.952 504.012 404.846 504.163C404.74 504.313 403.956 504.168 403.104 503.841C401.151 503.091 399.47 499.078 398.476 492.791L397.703 487.903L396.908 496.181C395.987 505.782 395.138 506.286 395.193 497.199C395.308 478.397 410.63 466.527 422.8 475.814ZM270.721 479.53C274.238 483.734 275.312 487.296 273.434 488.519C269.268 491.231 267.874 490.686 261.228 483.74C253.897 476.08 254.1 475.161 262.982 475.8C267.127 476.098 268.337 476.681 270.721 479.53ZM225.787 477.542C233.139 479.12 239.318 481.94 244.205 485.946C248.162 489.19 248.338 489.559 247.561 493.005C247.11 495.004 246.368 497.013 245.912 497.47C245.456 497.927 242.941 496.966 240.324 495.337C229.517 488.607 213.735 485.687 202.397 488.322C199.582 488.975 198.652 488.878 198.652 487.925C198.652 485.934 207.22 478.547 210.327 477.858C211.87 477.517 213.582 477.088 214.131 476.904C216.218 476.208 220.713 476.454 225.787 477.542ZM458.542 478.085C459.936 478.912 459.301 480.41 457.543 480.44C455.879 480.469 455.879 480.519 457.543 481.489C458.504 482.049 459.291 483.384 459.291 484.456C459.291 485.986 458.593 486.408 456.045 486.419C454.26 486.426 451.837 486.69 450.662 487.006C449.016 487.448 448.103 486.869 446.701 484.494C445.663 482.736 444.048 481.409 442.945 481.409C441.043 481.409 441.043 481.439 442.913 483.158C448.13 487.953 448.079 488.179 441.003 491.388C437.396 493.024 432.02 496.34 429.055 498.757C423.218 503.513 421.102 503.548 419.939 498.907C419.592 497.526 418.95 496.396 418.513 496.396C417.419 496.396 413.355 503.786 413.355 505.774C413.355 506.661 412.905 507.386 412.356 507.386C409.059 507.386 414.766 494.932 420.853 488.841C424.881 484.812 433.418 479.985 438.32 478.967C439.693 478.682 442.389 478.024 444.312 477.504C447.504 476.641 456.744 477.019 458.542 478.085ZM87.8063 479.346C87.8063 482.291 89.7106 486.669 91.8656 488.678C92.9282 489.669 93.798 491.585 93.798 492.938C93.798 495.788 95.2659 496.166 96.66 493.674C97.8184 491.603 96.4992 488.745 93.1768 486.131C91.9116 485.135 90.5854 482.766 90.2289 480.866C89.5399 477.192 87.8063 476.104 87.8063 479.346ZM253.714 482.055C255.61 484.075 255.768 484.667 254.604 485.388C253.663 485.97 252.163 485.543 250.136 484.119C245.051 480.545 244.334 479.612 246.338 479.182C249.112 478.587 251.235 479.415 253.714 482.055ZM391.919 483.986C391.084 485.591 390.397 487.665 390.393 488.594C390.39 489.523 389.937 490.561 389.388 490.901C388.137 491.674 388.088 488.252 389.307 485.203C389.811 483.941 390.5 482.045 390.837 480.992C391.244 479.719 391.785 479.411 392.446 480.072C393.107 480.734 392.93 482.047 391.919 483.986ZM500.931 494.014C505.979 496.911 506.646 497.842 505.312 500.135C504.408 501.686 504.286 501.699 504.259 500.251C504.243 499.349 503.217 498.342 501.982 498.015C500.746 497.687 497.937 495.817 495.74 493.86C492.28 490.779 492.08 490.39 494.242 490.956C495.616 491.314 498.625 492.69 500.931 494.014ZM227.113 493.811C232.977 495.592 242.68 501.496 240.802 502.142C239.911 502.448 239.823 502.96 240.517 503.798C241.573 505.069 243.768 536.458 243.46 545.875L243.282 551.348H214.535C196.448 551.348 185.56 551.719 185.171 552.347C184.832 552.897 183.458 553.346 182.116 553.346C179.913 553.346 179.679 552.937 179.682 549.1C179.688 541.737 181.739 522.172 183.316 514.439C186.128 500.644 191.204 494.496 201.632 492.253C206.724 491.158 221.309 492.05 227.113 493.811ZM473.303 493.478C475.242 493.961 477.713 495.073 478.795 495.947C480.672 497.466 480.613 497.514 477.503 496.989C474.355 496.459 474.269 496.534 475.006 499.166C475.425 500.665 475.755 509.198 475.739 518.129C475.711 533.497 475.591 534.484 473.516 536.56L471.323 538.754L468.803 536.384C467.416 535.081 466.281 534.516 466.281 535.129C466.281 535.742 466.731 536.521 467.28 536.861C467.829 537.2 468.278 538.298 468.278 539.301C468.278 540.304 469.194 541.363 470.313 541.656C473.389 542.461 472.766 549.212 469.5 550.454C468.208 550.945 458.445 551.348 447.807 551.348C437.169 551.348 427.315 551.785 425.911 552.319C420.752 554.281 420.106 553.048 420.88 542.717C421.266 537.573 421.35 533.364 421.066 533.364C420.783 533.364 420.02 537.102 419.372 541.672C417.402 555.562 414.735 556.987 416.366 543.278C419.586 516.239 426.134 503.062 439.66 496.399C448.744 491.925 462.344 490.744 473.303 493.478ZM563.519 497.101C563.907 497.49 559 499.482 552.614 501.53L541.005 505.253L537.846 503.326L534.686 501.399L537.682 501.316C539.33 501.27 544.947 500.203 550.165 498.944C560.978 496.334 562.537 496.119 563.519 497.101ZM511.71 501.142C510.251 504.679 509.267 510.012 509.176 514.88C509.029 522.644 507.379 517.342 507.294 508.835C507.224 501.795 508.174 499.393 511.026 499.393C511.973 499.393 512.197 499.963 511.71 501.142ZM113.126 506.637C113.476 509.523 114.041 513.231 114.382 514.88L115.004 517.877L112.898 515.86C110.147 513.225 108.588 501.392 110.992 501.392C112.056 501.392 112.677 502.918 113.126 506.637ZM379.795 504.709C381.764 507.347 381.917 508.965 382.202 530.083C382.37 542.489 382.139 553.006 381.691 553.454C381.242 553.903 372.976 554.579 363.321 554.956L345.767 555.641L345.115 547.25C344.756 542.635 344.459 530.879 344.456 521.124L344.45 503.39L349.194 503.267C351.803 503.2 358.656 502.821 364.423 502.427C377.908 501.503 377.339 501.419 379.795 504.709ZM519.597 502.156C517.188 503.751 515.355 509.328 514.674 517.139C514.282 521.645 513.569 525.089 513.089 524.792C512.61 524.497 512.217 520.009 512.217 514.821C512.217 506.72 512.499 505.106 514.215 503.39C515.313 502.291 517.224 501.399 518.459 501.407C519.76 501.416 520.239 501.731 519.597 502.156ZM418.679 504.203C420.202 505.888 420.185 506.277 418.442 509.699C416.887 512.752 416.438 513.083 415.826 511.634C414.802 509.206 414.298 505.134 414.839 503.64C415.469 501.893 416.761 502.083 418.679 504.203ZM532.689 503.324C528.929 504.841 523.635 505.668 524.7 504.571C525.249 504.006 527.047 503.352 528.695 503.117C533.637 502.413 534.796 502.473 532.689 503.324ZM339.912 504.639C340.126 505.326 340.596 516.999 340.952 530.578L341.602 555.27L339.281 555.82C334.145 557.039 305.999 557.921 305.27 556.886C304.866 556.313 304.53 551.776 304.521 546.802C304.507 538.233 303.676 535.362 301.211 535.362C300.691 535.362 300.616 540.19 301.031 546.852C301.735 558.118 301.709 558.342 299.632 558.342C297.589 558.342 297.515 557.91 297.515 545.912C297.515 538.703 297.096 533.222 296.517 532.864C295.262 532.088 295.202 529.367 296.44 529.367C296.947 529.367 298.693 530.487 300.318 531.856C310.321 540.277 326.769 535.127 330.585 522.379C331.776 518.405 331.439 516.317 327.808 505.138C327.309 503.601 327.983 503.39 333.381 503.39C337.417 503.39 339.654 503.817 339.912 504.639ZM434.326 504.274C434.326 506.401 436.922 511.023 437.927 510.685C438.679 510.432 438.519 509.217 437.427 506.884C435.915 503.653 434.326 502.315 434.326 504.274ZM538.181 506.227C538.181 507.846 530.578 509.7 528.569 508.571C527.027 507.706 526.961 507.431 528.195 507.013C532.822 505.443 538.181 505.021 538.181 506.227ZM524.684 508.361C525.342 509.426 525.573 538.318 524.929 538.963C524.63 539.262 523.065 538.822 521.449 537.986C518.691 536.559 518.472 535.996 517.861 528.77C516.365 511.062 517.21 506.282 521.683 507.138C523.084 507.405 524.435 507.956 524.684 508.361ZM411.357 516.545C411.357 522.738 410.864 522.585 410.019 516.129C409.646 513.27 409.788 511.383 410.378 511.383C410.917 511.383 411.357 513.706 411.357 516.545ZM67.9169 514.369C69.254 514.378 69.3838 515.216 68.7597 519.82C67.8549 526.489 67.3446 527.369 64.3867 527.369C63.1045 527.369 61.7973 528.043 61.4808 528.868C61.1652 529.692 60.2185 530.366 59.3767 530.366C58.1344 530.366 57.8478 528.902 57.8478 522.54C57.8478 518.235 58.1854 514.374 58.5968 513.96C59.0082 513.545 60.9186 513.465 62.8409 513.782C64.7632 514.099 67.0471 514.363 67.9169 514.369ZM82.8132 515.156C82.8132 515.467 82.0692 516.543 81.1605 517.549C78.4213 520.577 81.7736 519.789 85.0741 516.628C87.7693 514.047 88.4853 513.881 96.9426 513.881C104.791 513.881 106.131 514.136 107.404 515.879C109.142 518.257 110.256 522.226 109.42 523.062C109.094 523.389 102.509 523.079 94.7876 522.372C82.2709 521.227 80.5104 520.835 78.5361 518.75C75.6501 515.703 75.1139 515.781 74.328 519.365C73.2604 524.227 71.6227 524.139 71.9553 519.237C72.12 516.801 72.831 514.649 73.567 514.356C75.1848 513.714 82.8132 514.373 82.8132 515.156ZM224.117 515.379C223.778 515.929 223.949 516.379 224.499 516.379C225.048 516.379 225.775 515.929 226.114 515.379C226.454 514.83 226.282 514.38 225.733 514.38C225.184 514.38 224.457 514.83 224.117 515.379ZM446.309 516.379C446.309 516.928 446.785 517.378 447.366 517.378C447.948 517.378 448.146 516.928 447.807 516.379C447.467 515.829 446.992 515.379 446.749 515.379C446.507 515.379 446.309 515.829 446.309 516.379ZM450.892 519.875C451.278 521.414 451.093 522.373 450.411 522.373C449.803 522.373 449.319 523.161 449.335 524.122C449.364 525.753 449.436 525.749 450.414 524.067C451.296 522.55 451.718 522.47 453.068 523.567C454.468 524.705 454.566 524.617 453.841 522.873C453.384 521.774 452.98 520.087 452.941 519.126C452.903 518.165 452.285 517.378 451.569 517.378C450.677 517.378 450.463 518.167 450.892 519.875ZM414.016 523.622C413.739 524.31 413.512 523.747 413.512 522.373C413.512 521 413.739 520.438 414.016 521.124C414.293 521.812 414.293 522.936 414.016 523.622ZM216.972 524.914C216.647 525.762 216.651 526.725 216.979 527.055C217.691 527.767 220.622 525.509 220.622 524.25C220.622 522.741 217.594 523.294 216.972 524.914ZM96.0448 526.083C107.367 527.505 109.776 528.092 109.776 529.436C109.776 530.935 108.959 530.926 99.54 529.332C84.8164 526.839 76.8215 526.039 76.8215 527.057C76.8215 527.543 80.9777 528.743 86.0587 529.725C106.305 533.635 109.776 534.549 109.776 535.961C109.776 537.747 110.416 537.801 95.7932 534.792C76.429 530.808 74.283 530.55 71.7435 531.91C69.0623 533.346 67.2668 532.857 90.3028 536.959C107.423 540.006 109.776 540.715 109.776 542.83C109.776 544.755 109.911 544.761 98.1519 542.259C70.4963 536.376 65.2316 535.42 63.511 535.965C59.8401 537.131 63.5879 538.264 81.3153 541.346C110.405 546.403 109.776 546.246 109.776 548.422C109.776 549.482 109.337 550.349 108.801 550.349C107.733 550.349 79.0374 544.955 71.8284 543.399C59.0581 540.642 54.7102 540.1 53.6756 541.135C52.3245 542.487 55.6119 543.409 76.3222 547.489C85.11 549.221 92.7075 551.003 93.2068 551.45C93.738 551.927 93.5413 552.952 92.7304 553.929C91.7728 555.083 91.1486 560.02 90.6963 570.003C90.3377 577.928 89.7945 584.662 89.4889 584.967C88.4484 586.009 61.7244 579.271 51.5306 575.398L41.3707 571.537L41.0451 565.189C40.8664 561.698 41.0172 555.16 41.3797 550.66L42.0387 542.478L45.2004 541.784C48.1433 541.138 52.4523 538.873 70.3305 528.574C74.1752 526.359 78.4443 524.504 79.8173 524.453C81.1904 524.401 88.4933 525.136 96.0448 526.083ZM456.09 529.997L455.667 533.624L457.508 531.348L459.349 529.073L462.066 531.459C463.758 532.944 463.485 532.435 461.342 530.108C459.449 528.051 457.588 526.37 457.207 526.37C456.825 526.37 456.323 528.001 456.09 529.997ZM223.088 528.418C222.139 529.955 223.438 530.946 224.72 529.663C225.437 528.946 225.454 528.387 224.772 527.965C224.213 527.62 223.455 527.824 223.088 528.418ZM357.432 543.796C357.432 546.85 357.882 549.35 358.431 549.35C358.98 549.35 359.429 547.129 359.429 544.413C359.429 541.698 358.98 539.199 358.431 538.859C357.811 538.475 357.432 540.348 357.432 543.796ZM465.782 543.355C466.121 543.905 466.822 544.354 467.339 544.354C467.856 544.354 468.278 543.905 468.278 543.355C468.278 542.806 467.577 542.356 466.722 542.356C465.866 542.356 465.442 542.806 465.782 543.355ZM597.552 544.278C598.137 545.225 592.912 547.392 580.623 551.299C568.515 555.148 560.151 558.483 560.151 559.46C560.151 559.979 560.804 560.654 561.602 560.96C563.188 561.569 602.799 548.633 603.671 547.223C603.966 546.744 605.05 546.352 606.077 546.352C608.21 546.352 619.616 561.242 618.352 562.375C617.923 562.76 612.404 564.759 606.087 566.82C591.97 571.424 583.729 574.297 570.053 579.387C564.239 581.55 559 583.32 558.407 583.32C557.466 583.32 545.958 570.484 537.885 560.428L535.091 556.949L537.679 555.591C540.603 554.06 539.551 553.21 549.154 564.847C553.793 570.466 555.021 571.413 557.143 570.999C560.388 570.367 602.145 556.766 606.745 554.843C610.638 553.215 610.797 550.695 606.981 551.106C605.666 551.248 593.804 554.92 580.623 559.265L556.656 567.166L552.461 562.504L548.266 557.842L556.954 555.555C561.734 554.297 572.384 551.083 580.623 548.414C597.887 542.819 596.813 543.082 597.552 544.278ZM104.062 552.893C108.927 553.595 112.07 556.425 109.647 557.922C108.894 558.388 108.708 560.698 109.093 564.819C109.725 571.589 109.209 574.947 107.43 575.633C106.603 575.953 106.373 573.695 106.607 567.586C106.803 562.491 106.51 558.672 105.875 558.036C105.292 557.453 104.621 557.172 104.382 557.411C104.144 557.65 103.652 562.564 103.29 568.331C102.757 576.845 102.271 579.155 100.711 580.609C99.6558 581.594 98.791 582.676 98.791 583.014C98.791 583.353 99.6898 582.816 100.788 581.822C102.734 580.06 102.783 580.076 102.716 582.416C102.642 584.943 100.979 589.645 100.858 587.669C100.819 587.023 99.3702 586.587 97.5428 586.67L94.2973 586.817L93.9757 578.325C93.7989 573.654 93.9557 565.636 94.3242 560.507C94.9643 551.619 95.0962 551.205 97.1433 551.693C98.3237 551.974 101.437 552.514 104.062 552.893ZM83.8118 555.903C83.8118 556.759 84.2612 557.183 84.8104 556.843C85.3597 556.504 85.809 555.803 85.809 555.286C85.809 554.768 85.3597 554.345 84.8104 554.345C84.2612 554.345 83.8118 555.047 83.8118 555.903ZM222.307 557.129C222.96 557.544 223.802 561.291 224.179 565.457L224.865 573.029L221.62 573.679C217.125 574.578 211.399 574.465 209.789 573.444C207.98 572.297 212.053 568.414 215.879 567.64C218.469 567.116 219.804 565.336 217.606 565.336C216.012 565.336 208.639 570.247 208.639 571.308C208.639 571.831 207.736 572.743 206.632 573.334C204.902 574.26 204.489 574.024 203.636 571.62C203.091 570.088 202.157 567.987 201.557 566.952C200.695 565.464 200.909 564.477 202.586 562.207L204.704 559.341H202.655C199.46 559.341 198.069 563.446 199.569 568.453C200.322 570.968 200.445 572.934 199.883 573.497C198.29 575.09 175.289 578.2 174.451 576.935C174.048 576.325 173.711 572.397 173.702 568.204C173.687 560.674 173.723 560.568 176.68 559.342C178.327 558.66 183.157 557.769 187.415 557.363C197.971 556.355 220.849 556.201 222.307 557.129ZM240.594 557.487C244.164 557.519 248.341 557.763 249.875 558.032C252.638 558.515 252.662 558.585 252.372 565.175L252.078 571.83L240.844 572.113C234.469 572.273 229.61 572.813 229.61 573.362C229.61 573.893 229.16 574.328 228.611 574.328C228.062 574.328 227.609 572.417 227.606 570.082C227.603 567.747 227.132 564.143 226.558 562.076C225.188 557.141 225.988 556.063 230.461 556.815C232.465 557.153 237.024 557.455 240.594 557.487ZM483.383 558.092C486.572 558.802 486.457 558.869 481.26 559.341L475.768 559.841L475.474 567.139L475.179 574.438L462.24 574.133C455.124 573.965 449.189 574.113 449.053 574.46C448.917 574.808 440.267 575.637 429.832 576.302C419.396 576.968 410.409 577.583 409.86 577.669C408.443 577.891 408.82 562.482 410.268 561.016C410.906 560.369 415.344 559.338 420.13 558.724C430.083 557.446 478.31 556.964 483.383 558.092ZM584.617 565.992C570.337 570.702 558.455 574.74 558.214 574.966C557.971 575.19 558.42 576.02 559.212 576.807C560.462 578.052 562.754 577.545 576.676 572.952C585.49 570.044 596.949 566.387 602.141 564.826C613.098 561.531 614.604 560.681 612.968 558.709C612.345 557.957 611.553 557.362 611.208 557.386C610.863 557.41 598.897 561.282 584.617 565.992ZM542.967 570.082C548.401 576.538 553.592 582.439 554.502 583.192C555.413 583.947 556.157 585.36 556.157 586.333C556.157 589.576 553.682 589.107 551.355 585.424C550.092 583.423 547.474 580.7 545.537 579.373C536.673 573.295 528.253 561.614 530.859 559.008C532.235 557.631 533.327 558.63 542.967 570.082ZM420.424 563.92C420.472 565.084 420.708 565.321 421.027 564.525C421.316 563.803 421.28 562.941 420.948 562.609C420.617 562.278 420.381 562.867 420.424 563.92ZM354.221 564.675L356.502 565.942L353.577 569.981C350.74 573.899 350.441 574.038 343.585 574.614C337.26 575.144 328.703 577.889 329.838 579.024C330.078 579.265 332.131 578.906 334.399 578.226C338.95 576.862 339.953 577.362 340.977 581.509L341.639 584.194L335.805 583.748L329.97 583.302L334.643 585.06C340.566 587.288 340.658 587.402 338.64 590.055C337.012 592.198 336.78 592.223 330.969 590.881C327.674 590.119 316.214 588.072 305.504 586.332C294.794 584.591 285.881 582.752 285.699 582.244C285.515 581.737 284.674 581.322 283.828 581.322C282.551 581.322 282.509 581.059 283.58 579.768C285.27 577.731 289.075 575.632 288.039 577.308C286.587 579.66 293.529 575.244 295.132 572.796C296.028 571.428 297.774 570.054 299.012 569.743C300.306 569.417 301.209 568.468 301.136 567.507C301.027 566.057 302.733 565.74 313.976 565.114C321.107 564.718 327.623 564.208 328.455 563.981C332.254 562.948 352.072 563.481 354.221 564.675ZM639.291 563.999C638.605 564.277 637.482 564.277 636.795 563.999C636.109 563.722 636.67 563.495 638.043 563.495C639.416 563.495 639.978 563.722 639.291 563.999ZM403.179 569.083C402.928 570.38 398.232 572.376 384.945 576.826C368.052 582.484 364.197 584.527 367.801 585.912C368.976 586.363 390.067 580.009 402.12 575.573C402.905 575.284 403.369 576.027 403.369 577.574C403.369 579.867 402.275 580.397 387.391 585.318C376.967 588.766 371.413 591.083 371.413 591.988C371.413 594.789 374.524 594.338 389.38 589.383C397.728 586.598 404.965 584.571 405.462 584.878C408.451 586.727 405.543 588.485 393.133 592.326C385.855 594.579 377.911 597.071 375.479 597.865C373.047 598.658 370.933 599.306 370.781 599.306C369.766 599.306 362.294 585.011 362.13 582.758C361.928 579.992 362.09 579.913 380.9 573.693C401.615 566.841 403.693 566.411 403.179 569.083ZM36.3347 573.398C35.396 574.919 33.895 574.454 34.5162 572.835C34.8317 572.014 35.4988 571.595 35.9991 571.905C36.4994 572.215 36.6512 572.886 36.3347 573.398ZM525.699 576.326C525.359 576.876 524.21 577.325 523.143 577.325C522.077 577.325 521.205 576.876 521.205 576.326C521.205 575.777 522.355 575.327 523.76 575.327C525.209 575.327 526.049 575.76 525.699 576.326ZM42.3693 577.288C44.2028 578.043 44.2227 578.169 42.6189 578.824C40.444 579.711 37.532 578.689 38.3708 577.332C39.0888 576.168 39.6331 576.162 42.3693 577.288ZM108.777 583.32C108.777 588.13 108.464 589.315 107.191 589.315C105.888 589.315 105.723 588.559 106.266 585.069C107.743 575.566 108.777 574.846 108.777 583.32ZM347.414 578.574C347.397 579.262 346.695 580.722 345.854 581.822C344.344 583.796 344.309 583.797 342.89 581.88C340.624 578.818 341.134 577.325 344.45 577.325C346.198 577.325 347.433 577.846 347.414 578.574ZM39.6141 580.26L41.853 582.128L39.1148 584.992C37.6099 586.567 33.5016 590.32 29.9865 593.331C25.3589 597.296 23.4585 598.409 23.098 597.365C22.4609 595.515 18.7151 591.759 16.8477 591.098C16.0548 590.818 15.6314 590.349 15.906 590.058C17.0684 588.826 35.4109 578.328 36.3486 578.358C36.9139 578.377 38.3838 579.232 39.6141 580.26ZM224.989 580.536C229.888 580.277 231.171 581.723 232.953 589.514C233.871 593.525 234.729 598.365 234.861 600.268L235.102 603.728L225.116 605.023C219.623 605.735 211.085 606.201 206.142 606.059L197.155 605.801L197.365 599.858C197.604 593.104 199.234 588.316 201.293 588.316C202.432 588.316 202.389 587.851 201.062 585.826C197.665 580.639 201.304 579.108 214.63 580.119C218.75 580.432 223.411 580.62 224.989 580.536ZM198.089 584.412C198.026 587.728 195.309 599.452 193.517 604.14C192.696 606.287 192.141 606.448 186.649 606.138C183.303 605.95 180.674 606.218 180.675 606.75C180.676 607.272 180.173 607.194 179.557 606.578C178.941 605.961 177.748 605.722 176.907 606.044C174.416 607.001 176.237 598.805 180.065 591.818C183.441 585.659 187.097 582.683 193 581.285C197.529 580.214 198.161 580.602 198.089 584.412ZM453.378 581.572C453.441 582.571 453.558 582.571 453.96 581.572C454.628 579.916 467.431 579.874 469.077 581.522C470.009 582.454 470.276 582.454 470.276 581.522C470.276 580.862 470.725 580.323 471.274 580.323C471.824 580.323 472.273 580.997 472.273 581.822C472.273 582.646 471.797 583.32 471.215 583.32C470.634 583.32 470.435 583.77 470.775 584.319C471.115 584.869 472.256 585.318 473.311 585.318C474.5 585.318 475.406 586.175 475.691 587.567C476.826 593.11 478.116 604.784 477.645 605.254C477.36 605.54 472.281 605.94 466.359 606.142C453.617 606.579 454.383 607.36 453.567 593.092C453.262 587.75 452.627 583.618 452.157 583.909C451.686 584.199 451.302 589.356 451.302 595.369V606.3H446.51C441.969 606.3 441.652 606.122 440.493 602.914C438.196 596.56 430.577 595.903 428.311 601.865C427.571 603.812 426.677 604.302 423.865 604.302C421.929 604.302 420.345 603.869 420.345 603.341C420.345 602.811 421.263 599.924 422.385 596.923C424.529 591.19 430.16 585.117 435.126 583.18C441.586 580.661 453.255 579.633 453.378 581.572ZM145.741 584.828C148.204 586.207 154.621 589.593 159.999 592.352C169.077 597.009 171.916 599.413 170.276 601.054C169.628 601.703 156.419 595.353 145.926 589.347C139.645 585.752 137.161 585.572 134.06 588.487C131.385 591.002 130.087 590.418 131.689 587.421C132.88 585.197 137.293 582.426 139.749 582.361C140.582 582.339 143.278 583.449 145.741 584.828ZM51.5545 587.66C51.198 588.592 51.7004 588.88 53.1953 588.601C54.3816 588.38 56.2181 588.84 57.2766 589.624C59.129 590.993 58.9982 591.35 53.8663 598.924C50.9314 603.256 48.0424 607.128 47.4472 607.527C46.8511 607.928 44.2187 608.167 41.5974 608.059C38.0463 607.912 36.9628 607.516 37.3503 606.506C38.5456 603.392 50.1455 586.318 51.0672 586.318C51.6185 586.318 51.8382 586.922 51.5545 587.66ZM484.702 591.728C485.448 597.702 484.464 605.469 483.251 603.185C482.846 602.426 481.969 599.331 481.301 596.309C480.634 593.287 479.883 590.063 479.634 589.146C479.234 587.676 480.129 587.03 483.393 586.434C483.741 586.37 484.33 588.752 484.702 591.728ZM311.995 590.984C320.234 592.365 328.075 594.017 329.421 594.652C334.477 597.043 335.933 601.591 335.948 615.039C335.959 624.332 335.653 627.281 334.683 627.281C332.741 627.282 332.39 625.531 331.65 612.159C331.063 601.53 330.727 599.782 329.221 599.494C327.627 599.189 327.474 600.344 327.474 612.722C327.474 625.616 327.376 626.283 325.477 626.283C323.579 626.283 323.479 625.616 323.479 612.916C323.479 602.092 323.187 599.308 321.939 598.272C320.992 597.486 320.042 597.35 319.472 597.92C318.963 598.43 318.42 605.004 318.267 612.531C318.024 624.394 317.788 626.09 316.489 625.288C315.3 624.552 314.924 621.472 314.666 610.335C314.363 597.271 314.209 596.309 312.419 596.309C310.611 596.309 310.497 597.165 310.497 610.796C310.497 618.764 310.31 625.284 310.08 625.284C306.98 625.284 306.501 623.794 306.429 613.937C306.332 600.649 305.439 594.81 303.507 594.81C302.245 594.81 302.009 597.086 302.009 609.298V623.785H299.513H297.016L296.517 608.798C296.045 594.643 295.907 593.811 294.02 593.811C292.1 593.811 292.035 594.378 292.322 608.548L292.621 623.285H290.228C287.851 623.285 287.833 623.202 287.17 609.31C286.803 601.623 286.794 593.511 287.151 591.284L287.798 587.235L292.406 587.853C294.942 588.194 303.757 589.603 311.995 590.984ZM141.532 590.714C143.015 591.483 147.423 594.086 151.327 596.497L158.426 600.88L155.649 604.208L152.872 607.536L146.553 602.761C143.078 600.135 139.001 596.853 137.495 595.469C134.929 593.111 134.86 592.838 136.402 591.133C138.373 588.954 138.171 588.97 141.532 590.714ZM185.228 591.25C183.23 593.459 183.897 595.31 186.693 595.31C188.77 595.31 190.66 592.553 189.947 590.564C189.291 588.737 187.229 589.037 185.228 591.25ZM15.157 594.702C16.1187 595.433 16.9046 596.862 16.9046 597.88C16.9046 600.202 9.07648 608.298 6.83259 608.298C1.83053 608.298 1.95935 600.138 7.02932 595.869C10.4046 593.028 12.5477 592.72 15.157 594.702ZM130.747 595.861C130.747 596.165 129.399 596.883 127.751 597.458C123.727 598.861 123.765 601.871 127.802 601.489C128.104 601.46 128.884 602.29 129.534 603.332C130.539 604.94 130.468 605.131 129.07 604.595C127.986 604.178 127.663 604.351 128.127 605.102C128.559 605.801 127.854 606.487 126.305 606.876C124.915 607.225 122.397 609.084 120.71 611.007C119.022 612.929 117.548 614.343 117.433 614.148C115.717 611.221 112.772 603.818 112.772 602.432C112.772 600.01 115.487 597.701 119.762 596.484C123.601 595.393 130.747 594.987 130.747 595.861ZM608.94 598.197C609.806 598.747 610.046 599.845 609.603 601.239C608.94 603.329 608.807 603.351 606.389 601.766C603.631 599.959 598.148 600.318 591.227 602.761C588.102 603.864 587.21 603.846 585.573 602.648C583.901 601.425 583.838 601.093 585.121 600.28C585.942 599.761 588.187 599.074 590.109 598.755C592.032 598.435 594.279 598.031 595.103 597.857C598.388 597.161 607.666 597.39 608.94 598.197ZM73.8626 599.435L77.6264 600.564L75.3595 604.829C74.1133 607.174 72.5874 610.544 71.9702 612.318C70.8578 615.51 70.7949 615.537 65.3474 615.085C62.3226 614.834 59.5574 614.338 59.2029 613.984C58.2133 612.994 61.7324 604.586 64.5256 601.266C67.2747 597.995 68.3533 597.784 73.8626 599.435ZM437.321 600.274C437.321 600.806 436.719 601.011 435.983 600.728C434.294 600.08 432.628 602.067 432.153 605.301C431.791 607.758 431.766 607.764 430.607 605.706C429.665 604.034 429.731 603.178 430.934 601.459C432.435 599.316 437.321 598.409 437.321 600.274ZM92.5497 605.919C95.4327 606.709 97.7924 607.625 97.7924 607.956C97.7924 608.754 86.2664 607.423 83.2546 606.278C81.8955 605.761 80.6552 605.752 80.3436 606.257C79.8163 607.109 81.0466 607.464 89.1564 608.795C95.4836 609.833 92.5277 610.49 84.9073 609.738C77.5405 609.012 76.3172 607.947 79.357 604.905C81.0207 603.241 83.4623 603.429 92.5497 605.919ZM166.498 606.093C169.955 608.354 167.73 609.794 163.128 608.273C159.791 607.172 159.225 607.237 158.042 608.857C156.052 611.581 156.292 608.341 158.293 605.483C159.996 603.051 162.084 603.206 166.498 606.093ZM603.842 605.057C604.08 605.772 601.904 606.448 597.913 606.901C590.619 607.726 590.753 607.732 590.356 606.541C590.189 606.041 592.65 605.177 595.823 604.621C602.453 603.458 603.325 603.505 603.842 605.057ZM401.93 605.769C404.412 607.647 402.642 607.669 399.374 605.801C397.774 604.885 397.437 604.36 398.434 604.337C399.29 604.318 400.863 604.962 401.93 605.769ZM571.885 606.989C570.924 607.24 569.35 607.24 568.39 606.989C567.429 606.738 568.215 606.532 570.137 606.532C572.06 606.532 572.845 606.738 571.885 606.989ZM135.24 608.314C127.703 609.817 123.16 612.218 121.484 615.586C120.137 618.292 119.88 618.453 119.826 616.618C119.737 613.586 124.288 608.506 127.537 608.012C129.028 607.785 132.27 607.581 134.741 607.558L139.235 607.518L135.24 608.314ZM388.389 608.092C388.389 609.323 377.751 612.642 375.983 611.963C372.735 610.716 374.292 608.424 378.653 608.031C386.814 607.295 388.389 607.305 388.389 608.092ZM425.581 609.509C427.088 610.073 432.255 611.105 437.065 611.804C441.874 612.503 444.686 613.156 443.313 613.255C441.251 613.403 441.128 613.558 442.609 614.142C444.21 614.775 444.013 615.348 440.754 619.535C438.747 622.11 436.229 624.497 435.156 624.837C432.078 625.815 420.957 625.468 417.882 624.298C415.251 623.296 415.123 622.975 415.697 618.784C416.032 616.336 416.966 612.756 417.772 610.827C419.304 607.156 419.29 607.158 425.581 609.509ZM183.973 610.215C191.992 612.116 195.672 613.901 189.915 613.095C187.663 612.781 186.669 613.045 186.669 613.96C186.669 616.42 183.322 623.025 181.495 624.166C180.147 625.008 179.679 625.009 179.679 624.171C179.679 623.366 179.258 623.389 178.222 624.251C177.311 625.007 175.583 625.201 173.613 624.768C170.49 624.082 170.468 624.033 171.1 619.266C171.941 612.921 173.606 608.29 175.033 608.332C175.666 608.351 179.689 609.198 183.973 610.215ZM371.413 611.251C371.413 611.775 369.728 612.509 367.668 612.88C365.609 613.253 363.218 613.92 362.356 614.363C360.647 615.242 354.922 612.142 356.093 610.971C357.144 609.919 371.413 610.18 371.413 611.251ZM577.099 611.257C579.365 612.692 577.632 613.564 574.07 612.781C571.723 612.265 571.238 611.844 572.251 611.203C574.018 610.083 575.265 610.097 577.099 611.257ZM178.715 614.227C177.37 616.743 177.388 620.288 178.746 620.288C182.896 620.288 185.629 614.258 182.093 612.901C179.895 612.057 179.872 612.066 178.715 614.227ZM352.9 612.917C354.679 613.601 357.756 619.16 358.834 623.641C359.724 627.341 357.69 630.454 352.892 632.732C346.842 635.605 342.272 632.169 340.992 623.785L340.381 619.788L341.821 623.601C343.617 628.356 346.198 631.278 348.599 631.278C350.044 631.278 350.442 630.513 350.442 627.732C350.442 622.851 347.907 618.388 344.267 616.856L341.217 615.572L343.555 613.934C345.952 612.254 350.019 611.811 352.9 612.917ZM438.133 613.977C438.853 614.265 439.715 614.229 440.047 613.898C440.378 613.566 439.789 613.33 438.736 613.373C437.573 613.421 437.336 613.658 438.133 613.977ZM196.929 619.539C196.295 627.24 195.825 627.633 195.736 620.538C195.693 617.104 196.04 614.293 196.508 614.293C196.977 614.293 197.167 616.653 196.929 619.539ZM451.577 618.04C450.493 624.819 449.271 627.181 449.868 621.344C450.39 616.227 450.92 614.293 451.797 614.293C452.005 614.293 451.905 615.98 451.577 618.04ZM249.244 619.539C248.968 620.226 248.741 619.664 248.741 618.29C248.741 616.916 248.968 616.354 249.244 617.041C249.522 617.728 249.522 618.852 249.244 619.539ZM350.941 618.29C350.602 618.839 350.8 619.289 351.382 619.289C351.963 619.289 352.439 618.839 352.439 618.29C352.439 617.74 352.241 617.291 351.999 617.291C351.756 617.291 351.281 617.74 350.941 618.29ZM141.15 621.894C143.828 622.922 142.924 624.312 138.225 626.391C135.127 627.761 132.086 628.29 128.489 628.083L123.257 627.781L128.749 624.543C134.044 621.423 137.821 620.616 141.15 621.894ZM603.091 624.198C599.811 624.548 598.253 625.054 599.224 625.455C601.313 626.318 609.083 625.292 609.083 624.153C609.083 623.676 608.971 623.358 608.833 623.448C608.696 623.538 606.112 623.875 603.091 624.198Z" fill="#E4DEEC" />
</svg>
