<svg width="24" height="24" viewBox="0 0 24 24" fill="none" xmlns="http://www.w3.org/2000/svg">
<path fill-rule="evenodd" clip-rule="evenodd" d="M17.317 16.063V14.721C17.317 14.3887 17.449 14.07 17.684 13.835L18.633 12.886C19.1223 12.3967 19.1223 11.6033 18.633 11.114L17.684 10.165C17.449 9.93001 17.317 9.61131 17.317 9.27899V7.93599C17.317 7.24398 16.756 6.68299 16.064 6.68299H14.721C14.3887 6.68299 14.07 6.55097 13.835 6.31599L12.886 5.36699C12.3967 4.87767 11.6033 4.87767 11.114 5.36699L10.165 6.31599C9.93001 6.55097 9.61131 6.68299 9.27899 6.68299H7.93599C7.6035 6.68299 7.28464 6.81514 7.04963 7.05034C6.81462 7.28554 6.68273 7.6045 6.68299 7.93699V9.27899C6.68299 9.61131 6.55097 9.93001 6.31599 10.165L5.36699 11.114C4.87767 11.6033 4.87767 12.3967 5.36699 12.886L6.31599 13.835C6.55097 14.07 6.68299 14.3887 6.68299 14.721V16.063C6.68299 16.755 7.24398 17.316 7.93599 17.316H9.27899C9.61131 17.316 9.93001 17.448 10.165 17.683L11.114 18.632C11.6033 19.1213 12.3967 19.1213 12.886 18.632L13.835 17.683C14.07 17.448 14.3887 17.316 14.721 17.316H16.063C16.3955 17.3163 16.7144 17.1844 16.9496 16.9493C17.1848 16.7143 17.317 16.3955 17.317 16.063Z" stroke="#F01A1A" stroke-width="1.5" stroke-linecap="round" stroke-linejoin="round"/>
<path fill-rule="evenodd" clip-rule="evenodd" d="M9.28201 10.641C9.00715 10.3662 8.92492 9.95286 9.07366 9.59375C9.2224 9.23464 9.57282 9.00049 9.96151 9.00049C10.3502 9.00049 10.7006 9.23464 10.8493 9.59375C10.9981 9.95286 10.9159 10.3662 10.641 10.641C10.2657 11.0163 9.6573 11.0163 9.28201 10.641Z" stroke="#F01A1A" stroke-width="1.5" stroke-linecap="round" stroke-linejoin="round"/>
<path fill-rule="evenodd" clip-rule="evenodd" d="M13.3592 14.718C13.0843 14.4431 13.0021 14.0298 13.1508 13.6707C13.2996 13.3115 13.65 13.0774 14.0387 13.0774C14.4274 13.0774 14.7778 13.3115 14.9265 13.6707C15.0753 14.0298 14.9931 14.4431 14.7182 14.718C14.3429 15.0932 13.7345 15.0932 13.3592 14.718Z" stroke="#F01A1A" stroke-width="1.5" stroke-linecap="round"/>
<path d="M14.7178 9.28101L9.28076 14.719" stroke="#F01A1A" stroke-width="1.5" stroke-linecap="round"/>
</svg>
