<svg width="24" height="25" viewBox="0 0 24 25" fill="none" xmlns="http://www.w3.org/2000/svg">
	<path d="M10.2452 16.7194C10.495 16.389 10.4298 15.9186 10.0994 15.6688C9.76904 15.419 9.29868 15.4842 9.04883 15.8146L10.2452 16.7194ZM6.22583 19.5476C5.97599 19.878 6.04128 20.3484 6.37166 20.5982C6.70204 20.8481 7.1724 20.7828 7.42225 20.4524L6.22583 19.5476ZM6.07404 20C6.07404 20.4142 6.40983 20.75 6.82404 20.75C7.23825 20.75 7.57404 20.4142 7.57404 20H6.07404ZM7.57404 6C7.57404 5.58579 7.23825 5.25 6.82404 5.25C6.40983 5.25 6.07404 5.58579 6.07404 6H7.57404ZM6.22591 20.4525C6.47581 20.7828 6.94618 20.848 7.27652 20.5981C7.60686 20.3482 7.67207 19.8779 7.42217 19.5475L6.22591 20.4525ZM4.59817 15.8145C4.34827 15.4842 3.8779 15.419 3.54756 15.6689C3.21722 15.9188 3.15201 16.3891 3.40191 16.7195L4.59817 15.8145ZM10.588 5.25C10.1738 5.25 9.83804 5.58579 9.83804 6C9.83804 6.41421 10.1738 6.75 10.588 6.75V5.25ZM20 6.75C20.4142 6.75 20.75 6.41421 20.75 6C20.75 5.58579 20.4142 5.25 20 5.25V6.75ZM10.588 8.05C10.1738 8.05 9.83804 8.38579 9.83804 8.8C9.83804 9.21421 10.1738 9.55 10.588 9.55V8.05ZM18.117 9.55C18.5312 9.55 18.867 9.21421 18.867 8.8C18.867 8.38579 18.5312 8.05 18.117 8.05V9.55ZM10.588 10.85C10.1738 10.85 9.83804 11.1858 9.83804 11.6C9.83804 12.0142 10.1738 12.35 10.588 12.35V10.85ZM16.235 12.35C16.6492 12.35 16.985 12.0142 16.985 11.6C16.985 11.1858 16.6492 10.85 16.235 10.85V12.35ZM9.04883 15.8146L6.22583 19.5476L7.42225 20.4524L10.2452 16.7194L9.04883 15.8146ZM7.57404 20V6H6.07404V20H7.57404ZM7.42217 19.5475L4.59817 15.8145L3.40191 16.7195L6.22591 20.4525L7.42217 19.5475ZM10.588 6.75H20V5.25H10.588V6.75ZM10.588 9.55H18.117V8.05H10.588V9.55ZM10.588 12.35H16.235V10.85H10.588V12.35Z" fill="#1C1817" />
</svg>
