<svg width="24" height="24" viewBox="0 0 24 24" fill="none" xmlns="http://www.w3.org/2000/svg">
<path d="M15.8335 3H8.16683C6.04974 3 4.3335 4.34315 4.3335 6V18C4.3335 19.6569 6.04974 21 8.16683 21H15.8335C17.9506 21 19.6668 19.6569 19.6668 18V6C19.6668 4.34315 17.9506 3 15.8335 3Z" stroke="#1C1817" stroke-width="1.5" stroke-linecap="round" stroke-linejoin="round"/>
<path d="M12.0002 18.5C11.8296 18.5 11.6691 18.448 11.5485 18.3536C11.4278 18.2591 11.3613 18.1336 11.3613 18C11.3613 17.9008 11.3985 17.8047 11.469 17.7222C11.5395 17.6397 11.6386 17.576 11.7557 17.5381C11.8336 17.5128 11.9159 17.5 12.0002 17.5C12.042 17.5 12.0839 17.5032 12.1248 17.5096C12.2493 17.529 12.3623 17.5763 12.452 17.6464C12.5416 17.7166 12.6021 17.8051 12.6268 17.9025C12.6516 17.9998 12.639 18.0997 12.5904 18.1913C12.542 18.283 12.4606 18.3606 12.3552 18.4157C12.2498 18.4709 12.127 18.5 12.0002 18.5Z" fill="#1C1817"/>
<path d="M11.9999 19C11.6611 19 11.336 18.8946 11.0964 18.7071C10.8568 18.5196 10.7222 18.2652 10.7222 18C10.7222 17.8022 10.797 17.6089 10.9375 17.4444C11.0779 17.28 11.2775 17.1518 11.5109 17.0761C11.7444 17.0004 12.0014 16.9806 12.2492 17.0192C12.4971 17.0578 12.7248 17.153 12.9035 17.2929C13.0822 17.4327 13.2039 17.6109 13.2532 17.8049C13.3025 17.9989 13.2772 18.2 13.1805 18.3827C13.0838 18.5654 12.9199 18.7216 12.7099 18.8315C12.4997 18.9414 12.2527 19 11.9999 19Z" fill="#1C1817"/>
</svg>
