<svg width="24" height="24" viewBox="0 0 24 24" fill="none" xmlns="http://www.w3.org/2000/svg">
<path fill-rule="evenodd" clip-rule="evenodd" d="M10.269 17.4998H13.731C15.232 17.5277 16.4715 16.3338 16.5 14.8328V12.1668C16.4715 10.6658 15.232 9.47187 13.731 9.49975H10.269C8.768 9.47187 7.52845 10.6658 7.5 12.1668V14.8338C7.529 16.3344 8.76839 17.5277 10.269 17.4998Z" stroke="#1C1817" stroke-linecap="round" stroke-linejoin="round"/>
<path d="M9.43303 3.75009C9.29496 3.51094 8.98917 3.429 8.75002 3.56706C8.51087 3.70513 8.42893 4.01093 8.567 4.25007L9.43303 3.75009ZM10.299 7.25007C10.4371 7.48922 10.7429 7.57116 10.982 7.4331C11.2212 7.29503 11.3031 6.98923 11.165 6.75009L10.299 7.25007ZM15.433 4.25007C15.5711 4.01093 15.4892 3.70513 15.25 3.56706C15.0109 3.429 14.7051 3.51094 14.567 3.75009L15.433 4.25007ZM12.835 6.75009C12.6969 6.98923 12.7789 7.29503 13.018 7.4331C13.2572 7.57116 13.563 7.48922 13.701 7.25007L12.835 6.75009ZM13.268 6.50008C12.9919 6.50008 12.768 6.72394 12.768 7.00008C12.768 7.27622 12.9919 7.50008 13.268 7.50008V6.50008ZM14.692 7.00008L14.6935 6.50008H14.692V7.00008ZM19 11.3331L18.5 11.3317V11.3331H19ZM19 15.6661H18.5V15.6676L19 15.6661ZM14.692 20.0001V20.5001H14.6935L14.692 20.0001ZM9.30802 20.0001L9.30651 20.5001H9.30802V20.0001ZM5.00002 15.6671L5.50002 15.6685V15.6671H5.00002ZM5.00002 11.3331H5.50002V11.3317L5.00002 11.3331ZM9.30802 7.00008V6.50008H9.30651L9.30802 7.00008ZM10.732 7.50008C11.0082 7.50008 11.232 7.27622 11.232 7.00008C11.232 6.72394 11.0082 6.50008 10.732 6.50008V7.50008ZM13.268 7.50008C13.5442 7.50008 13.768 7.27622 13.768 7.00008C13.768 6.72394 13.5442 6.50008 13.268 6.50008V7.50008ZM10.732 6.50008C10.4559 6.50008 10.232 6.72394 10.232 7.00008C10.232 7.27622 10.4559 7.50008 10.732 7.50008V6.50008ZM8.567 4.25007L10.299 7.25007L11.165 6.75009L9.43303 3.75009L8.567 4.25007ZM14.567 3.75009L12.835 6.75009L13.701 7.25007L15.433 4.25007L14.567 3.75009ZM13.268 7.50008H14.692V6.50008H13.268V7.50008ZM14.6905 7.50008C16.8005 7.50642 18.5059 9.22175 18.5 11.3317L19.5 11.3345C19.5074 8.67234 17.3557 6.50808 14.6935 6.50008L14.6905 7.50008ZM18.5 11.3331V15.6661H19.5V11.3331H18.5ZM18.5 15.6676C18.5031 16.681 18.1034 17.6541 17.389 18.3728L18.0982 19.0778C18.9996 18.171 19.5039 16.9432 19.5 15.6646L18.5 15.6676ZM17.389 18.3728C16.6746 19.0916 15.7039 19.4971 14.6905 19.5001L14.6935 20.5001C15.9721 20.4963 17.1968 19.9846 18.0982 19.0778L17.389 18.3728ZM14.692 19.5001H9.30802V20.5001H14.692V19.5001ZM9.30952 19.5001C7.19958 19.4938 5.49415 17.7784 5.50002 15.6685L4.50002 15.6657C4.49261 18.3278 6.64438 20.4921 9.30651 20.5001L9.30952 19.5001ZM5.50002 15.6671V11.3331H4.50002V15.6671H5.50002ZM5.50002 11.3317C5.49415 9.22175 7.19958 7.50642 9.30952 7.50008L9.30651 6.50008C6.64438 6.50808 4.49261 8.67234 4.50002 11.3345L5.50002 11.3317ZM9.30802 7.50008H10.732V6.50008H9.30802V7.50008ZM13.268 6.50008H10.732V7.50008H13.268V6.50008Z" fill="#1C1817"/>
</svg>
