<svg width="48" height="48" viewBox="0 0 48 48" fill="none" xmlns="http://www.w3.org/2000/svg">
<path fill-rule="evenodd" clip-rule="evenodd" d="M20.842 35.9C20.8156 37.028 19.8835 37.923 18.7554 37.9038C17.6273 37.8844 16.7264 36.958 16.7386 35.8298C16.7509 34.7016 17.6717 33.7948 18.8 33.8C19.9426 33.8188 20.8554 34.7574 20.842 35.9Z" stroke="#808080" stroke-width="2" stroke-linecap="round" stroke-linejoin="round"/>
<path fill-rule="evenodd" clip-rule="evenodd" d="M31.7819 35.9C31.7555 37.0268 30.8253 37.9212 29.6985 37.9038C28.5717 37.8864 27.6699 36.9634 27.6785 35.8364C27.6871 34.7094 28.6029 33.8004 29.7299 33.8C30.2805 33.8064 30.8059 34.0312 31.1907 34.425C31.5757 34.8188 31.7883 35.3494 31.7819 35.9Z" stroke="#808080" stroke-width="2" stroke-linecap="round" stroke-linejoin="round"/>
<path fill-rule="evenodd" clip-rule="evenodd" d="M39.26 15.6001H19.4739L18.1059 26.8C18.0974 27.5342 18.3808 28.2416 18.8939 28.7668C19.4071 29.292 20.1078 29.5916 20.842 29.6H32.97C33.9382 29.5962 34.8314 29.0784 35.316 28.24L41.6 19.8401C42.1134 18.9844 42.1326 17.9202 41.6504 17.0465C41.1682 16.1728 40.2576 15.6218 39.26 15.6001Z" stroke="#808080" stroke-width="2.5" stroke-linecap="round" stroke-linejoin="round"/>
<path d="M18.0168 15.9559C18.2134 16.7606 19.0251 17.2537 19.8299 17.0572C20.6346 16.8606 21.1278 16.0489 20.9312 15.2441L18.0168 15.9559ZM18.164 10.236L19.6212 9.88012L19.6206 9.87794L18.164 10.236ZM17.864 10L17.869 8.5H17.864V10ZM12.636 8.5C11.8076 8.5 11.136 9.17158 11.136 10C11.136 10.8284 11.8076 11.5 12.636 11.5V8.5ZM13.726 19.278C14.5544 19.278 15.226 18.6064 15.226 17.778C15.226 16.9496 14.5544 16.278 13.726 16.278V19.278ZM8 16.278C7.17158 16.278 6.5 16.9496 6.5 17.778C6.5 18.6064 7.17158 19.278 8 19.278V16.278ZM13.728 23.944C14.5564 23.944 15.228 23.2724 15.228 22.444C15.228 21.6156 14.5564 20.944 13.728 20.944V23.944ZM11.864 20.944C11.0356 20.944 10.364 21.6156 10.364 22.444C10.364 23.2724 11.0356 23.944 11.864 23.944V20.944ZM20.9312 15.2441L19.6212 9.88012L16.7068 10.5919L18.0168 15.9559L20.9312 15.2441ZM19.6206 9.87794C19.4223 9.07102 18.7 8.5028 17.869 8.5L17.859 11.5C17.3127 11.4982 16.8378 11.1246 16.7074 10.5941L19.6206 9.87794ZM17.864 8.5H12.636V11.5H17.864V8.5ZM13.726 16.278H8V19.278H13.726V16.278ZM13.728 20.944H11.864V23.944H13.728V20.944Z" fill="#808080"/>
</svg>
