<svg width="48" height="48" viewBox="0 0 48 48" fill="none" xmlns="http://www.w3.org/2000/svg">
<path fill-rule="evenodd" clip-rule="evenodd" d="M10 15.474V32.526C10.0032 33.451 10.3738 34.3366 11.0302 34.9882C11.6866 35.6398 12.5751 36.0038 13.5 36H34.5C35.4248 36.0038 36.3134 35.6398 36.9698 34.9882C37.6262 34.3366 37.9968 33.451 38 32.526V15.474C37.9968 14.5491 37.6262 13.6634 36.9698 13.0119C36.3134 12.3603 35.4248 11.9963 34.5 12H13.5C12.5751 11.9963 11.6866 12.3603 11.0302 13.0119C10.3738 13.6634 10.0032 14.5491 10 15.474Z" stroke="#808080" stroke-width="2.5" stroke-linecap="round" stroke-linejoin="round"/>
<path d="M38 21.71C38.8284 21.71 39.5 21.0384 39.5 20.21C39.5 19.3815 38.8284 18.71 38 18.71V21.71ZM10 18.71C9.17158 18.71 8.5 19.3815 8.5 20.21C8.5 21.0384 9.17158 21.71 10 21.71V18.71ZM25.75 27.868C26.5784 27.868 27.25 27.1964 27.25 26.368C27.25 25.5396 26.5784 24.868 25.75 24.868V27.868ZM10 24.868C9.17158 24.868 8.5 25.5396 8.5 26.368C8.5 27.1964 9.17158 27.868 10 27.868V24.868ZM32.75 27.868C33.5784 27.868 34.25 27.1964 34.25 26.368C34.25 25.5396 33.5784 24.868 32.75 24.868V27.868ZM31 24.868C30.1716 24.868 29.5 25.5396 29.5 26.368C29.5 27.1964 30.1716 27.868 31 27.868V24.868ZM38 18.71H10V21.71H38V18.71ZM25.75 24.868H10V27.868H25.75V24.868ZM32.75 24.868H31V27.868H32.75V24.868Z" fill="#808080"/>
</svg>
