<svg width="16" height="16" viewBox="0 0 16 16" fill="none" xmlns="http://www.w3.org/2000/svg">
<path d="M4.08072 1.25229C3.29968 0.471242 2.03334 0.471242 1.25229 1.25229C0.471242 2.03334 0.471242 3.29968 1.25229 4.08072L4.08072 1.25229ZM6.58562 9.41405C7.36666 10.1951 8.63301 10.1951 9.41405 9.41405C10.1951 8.63301 10.1951 7.36666 9.41405 6.58562L6.58562 9.41405ZM9.41405 6.58562C8.63301 5.80458 7.36666 5.80458 6.58562 6.58562C5.80458 7.36666 5.80458 8.63301 6.58562 9.41405L9.41405 6.58562ZM11.919 14.7474C12.7 15.5284 13.9663 15.5284 14.7474 14.7474C15.5284 13.9663 15.5284 12.7 14.7474 11.919L11.919 14.7474ZM9.41405 9.41405C10.1951 8.63301 10.1951 7.36666 9.41405 6.58562C8.63301 5.80458 7.36666 5.80458 6.58562 6.58562L9.41405 9.41405ZM1.25229 11.919C0.471242 12.7 0.471242 13.9663 1.25229 14.7474C2.03334 15.5284 3.29968 15.5284 4.08072 14.7474L1.25229 11.919ZM6.58562 6.58562C5.80458 7.36666 5.80458 8.63301 6.58562 9.41405C7.36666 10.1951 8.63301 10.1951 9.41405 9.41405L6.58562 6.58562ZM14.7474 4.08072C15.5284 3.29968 15.5284 2.03334 14.7474 1.25229C13.9663 0.471242 12.7 0.471242 11.919 1.25229L14.7474 4.08072ZM1.25229 4.08072L6.58562 9.41405L9.41405 6.58562L4.08072 1.25229L1.25229 4.08072ZM6.58562 9.41405L11.919 14.7474L14.7474 11.919L9.41405 6.58562L6.58562 9.41405ZM6.58562 6.58562L1.25229 11.919L4.08072 14.7474L9.41405 9.41405L6.58562 6.58562ZM9.41405 9.41405L14.7474 4.08072L11.919 1.25229L6.58562 6.58562L9.41405 9.41405Z" fill="#F01A1A"/>
</svg>
