<svg width="48" height="48" viewBox="0 0 48 48" fill="none" xmlns="http://www.w3.org/2000/svg">
<path d="M16.8452 15.0439C17.4217 14.449 17.4068 13.4993 16.8119 12.9228C16.217 12.3463 15.2673 12.3612 14.6908 12.9561L16.8452 15.0439ZM8.92282 18.9081C8.3463 19.503 8.36122 20.4526 8.95612 21.0292C9.55104 21.6056 10.5007 21.5908 11.0772 20.9958L8.92282 18.9081ZM11.0449 18.8758C10.4505 18.2987 9.49988 18.3138 8.92282 18.9081C8.3463 19.503 8.36122 20.4526 8.95612 21.0292L11.0449 18.8758ZM14.7231 26.6282C15.3175 27.2052 16.2672 27.1912 16.8442 26.5968C17.4213 26.0024 17.4072 25.0528 16.8129 24.4758L14.7231 26.6282ZM10 18.452C9.17158 18.452 8.5 19.1236 8.5 19.952C8.5 20.7804 9.17158 21.452 10 21.452V18.452ZM31.24 19.952L31.2694 18.4523C31.2596 18.4521 31.2498 18.452 31.24 18.452V19.952ZM38 26.976L36.5002 26.9478C36.5 26.9666 36.5 26.9854 36.5002 27.0042L38 26.976ZM31.24 34V35.5C31.2498 35.5 31.2596 35.5 31.2694 35.4998L31.24 34ZM10 32.5C9.17158 32.5 8.5 33.1716 8.5 34C8.5 34.8284 9.17158 35.5 10 35.5V32.5ZM14.6908 12.9561L8.92282 18.9081L11.0772 20.9958L16.8452 15.0439L14.6908 12.9561ZM8.95612 21.0292L14.7231 26.6282L16.8129 24.4758L11.0449 18.8758L8.95612 21.0292ZM10 21.452H31.24V18.452H10V21.452ZM31.2106 21.4518C34.1886 21.51 36.5562 23.97 36.5002 26.9478L39.4998 27.0042C39.5866 22.3706 35.9028 18.5429 31.2694 18.4523L31.2106 21.4518ZM36.5002 27.0042C36.5562 29.982 34.1886 32.442 31.2106 32.5002L31.2694 35.4998C35.9028 35.4092 39.5866 31.5814 39.4998 26.9478L36.5002 27.0042ZM31.24 32.5H10V35.5H31.24V32.5Z" fill="#808080"/>
</svg>
